<?xml version="1.0" encoding="UTF-8" standalone="no"?>
<!-- Created with Inkscape (http://www.inkscape.org/) -->

<svg
   width="150"
   height="150"
   viewBox="0 0 39.687499 39.687501"
   version="1.1"
   id="svg160"
   inkscape:version="1.3 (0e150ed6c4, 2023-07-21)"
   sodipodi:docname="uixSvgIcon_ability_mechmeister.svg"
   xmlns:inkscape="http://www.inkscape.org/namespaces/inkscape"
   xmlns:sodipodi="http://sodipodi.sourceforge.net/DTD/sodipodi-0.dtd"
   xmlns="http://www.w3.org/2000/svg"
   xmlns:svg="http://www.w3.org/2000/svg">
  <sodipodi:namedview
     id="namedview162"
     pagecolor="#505050"
     bordercolor="#ffffff"
     borderopacity="1"
     inkscape:pageshadow="0"
     inkscape:pageopacity="0"
     inkscape:pagecheckerboard="1"
     inkscape:document-units="px"
     showgrid="false"
     units="px"
     inkscape:zoom="4"
     inkscape:cx="-2.75"
     inkscape:cy="63.875"
     inkscape:window-width="1600"
     inkscape:window-height="871"
     inkscape:window-x="-9"
     inkscape:window-y="-9"
     inkscape:window-maximized="1"
     inkscape:current-layer="layer1"
     showguides="true"
     inkscape:guide-bbox="true"
     inkscape:showpageshadow="0"
     inkscape:deskcolor="#d1d1d1">
    <sodipodi:guide
       position="2.6287293,42.95565"
       orientation="1,0"
       id="guide1759"
       inkscape:locked="false" />
    <sodipodi:guide
       position="37.062715,43.358248"
       orientation="1,0"
       id="guide1761"
       inkscape:locked="false" />
  </sodipodi:namedview>
  <defs
     id="defs157" />
  <g
     inkscape:label="Layer 1"
     inkscape:groupmode="layer"
     id="layer1">
    <g
       id="g2197"
       transform="matrix(0.12989616,0,0,0.12514077,0.61911764,1.3229167)"
       style="fill:#ffffff;fill-opacity:1;stroke:#808080;stroke-opacity:1;stroke-width:2.07522369;stroke-dasharray:none">
      <g
         id="g2137"
         style="fill:#ffffff;fill-opacity:1;stroke:#808080;stroke-opacity:1;stroke-width:2.07522369;stroke-dasharray:none">
        <polygon
           points="100.71,264 112.924,296 183.744,296 195.958,264 "
           id="polygon2123"
           style="fill:#ffffff;fill-opacity:1;stroke:#808080;stroke-opacity:1;stroke-width:2.07522369;stroke-dasharray:none" />
        <path
           d="m 201.992,248 21.22,-56.265 c -4.88,-2.984 -10.061,-5.532 -15.496,-7.69 -16.385,13.109 -37.148,20.962 -59.716,20.962 -22.566,0 -43.331,-7.853 -59.716,-20.961 -5.234,2.078 -10.229,4.521 -14.951,7.364 L 94.676,248 Z"
           id="path2125"
           style="fill:#ffffff;fill-opacity:1;stroke:#808080;stroke-opacity:1;stroke-width:2.07522369;stroke-dasharray:none" />
        <path
           d="m 270.213,296 c 0,-45 -12.8,-75.827 -33.654,-94.698 L 200.845,296 Z"
           id="path2127"
           style="fill:#ffffff;fill-opacity:1;stroke:#808080;stroke-opacity:1;stroke-width:2.07522369;stroke-dasharray:none" />
        <path
           d="M 25.787,296 H 95.823 L 59.942,200.859 C 38.794,219.701 25.787,250 25.787,296 Z"
           id="path2129"
           style="fill:#ffffff;fill-opacity:1;stroke:#808080;stroke-opacity:1;stroke-width:2.07522369;stroke-dasharray:none" />
        <path
           d="m 54,83.83 c 0,-0.275 0.018,-0.545 0.02,-0.819 C 54.018,82.736 54,82.467 54,82.191 Z"
           id="path2131"
           style="fill:#ffffff;fill-opacity:1;stroke:#808080;stroke-opacity:1;stroke-width:2.07522369;stroke-dasharray:none" />
        <path
           d="m 242,82.191 c 0,0.275 -0.017,0.545 -0.019,0.819 0.002,0.275 0.019,0.544 0.019,0.819 z"
           id="path2133"
           style="fill:#ffffff;fill-opacity:1;stroke:#808080;stroke-opacity:1;stroke-width:2.07522369;stroke-dasharray:none" />
        <path
           d="m 73.067,136.612 c 11.163,30.57 40.499,52.395 74.933,52.395 33.727,0 62.544,-20.948 74.203,-50.535 10.938,-13.183 18.019,-30.194 19.491,-48.976 0.168,-2.141 0.268,-4.302 0.287,-6.485 C 241.58,37.091 207.705,0 164.954,0 H 132.8 C 90.051,0 54.441,37.091 54.02,83.011 c 0.021,2.165 0.124,4.31 0.298,6.433 1.465,17.936 8.303,34.248 18.749,47.168 z m 137.6,-23.489 c 0,15.926 -12.99,28.837 -28.919,28.837 -12.887,0 -23.945,-8.391 -27.452,-20.111 -3.01,-10.058 0.268,-21.694 -6.171,-21.977 -6.44,0.282 -3.182,11.919 -6.192,21.977 -3.507,11.721 -14.971,20.111 -27.858,20.111 -15.929,0 -29.408,-12.911 -29.408,-28.837 V 82 h 63.5 62.5 z M 147.999,57.887 C 124.222,39.869 132.542,24.114 132.542,24.114 l 15.457,15.148 15.459,-15.148 c 0,-0.001 8.32,15.755 -15.459,33.773 z"
           id="path2135"
           style="fill:#ffffff;fill-opacity:1;stroke:#808080;stroke-opacity:1;stroke-width:2.07522369;stroke-dasharray:none" />
      </g>
      <g
         id="g2139"
         style="fill:#ffffff;fill-opacity:1;stroke:#808080;stroke-opacity:1;stroke-width:2.07522369;stroke-dasharray:none" />
      <g
         id="g2141"
         style="fill:#ffffff;fill-opacity:1;stroke:#808080;stroke-opacity:1;stroke-width:2.07522369;stroke-dasharray:none" />
      <g
         id="g2143"
         style="fill:#ffffff;fill-opacity:1;stroke:#808080;stroke-opacity:1;stroke-width:2.07522369;stroke-dasharray:none" />
      <g
         id="g2145"
         style="fill:#ffffff;fill-opacity:1;stroke:#808080;stroke-opacity:1;stroke-width:2.07522369;stroke-dasharray:none" />
      <g
         id="g2147"
         style="fill:#ffffff;fill-opacity:1;stroke:#808080;stroke-opacity:1;stroke-width:2.07522369;stroke-dasharray:none" />
      <g
         id="g2149"
         style="fill:#ffffff;fill-opacity:1;stroke:#808080;stroke-opacity:1;stroke-width:2.07522369;stroke-dasharray:none" />
      <g
         id="g2151"
         style="fill:#ffffff;fill-opacity:1;stroke:#808080;stroke-opacity:1;stroke-width:2.07522369;stroke-dasharray:none" />
      <g
         id="g2153"
         style="fill:#ffffff;fill-opacity:1;stroke:#808080;stroke-opacity:1;stroke-width:2.07522369;stroke-dasharray:none" />
      <g
         id="g2155"
         style="fill:#ffffff;fill-opacity:1;stroke:#808080;stroke-opacity:1;stroke-width:2.07522369;stroke-dasharray:none" />
      <g
         id="g2157"
         style="fill:#ffffff;fill-opacity:1;stroke:#808080;stroke-opacity:1;stroke-width:2.07522369;stroke-dasharray:none" />
      <g
         id="g2159"
         style="fill:#ffffff;fill-opacity:1;stroke:#808080;stroke-opacity:1;stroke-width:2.07522369;stroke-dasharray:none" />
      <g
         id="g2161"
         style="fill:#ffffff;fill-opacity:1;stroke:#808080;stroke-opacity:1;stroke-width:2.07522369;stroke-dasharray:none" />
      <g
         id="g2163"
         style="fill:#ffffff;fill-opacity:1;stroke:#808080;stroke-opacity:1;stroke-width:2.07522369;stroke-dasharray:none" />
      <g
         id="g2165"
         style="fill:#ffffff;fill-opacity:1;stroke:#808080;stroke-opacity:1;stroke-width:2.07522369;stroke-dasharray:none" />
      <g
         id="g2167"
         style="fill:#ffffff;fill-opacity:1;stroke:#808080;stroke-opacity:1;stroke-width:2.07522369;stroke-dasharray:none" />
    </g>
  </g>
</svg>
