<?xml version="1.0" encoding="UTF-8" standalone="no"?>
<!-- Created with Inkscape (http://www.inkscape.org/) -->

<svg
   width="150"
   height="150"
   viewBox="0 0 39.687499 39.687501"
   version="1.1"
   id="svg160"
   inkscape:version="1.3 (0e150ed6c4, 2023-07-21)"
   sodipodi:docname="uixSvgIcon_ability_breaklock.svg"
   xmlns:inkscape="http://www.inkscape.org/namespaces/inkscape"
   xmlns:sodipodi="http://sodipodi.sourceforge.net/DTD/sodipodi-0.dtd"
   xmlns="http://www.w3.org/2000/svg"
   xmlns:svg="http://www.w3.org/2000/svg">
  <sodipodi:namedview
     id="namedview162"
     pagecolor="#505050"
     bordercolor="#ffffff"
     borderopacity="1"
     inkscape:pageshadow="0"
     inkscape:pageopacity="0"
     inkscape:pagecheckerboard="1"
     inkscape:document-units="px"
     showgrid="false"
     units="px"
     inkscape:zoom="4"
     inkscape:cx="85"
     inkscape:cy="76.125"
     inkscape:window-width="1600"
     inkscape:window-height="871"
     inkscape:window-x="-9"
     inkscape:window-y="-9"
     inkscape:window-maximized="1"
     inkscape:current-layer="g1097"
     inkscape:showpageshadow="0"
     inkscape:deskcolor="#505050" />
  <defs
     id="defs157">
    <filter
       style="color-interpolation-filters:sRGB;"
       inkscape:label="Invert"
       id="filter2414"
       x="-0.0009765625"
       y="-0.0009765625"
       width="1.0019531"
       height="1.0019531">
      <feColorMatrix
         type="hueRotate"
         values="180"
         result="color1"
         id="feColorMatrix2410" />
      <feColorMatrix
         values="-1 0 0 0 1 0 -1 0 0 1 0 0 -1 0 1 -0.21 -0.72 -0.07 2 0 "
         result="color2"
         id="feColorMatrix2412" />
    </filter>
    <filter
       style="color-interpolation-filters:sRGB;"
       inkscape:label="Invert"
       id="filter1101"
       x="-0.0035419434"
       y="-0.003524093"
       width="1.0092377"
       height="1.007057">
      <feColorMatrix
         values="-1 0 0 0 1 0 -1 0 0 1 0 0 -1 0 1 -0.21 -0.72 -0.07 2 0 "
         result="fbSourceGraphic"
         id="feColorMatrix1099" />
      <feColorMatrix
         result="fbSourceGraphicAlpha"
         in="fbSourceGraphic"
         values="0 0 0 -1 0 0 0 0 -1 0 0 0 0 -1 0 0 0 0 1 0"
         id="feColorMatrix858" />
      <feColorMatrix
         id="feColorMatrix860"
         values="-1 0 0 0 1 0 -1 0 0 1 0 0 -1 0 1 -0.21 -0.72 -0.07 2 0 "
         result="color2"
         in="fbSourceGraphic" />
    </filter>
  </defs>
  <g
     inkscape:label="Layer 1"
     inkscape:groupmode="layer"
     id="layer1">
    <g
       id="g1097"
       transform="matrix(0.07468078,0,0,0.07468078,1.4304043,1.163754)"
       style="stroke:#000000;stroke-width:3.54285712;stroke-miterlimit:4;stroke-dasharray:none;stroke-opacity:1;filter:url(#filter1101);fill:#ffffff;fill-opacity:1">
      <path
         d="M 380.45894,130.62834 495.85588,125.99662 455.64482,48.066244 Z M 374.69225,82.545911 420.83324,7.0220231 357.46742,4.5232211 Z M 265.65907,107.57785 c -1.79615,-8.907179 -4.61668,-17.364699 -8.28273,-25.248589 9.44778,1.58317 56.71636,12.71511 56.71636,12.71511 l -12.30894,47.436689 c 0,0 -32.39611,-7.56823 -33.77536,-7.89332 0.1858,-9.07163 -0.55532,-18.12794 -2.34933,-27.00989 z m 175.86726,235.47328 -40.1819,-81.56592 c -6.02817,-12.23531 -14.37047,-22.39107 -24.43894,-30.06568 -0.68457,-17.00415 -4.05159,-34.05645 -7.38602,-50.88618 l -6.14728,-31.1385 -43.10205,13.35191 6.27101,32.49435 c 1.43195,7.22628 2.70259,13.84078 3.74397,19.99388 -18.03034,-0.413 -36.28203,5.08421 -52.7897,16.11454 -10.72979,7.17297 -19.88409,16.20561 -27.36105,26.39013 l 11.85579,13.01891 c 6.84556,7.51715 16.3367,10.55475 25.81637,9.3365 2.88668,-3.05962 6.10298,-5.83356 9.66024,-8.2102 9.84727,-6.58279 20.8843,-9.37339 31.58018,-8.1238 -2.14153,5.12836 -5.20517,9.95327 -9.48766,14.6559 -11.30427,12.41329 -27.40122,18.82409 -42.28454,17.0327 0.0145,-0.0297 0.0324,-0.0597 0.047,-0.0895 -9.50028,-1.19478 -18.48179,-5.56372 -25.51087,-13.2824 l -48.75407,-53.16353 c 14.33298,-9.36576 26.99837,-22.70527 36.28789,-39.46213 13.12369,-23.675 17.70016,-51.84443 12.59932,-77.11785 C 247.73296,91.461451 236.85404,72.767231 221.52129,60.203991 213.22202,53.404723 137.62282,9.3251691 137.62282,9.3251691 116.98734,-2.9306579 92.370979,-5.0859099 68.305989,3.2499591 44.239251,11.587723 23.65295,29.405015 10.343772,53.421525 -2.9687315,77.438201 -7.4433055,104.82739 -2.2522385,130.53921 c 3.451662,17.11094 10.899359,32.08688 21.5739625,43.80874 5.371027,5.89795 11.561199,10.97219 18.466919,15.07466 l 74.278707,44.124 c 12.8121,7.61077 26.92889,11.12239 41.15362,11.00493 2.19004,3.18644 4.57347,6.25356 7.20564,9.14398 0,0 58.54798,64.29188 58.55425,64.29876 16.23474,16.87818 38.27511,26.75757 61.90381,25.95632 9.62185,-0.33395 19.34432,-2.31491 28.7808,-5.9214 0.0721,-0.0275 0.14617,-0.0606 0.21831,-0.0881 18.62158,-7.15737 35.50829,-20.72611 47.92126,-38.06375 2.17719,-3.04193 4.16217,-6.09667 5.91386,-9.16742 l 38.66888,78.49385 c 5.83542,11.84062 6.86173,25.97184 2.89081,39.78904 -3.97091,13.8172 -12.45094,25.63375 -23.88627,33.27482 -23.63954,15.80269 -52.68845,8.73428 -64.74726,-15.75427 l -33.17862,-67.35249 c -19.0382,1.35864 -37.8765,-2.83522 -54.28734,-12.74699 1.61611,8.52265 4.28191,16.83314 8.15352,24.69111 l 40.1819,81.56594 c 3.73591,7.58321 8.35526,14.37894 13.72788,20.27863 10.67304,11.72013 24.31604,19.89641 39.89479,23.69053 23.41642,5.69842 48.35845,0.7885 70.22946,-13.83004 45.22112,-30.22052 63.23373,-92.91897 40.15969,-139.75886 z M 180.95464,189.699 c -1.57067,-15.69351 3.42748,-32.66787 14.80468,-45.62632 0.43089,-4.05603 0.32719,-8.13482 -0.47661,-12.11315 -1.26478,-6.27642 -3.84475,-12.08702 -7.97198,-16.22267 -5.45513,-5.468 -14.89681,-10.36513 -14.89681,-10.36513 -1.80596,1.74542 -3.6104,3.56497 -5.40361,5.53409 -20.59312,22.61346 -30.78339,52.01064 -30.24989,80.12224 -0.28749,-0.16317 -0.58689,-0.28226 -0.87246,-0.45098 L 61.607679,146.45135 C 50.824736,140.04708 43.391778,129.11324 40.677566,115.66764 37.96494,102.22374 40.302665,87.905551 47.260918,75.351971 61.650189,49.391508 91.500099,39.047435 113.80047,52.296553 c 11.55765,6.866128 51.99643,31.161628 60.85177,36.158298 9.1268,5.1499 18.51366,10.41383 25.43002,18.790279 4.50311,5.45577 7.44319,12.60727 8.92859,19.96087 2.66156,13.19336 0.2669,27.95993 -6.58162,40.31376 -5.3957,9.72497 -12.95476,17.25736 -21.47459,22.17924 z"
         id="path4181"
         style="fill:#ffffff;fill-opacity:1;stroke:#dee2e6;stroke-width:3.54285712;stroke-dasharray:none;stroke-opacity:1" />
    </g>
  </g>
</svg>
