<?xml version="1.0" encoding="UTF-8" standalone="no"?>
<!-- Created with Inkscape (http://www.inkscape.org/) -->

<svg
   width="150"
   height="150"
   viewBox="0 0 39.687499 39.687501"
   version="1.1"
   id="svg160"
   inkscape:version="1.3 (0e150ed6c4, 2023-07-21)"
   sodipodi:docname="uixSvgIcon_run_n_gun.svg"
   xml:space="preserve"
   xmlns:inkscape="http://www.inkscape.org/namespaces/inkscape"
   xmlns:sodipodi="http://sodipodi.sourceforge.net/DTD/sodipodi-0.dtd"
   xmlns="http://www.w3.org/2000/svg"
   xmlns:svg="http://www.w3.org/2000/svg"><sodipodi:namedview
     id="namedview162"
     pagecolor="#505050"
     bordercolor="#ffffff"
     borderopacity="1"
     inkscape:pageshadow="0"
     inkscape:pageopacity="0"
     inkscape:pagecheckerboard="1"
     inkscape:document-units="px"
     showgrid="false"
     units="px"
     inkscape:zoom="5.6568542"
     inkscape:cx="90.863222"
     inkscape:cy="31.377864"
     inkscape:window-width="1600"
     inkscape:window-height="871"
     inkscape:window-x="-9"
     inkscape:window-y="-9"
     inkscape:window-maximized="1"
     inkscape:current-layer="g17"
     inkscape:showpageshadow="0"
     inkscape:deskcolor="#505050" /><defs
     id="defs157"><filter
       style="color-interpolation-filters:sRGB;"
       inkscape:label="Invert"
       id="filter2414"
       x="-0.0009765625"
       y="-0.0009765625"
       width="1.0019531"
       height="1.0019531"><feColorMatrix
         type="hueRotate"
         values="180"
         result="color1"
         id="feColorMatrix2410" /><feColorMatrix
         values="-1 0 0 0 1 0 -1 0 0 1 0 0 -1 0 1 -0.21 -0.72 -0.07 2 0 "
         result="color2"
         id="feColorMatrix2412" /></filter><filter
       style="color-interpolation-filters:sRGB;"
       inkscape:label="Invert"
       id="filter1101"
       x="-0.00094061993"
       y="-0.00073792623"
       width="1.0018813"
       height="1.0014762"><feColorMatrix
         values="-1 0 0 0 1 0 -1 0 0 1 0 0 -1 0 1 -0.21 -0.72 -0.07 2 0 "
         result="fbSourceGraphic"
         id="feColorMatrix1099" /><feColorMatrix
         result="fbSourceGraphicAlpha"
         in="fbSourceGraphic"
         values="0 0 0 -1 0 0 0 0 -1 0 0 0 0 -1 0 0 0 0 1 0"
         id="feColorMatrix858" /><feColorMatrix
         id="feColorMatrix860"
         values="-1 0 0 0 1 0 -1 0 0 1 0 0 -1 0 1 -0.21 -0.72 -0.07 2 0 "
         result="color2"
         in="fbSourceGraphic" /></filter></defs><g
     inkscape:label="Layer 1"
     inkscape:groupmode="layer"
     id="layer1"><g
       id="g1097"
       transform="matrix(0.09116527,0,0,0.09158063,-2.3493105,-3.1152374)"
       style="fill:#ffffff;fill-opacity:1;stroke:#000000;stroke-width:3.54286;stroke-miterlimit:4;stroke-dasharray:none;stroke-opacity:1;filter:url(#filter1101)"><g
         style="fill:#ffffff;fill-opacity:1;stroke:#000000;stroke-width:0.64;stroke-dasharray:none;stroke-opacity:1"
         id="g17"
         transform="matrix(0.82089989,0,0,0.96555186,32.040058,1.0389804)"><g
           id="g4"
           style="fill:#ffffff;fill-opacity:1;stroke:#808080;stroke-width:3.25246819;stroke-dasharray:none;stroke-opacity:1"
           transform="translate(118.74668,3.1736535)">&#10;	&#10;</g><g
           id="g6"
           style="fill:#ffffff;fill-opacity:1;stroke:#808080;stroke-width:3.25246819;stroke-dasharray:none;stroke-opacity:1"
           transform="translate(118.74668,3.1736535)">&#10;	<g
   id="g5"
   style="fill:#ffffff;fill-opacity:1;stroke:#808080;stroke-width:3.25246819;stroke-dasharray:none;stroke-opacity:1">&#10;		<path
   d="m 207.897,450.408 -13.363,-91.3 c -0.669,-4.571 -2.59,-7.229 -4.017,-9.47 l -13.26,20.342 c -4.16,6.382 -11.09,10.605 -18.646,11.42 l 10.921,74.624 c 1.549,10.587 11.382,17.923 21.99,16.375 10.594,-1.551 17.924,-11.397 16.375,-21.991 z"
   id="path4"
   style="fill:#ffffff;fill-opacity:1;stroke:#808080;stroke-width:3.25246819;stroke-dasharray:none;stroke-opacity:1" />&#10;	</g>&#10;</g><g
           id="g8"
           style="fill:#ffffff;fill-opacity:1;stroke:#808080;stroke-width:3.25246819;stroke-dasharray:none;stroke-opacity:1"
           transform="translate(118.74668,3.1736535)">&#10;	<g
   id="g7"
   style="fill:#ffffff;fill-opacity:1;stroke:#808080;stroke-width:3.25246819;stroke-dasharray:none;stroke-opacity:1">&#10;		<path
   d="m 243.388,89.503 -12.602,-11.66 h -74.138 l 0.288,17.131 c -2.697,16.813 6.639,33.782 23.177,40.097 18.954,7.237 40.186,-2.261 47.423,-21.214 2.383,-6.242 2.94,-12.728 1.951,-18.882 h 11.759 c 2.862,-10e-4 4.246,-3.525 2.142,-5.472 z"
   id="path6"
   style="fill:#ffffff;fill-opacity:1;stroke:#808080;stroke-width:3.25246819;stroke-dasharray:none;stroke-opacity:1" />&#10;	</g>&#10;</g><g
           id="g10"
           style="fill:#ffffff;fill-opacity:1;stroke:#808080;stroke-width:3.25246819;stroke-dasharray:none;stroke-opacity:1"
           transform="translate(118.74668,3.1736535)">&#10;	<g
   id="g9"
   style="fill:#ffffff;fill-opacity:1;stroke:#808080;stroke-width:3.25246819;stroke-dasharray:none;stroke-opacity:1">&#10;		<path
   d="m 336.076,139.639 c -2.856,-3.182 -7.752,-3.447 -10.934,-0.59 l -8.652,7.766 -4.526,-5.042 c -2.856,-3.18 -7.748,-3.448 -10.934,-0.59 -3.182,2.857 -3.446,7.752 -0.59,10.934 l 4.525,5.042 -74.343,66.731 13.306,3.42 c 6.808,1.75 12.555,5.542 16.774,10.546 l 25.386,-22.785 c 3.182,-2.857 3.447,-7.752 0.59,-10.934 -2.23,-2.484 -5.697,-3.179 -8.621,-2.015 l 57.429,-51.549 c 3.182,-2.856 3.446,-7.751 0.59,-10.934 z"
   id="path8"
   style="fill:#ffffff;fill-opacity:1;stroke:#808080;stroke-width:3.25246819;stroke-dasharray:none;stroke-opacity:1" />&#10;	</g>&#10;</g><g
           id="g12"
           style="fill:#ffffff;fill-opacity:1;stroke:#808080;stroke-width:3.25246819;stroke-dasharray:none;stroke-opacity:1"
           transform="translate(118.74668,3.1736535)">&#10;	<g
   id="g11"
   style="fill:#ffffff;fill-opacity:1;stroke:#808080;stroke-width:3.25246819;stroke-dasharray:none;stroke-opacity:1">&#10;		<path
   d="m 189.718,280.739 -56.265,50.316 c -4.21,3.778 -4.559,10.255 -0.78,14.464 l 15.598,17.376 c 4.509,5.024 12.537,4.376 16.203,-1.248 l 48.798,-74.855 z"
   id="path10"
   style="fill:#ffffff;fill-opacity:1;stroke:#808080;stroke-width:3.25246819;stroke-dasharray:none;stroke-opacity:1" />&#10;	</g>&#10;</g><g
           id="g14"
           style="fill:#ffffff;fill-opacity:1;stroke:#808080;stroke-width:3.25246819;stroke-dasharray:none;stroke-opacity:1"
           transform="translate(118.74668,3.1736535)">&#10;	<g
   id="g13"
   style="fill:#ffffff;fill-opacity:1;stroke:#808080;stroke-width:3.25246819;stroke-dasharray:none;stroke-opacity:1">&#10;		<path
   d="m 239.952,242.785 c -29.482,-7.577 -18.463,-4.745 -55.758,-14.332 l -20.808,-59.782 30.144,45.011 10.906,-28.564 c 4.888,-12.804 -1.528,-27.147 -14.332,-32.035 l -42.987,-16.412 c -4.517,-1.724 -9.398,-2.27 -14.184,-1.586 l -69.283,9.907 c -10.506,1.496 -16.94,12.321 -13.264,22.253 24.17,65.367 29.849,79.954 29.849,79.954 l -7.078,18.539 c -1.248,3.268 -2.053,6.665 -2.416,10.145 -0.896,8.582 -2.989,29.296 -7.218,74.145 L 5.477,409.813 c -7.458,7.682 -7.277,19.955 0.405,27.413 7.685,7.461 19.96,7.274 27.414,-0.405 L 96.12,372.113 c 3.091,-3.184 4.997,-7.334 5.399,-11.754 l 6.213,-68.549 16.948,26.619 c 5.602,-5.01 41.6,-37.2 47.257,-42.26 -2.809,-0.721 -0.45,-0.116 -8.651,-2.223 -14.929,-3.837 -22.697,-16.881 -23.489,-24.46 l -7.086,-67.678 22.976,66.014 c 1.871,5.372 6.323,9.298 11.576,10.649 0.001,0 64.405,16.554 64.405,16.554 8.959,2.3 17.985,-3.133 20.259,-11.978 2.291,-8.901 -3.072,-17.974 -11.975,-20.262 z M 98.126,200.346 88.763,175.04 l 20.12,-2.864 z"
   id="path12"
   style="fill:#ffffff;fill-opacity:1;stroke:#808080;stroke-width:3.25246819;stroke-dasharray:none;stroke-opacity:1" />&#10;	</g>&#10;</g><g
           id="g16"
           style="fill:#ffffff;fill-opacity:1;stroke:#808080;stroke-width:3.25246819;stroke-dasharray:none;stroke-opacity:1"
           transform="translate(118.74668,3.1736535)">&#10;	<g
   id="g15"
   style="fill:#ffffff;fill-opacity:1;stroke:#808080;stroke-width:3.25246819;stroke-dasharray:none;stroke-opacity:1">&#10;		<path
   d="m 224.28,39.493 -62.334,10.968 c -3.064,0.539 -5.3,3.202 -5.3,6.315 v 10.692 h 75.155 V 45.806 c 0.001,-3.986 -3.601,-7.003 -7.521,-6.313 z"
   id="path14"
   style="fill:#ffffff;fill-opacity:1;stroke:#808080;stroke-width:3.25246819;stroke-dasharray:none;stroke-opacity:1" />&#10;	</g>&#10;</g></g></g></g><style
     type="text/css"
     id="style3563">.st0{fill-rule:evenodd;clip-rule:evenodd;}</style></svg>
