<?xml version="1.0" encoding="UTF-8" standalone="no"?>
<!-- Created with Inkscape (http://www.inkscape.org/) -->

<svg
   width="150"
   height="150"
   viewBox="0 0 39.687499 39.687501"
   version="1.1"
   id="svg160"
   inkscape:version="1.1.2 (b8e25be833, 2022-02-05)"
   sodipodi:docname="uixSvgIcon_ability_CIFS.svg"
   xmlns:inkscape="http://www.inkscape.org/namespaces/inkscape"
   xmlns:sodipodi="http://sodipodi.sourceforge.net/DTD/sodipodi-0.dtd"
   xmlns="http://www.w3.org/2000/svg"
   xmlns:svg="http://www.w3.org/2000/svg">
  <sodipodi:namedview
     id="namedview162"
     pagecolor="#505050"
     bordercolor="#ffffff"
     borderopacity="1"
     inkscape:pageshadow="0"
     inkscape:pageopacity="0"
     inkscape:pagecheckerboard="1"
     inkscape:document-units="mm"
     showgrid="false"
     units="px"
     inkscape:zoom="4"
     inkscape:cx="58.5"
     inkscape:cy="39.375"
     inkscape:window-width="1920"
     inkscape:window-height="991"
     inkscape:window-x="-9"
     inkscape:window-y="-9"
     inkscape:window-maximized="1"
     inkscape:current-layer="layer1" />
  <defs
     id="defs157">
    <filter
       style="color-interpolation-filters:sRGB;"
       inkscape:label="Invert"
       id="filter1388"
       x="0"
       y="0"
       width="1"
       height="1">
      <feColorMatrix
         type="hueRotate"
         values="180"
         result="color1"
         id="feColorMatrix1384" />
      <feColorMatrix
         values="-1 0 0 0 1 0 -1 0 0 1 0 0 -1 0 1 -0.21 -0.72 -0.07 2 0 "
         result="color2"
         id="feColorMatrix1386" />
    </filter>
  </defs>
  <g
     inkscape:label="Layer 1"
     inkscape:groupmode="layer"
     id="layer1">
    <path
       fill="#000000"
       d="m 46.740782,20.455087 c 0.02646,-0.828146 0,-1.648354 -0.05292,-2.442104 l 14.366875,17.443979 c 1.084791,1.402292 1.74625,2.831042 2.06375,4.445 0.343958,1.905 0.132291,3.889375 -0.608542,5.688542 -0.502708,1.217083 -1.27,2.328333 -2.196042,3.280833 -3.095625,2.434167 -5.476875,3.33375 -8.995833,2.725209 l -22.119167,-4.524375 0.132292,-0.07937 c 3.33375,-1.534584 6.323542,-3.65125 8.863542,-6.297084 2.566458,-2.672291 4.656666,-5.767916 6.111875,-9.181041 1.508125,-3.4925 2.354791,-7.249584 2.434166,-11.059584 z m 13.837709,6.693959 4.259791,5.185833 c 1.5875,1.931458 2.645834,4.206875 3.095625,6.6675 1.243542,6.932083 -2.460625,13.81125 -8.969375,16.562917 -1.42875,0.582083 -2.910416,0.9525 -4.445,1.084791 -1.42875,0.105834 -2.831041,0.07937 -4.206875,-0.238125 l -14.737291,-3.042708 -0.343959,6.19125 33.893125,-0.105833 0.343959,-32.967084 z m 20.79625,12.488333 c -1.296459,0.07937 -2.566459,1.375833 -3.148542,2.301875 -0.582083,1.11125 -0.740833,2.487083 0.05292,3.4925 0.846666,0.899583 2.06375,0.9525 3.122083,0.370417 0.820208,-0.449792 1.402292,-1.164167 1.799167,-1.905 0.899583,-1.905 0.132291,-4.339167 -1.825625,-4.259792 z m 3.069166,10.95375 c -0.15875,-0.105833 -0.3175,-0.185208 -0.47625,-0.238125 -1.640416,-0.555625 -3.413125,0.926042 -4.021666,2.143125 -0.47625,1.137708 -0.502709,2.513542 0.370416,3.413125 0.211667,0.211667 0.449792,0.370417 0.714375,0.502708 1.217084,0.582084 2.69875,-0.07938 3.4925,-0.9525 0.529167,-0.714375 0.926042,-1.5875 0.978959,-2.354791 0.05292,-0.978959 -0.449792,-2.037292 -1.058334,-2.513542 z m 5.318125,-0.529167 c 1.402292,-0.978958 1.693334,-3.227916 0.9525,-4.312708 -1.190625,-0.978958 -2.645833,-1.878542 -3.757083,-2.672292 v 0.02646 c -0.291042,1.561041 -0.9525,2.963333 -1.931458,4.048125 1.719791,0.79375 3.307291,1.984375 4.736041,2.910415 z m -5.027083,9.710209 c -1.27,0.105833 -2.38125,1.243541 -2.831042,2.2225 -0.423333,1.164166 -0.238125,2.513541 0.687917,3.360208 1.296458,1.137708 3.175,0.767292 4.233333,-0.47625 0.264584,-0.3175 0.47625,-0.661458 0.608542,-1.058333 0.582083,-1.905 -0.370417,-4.206875 -2.69875,-4.048125 z m 8.122708,0.3175 c 0.05292,-0.07937 0.132292,-0.132292 0.185209,-0.211667 0.793748,-0.9525 0.873128,-2.169583 0.396878,-3.227917 -0.21167,-0.370416 -0.502712,-0.635 -0.820212,-0.873125 -1.27,-0.767291 -2.513541,-1.534583 -3.730625,-2.301875 -0.15875,1.322917 -0.555625,2.513542 -1.27,3.518959 1.74625,1.058333 3.704167,2.2225 5.23875,3.095625 z M 79.496199,59.428212 c -0.582083,-0.291041 -1.137708,-0.687916 -1.5875,-1.164166 -0.608542,-0.635 -1.058333,-1.375834 -1.349375,-2.196042 -0.291042,-0.820208 -0.396875,-1.693333 -0.3175,-2.566458 0.07937,-0.846667 0.291042,-1.640417 0.635,-2.407709 0.291042,-0.635 0.687917,-1.243541 1.164167,-1.772708 l -0.740834,-0.396875 c -0.608541,-0.3175 -1.137708,-0.767292 -1.5875,-1.296458 -0.555625,-0.687917 -0.9525,-1.481667 -1.164166,-2.354792 -0.185209,-0.846667 -0.211667,-1.719792 -0.05292,-2.566458 0.132292,-0.820209 0.396875,-1.5875 0.79375,-2.328334 0.370417,-0.687916 0.820208,-1.322916 1.375833,-1.878541 0.555625,-0.555625 1.190625,-1.031875 1.878542,-1.402292 0.740833,-0.396875 1.534583,-0.661458 2.38125,-0.767292 h 0.15875 C 78.649532,32.652379 76.770991,29.768421 74.389741,26.117171 l -0.370417,33.3375 c 1.640417,0.105833 3.095625,0.899583 4.683125,1.534583 0.211667,-0.555625 0.502708,-1.137708 0.79375,-1.561042 z m 8.255,10.186459 c -1.5875,-0.502709 -3.386667,0.820208 -3.81,2.090208 -0.264583,0.79375 -0.185208,1.666875 0.15875,2.38125 0.767292,1.931458 3.704167,2.169583 5.027083,0.449792 0.238125,-0.3175 0.502709,-0.661459 0.555625,-1.058334 0.264584,-1.825625 -0.264583,-3.254375 -1.931458,-3.862916 z m 7.434795,0.132291 c 1.48166,-0.926041 1.34937,-3.175 0.37041,-4.180416 -0.15875,-0.132292 -0.3175,-0.264584 -0.50271,-0.370417 l -4.04812,-2.301875 c -0.05292,1.402292 -0.502708,2.751667 -1.349375,3.862917 1.931458,1.005416 3.889375,2.116666 5.529795,2.989791 z m -2.513545,9.260417 c -0.79375,-0.582083 -1.772708,-1.031875 -2.619375,-1.005417 -0.79375,0.105834 -1.508125,0.502709 -2.010833,1.137709 -0.502709,0.635 -0.740834,1.455208 -0.635,2.248958 0.105833,0.608542 0.291041,1.005417 0.635,1.481667 1.243541,1.534583 3.598333,1.719791 4.841875,0.07937 0.926038,-1.243542 0.687918,-2.831042 -0.211667,-3.942292 z m 4.947705,0.423333 0.0529,-0.05292 c 0.58208,-0.3175 1.03187,-0.873125 1.19062,-1.534584 0.34396,-1.296458 -0.31749,-2.407708 -1.37583,-3.069166 -1.45521,-0.767292 -2.88396,-1.508125 -4.312707,-2.275417 0,1.455208 -0.47625,2.8575 -1.349375,4.021667 2.116662,0.926041 3.836462,1.878541 5.794372,2.910416 z m -2.72521,7.567084 c -0.79375,-0.211667 -1.66687,-0.15875 -2.354787,0.264583 -0.661458,0.370417 -1.164166,1.031875 -1.349375,1.772708 -0.105833,1.058334 0.05292,1.984375 0.661459,2.69875 1.349375,1.957917 4.762503,1.561037 5.318123,-0.978958 0.37042,-1.534583 -0.66146,-3.386667 -2.27542,-3.757083 z m 7.672916,-0.02646 c 0.13229,-0.238125 0.23813,-0.47625 0.29104,-0.740833 0.21167,-1.27 -0.37041,-2.487083 -1.50812,-3.042708 l -4.497916,-2.275417 c 0.0529,1.031875 -0.15875,2.037292 -0.60854,2.963333 2.14313,0.926042 4.497916,2.196042 6.323536,3.095625 z m -2.778116,8.757708 c -0.84667,1.905 -0.84667,1.905 0,0 -0.9525,-0.37041 -2.19605,-0.23812 -2.93688,0.18521 -1.42875,0.9525 -1.5875,3.25437 -0.42333,4.471456 1.29646,1.56104 4.868326,1.37583 5.318116,-1.190626 0.23813,-1.40229 -0.58208,-2.88396 -1.957906,-3.46604 z m 7.037906,-0.635 v -0.0529 c 0.15875,-0.84667 -0.10583,-1.56105 -0.55562,-2.222506 -0.29104,-0.343958 -0.66146,-0.582083 -1.03188,-0.79375 -1.53458,-0.767292 -3.06916,-1.508125 -4.60375,-2.248958 0.0529,0.873125 -0.0794,1.719791 -0.39687,2.54 2.11667,0.740833 4.39208,1.825624 6.58812,2.778124 z m -1.42875,8.942916 c -1.08479,-0.52917 -2.56645,-0.26458 -3.3602,0.34396 -0.4498,0.37041 -0.7673,0.89958 -0.89959,1.48166 -0.15875,1.00542 0.13229,1.93146 0.74084,2.69875 0.39687,0.4498 0.89958,0.79375 1.4552,0.97896 0.87313,0.3175 1.82563,0.21167 2.59292,-0.21166 0.66146,-0.39688 1.13771,-1.03188 1.29646,-1.79917 0.29104,-1.45521 -0.71438,-2.8575 -1.82563,-3.4925 z m 6.19125,-0.76729 c 0.0265,-0.0794 0.0265,-0.15875 0.0529,-0.23813 0.15875,-1.37583 -0.635,-2.35479 -1.74625,-2.96333 l -4.78896,-2.037286 c 0.10583,0.79375 0.0265,1.5875 -0.18521,2.354786 2.40771,0.84667 4.73604,1.93146 6.6675,2.88396 z m 2.2225,16.45708 c 1.61396,0.635 3.20146,1.27 4.81542,1.905 1.5875,0.34396 3.06917,-0.15875 3.43958,-1.64042 0.0794,-1.40229 -0.50271,-2.43416 -1.53458,-3.0427 -1.53458,-0.74084 -3.06917,-1.48167 -4.63021,-2.24896 0.10583,1.87854 -0.87312,3.96875 -2.09021,5.02708 z m -1.56104,-6.0325 c -1.03187,-1.66687 -2.8575,-2.38125 -4.52437,-1.48167 -0.66146,0.37042 -1.13771,1.03188 -1.29646,1.77271 -0.26459,1.24354 0.29104,2.46063 1.27,3.20146 1.03187,0.74083 2.32833,0.89958 3.46604,0.26458 1.40229,-0.87312 1.64042,-2.40771 1.08479,-3.75708 z m 4.73604,-2.2225 c 0.0794,-1.19062 -0.74083,-2.14312 -1.66687,-2.67229 l -4.68313,-2.24896 c 0.0265,0.71438 -0.0265,1.40229 -0.18521,2.01083 2.32834,0.97896 4.36563,1.85209 6.53521,2.91042 z M 68.701199,70.249671 c -1.243542,0.02646 -4.60375,0.978958 -4.815417,2.513541 l 21.722292,43.682708 c 1.613958,-0.79375 3.4925,-1.64042 4.841875,-2.51355 C 86.031407,105.12175 73.119741,79.060296 68.701199,70.249671 Z M 52.561616,70.064462 26.738282,113.218 c 1.508125,0.89958 3.360209,1.93146 4.7625,2.72521 5.159375,-8.75771 20.611042,-34.448748 25.796875,-43.179998 -0.238125,-0.926041 -3.254375,-3.33375 -4.736041,-2.69875 z m 7.540625,7.567084 6.006041,20.716878 c 1.508125,-0.37042 3.042709,-0.87313 4.392084,-1.24355 L 60.499116,76.970087 Z m -7.752292,-12.54125 c 0.79375,-0.07937 1.693333,0.05292 2.354792,0.264583 1.878541,0.608542 3.677708,1.534583 5.132916,2.778125 0.211667,0.185208 0.423334,0.370417 0.635,0.582083 h 0.291042 c 1.931458,-1.561041 5.000625,-3.175 7.090833,-3.413125 1.508125,-0.05292 3.122084,0.47625 4.074584,1.296459 0.714375,0.555625 1.058333,1.349375 1.481666,2.169583 3.889375,0 7.77875,0.05292 11.668125,0.07937 -3.704166,-1.508125 -7.408333,-3.01625 -11.138958,-4.497917 -13.0175,0 -26.008542,0.05292 -39.026042,0.105834 l 12.805834,2.407713 0.926041,0.15875 c 0.899584,-1.137708 2.248959,-1.852083 3.704167,-1.931458 z M 17.176241,8.0646501 c -0.55298,-0.3175 -1.190625,-0.455084 -1.825625,-0.396875 -0.243417,0.02646 -0.481542,0.07937 -0.714375,0.15875 a 3.8062958,3.8062958 0 0 0 -2.169584,1.772708 c -0.497416,0.8466669 -0.648229,1.8494379 -0.423333,2.8045829 0.394229,1.820334 2.283354,2.891896 4.048125,2.301875 1.915583,-0.629708 3.037417,-2.611437 2.592917,-4.577291 -0.1905,-0.8678339 -0.738188,-1.6166039 -1.508125,-2.0637499 z m 24.66975,12.2581459 c -0.07937,3.175 -0.767292,6.323541 -2.037292,9.233958 -1.243542,2.8575 -2.989792,5.476875 -5.159375,7.725833 a 24.180271,24.180271 0 0 1 -7.355417,5.265209 c -2.196041,1.005416 -4.577291,1.640416 -6.985,1.852083 -0.515937,0.05292 -1.042458,0.07937 -1.571625,0.07937 A 18.372667,18.372667 0 0 1 10.693949,42.706546 17.596379,17.596379 0 0 1 4.6349904,37.970504 C 2.9945734,35.959671 1.7695524,33.657796 1.0366564,31.170712 A 22.336125,22.336125 0 0 1 0.21644837,22.942171 c 0.230187,-2.8575 0.94720803,-5.630334 2.11666703,-8.236479 a 26.055637,26.055637 0 0 1 4.550833,-6.9056249 24.659167,24.659167 0 0 1 6.4293756,-5.027084 21.693187,21.693187 0 0 1 7.815792,-2.513542 l 0.582083,-0.05292 c 2.487083,-0.22225 5.000625,0.05556 7.381875,0.820209 2.487083,0.801687 4.736042,2.137833 6.641042,3.915834 1.984375,1.852083 3.518958,4.106333 4.550833,6.6145829 1.11125,2.783417 1.666875,5.770562 1.561042,8.765646 z M 22.743074,8.0381911 20.150157,5.7363161 c -0.105833,-0.08731 -0.15875,-0.148166 -0.264583,-0.238125 -1.762125,-1.455208 -4.156604,-1.905 -6.334125,-1.190624 a 7.4705104,7.4705104 0 0 0 -4.2862506,3.466041 7.4699812,7.4699812 0 0 0 -0.79375,5.4768749 6.7825937,6.7825937 0 0 0 4.2597926,4.841875 l 3.757083,1.455208 c 0.06085,0.02911 0.121708,0.05556 0.185208,0.07937 0.8255,0.272521 1.698625,0.378355 2.566459,0.29898 2.180166,-0.211667 4.111625,-1.476375 5.169958,-3.394605 1.666875,-2.910416 0.926042,-6.6145829 -1.666875,-8.4931249 z"
       id="path1375"
       style="stroke-width:0.264583;filter:url(#filter1388)"
       transform="matrix(0.3221196,0,0,0.3221196,0.08967793,0.18322225)" />
  </g>
</svg>
