<?xml version="1.0" encoding="UTF-8" standalone="no"?>
<!-- Created with Inkscape (http://www.inkscape.org/) -->

<svg
   width="150"
   height="150"
   viewBox="0 0 39.687499 39.687501"
   version="1.1"
   id="svg160"
   inkscape:version="1.3 (0e150ed6c4, 2023-07-21)"
   sodipodi:docname="uixSvgIcon_ability_maxarmor.svg"
   xmlns:inkscape="http://www.inkscape.org/namespaces/inkscape"
   xmlns:sodipodi="http://sodipodi.sourceforge.net/DTD/sodipodi-0.dtd"
   xmlns="http://www.w3.org/2000/svg"
   xmlns:svg="http://www.w3.org/2000/svg">
  <sodipodi:namedview
     id="namedview162"
     pagecolor="#505050"
     bordercolor="#ffffff"
     borderopacity="1"
     inkscape:pageshadow="0"
     inkscape:pageopacity="0"
     inkscape:pagecheckerboard="1"
     inkscape:document-units="px"
     showgrid="false"
     units="px"
     inkscape:zoom="2.8284271"
     inkscape:cx="57.982757"
     inkscape:cy="41.896077"
     inkscape:window-width="1600"
     inkscape:window-height="871"
     inkscape:window-x="-9"
     inkscape:window-y="-9"
     inkscape:window-maximized="1"
     inkscape:current-layer="layer1"
     inkscape:showpageshadow="0"
     inkscape:deskcolor="#d1d1d1" />
  <defs
     id="defs157">
    <filter
       style="color-interpolation-filters:sRGB;"
       inkscape:label="Invert"
       id="filter2414"
       x="-0.0009765625"
       y="-0.0009765625"
       width="1.0019531"
       height="1.0019531">
      <feColorMatrix
         type="hueRotate"
         values="180"
         result="color1"
         id="feColorMatrix2410" />
      <feColorMatrix
         values="-1 0 0 0 1 0 -1 0 0 1 0 0 -1 0 1 -0.21 -0.72 -0.07 2 0 "
         result="color2"
         id="feColorMatrix2412" />
    </filter>
    <filter
       style="color-interpolation-filters:sRGB;"
       inkscape:label="Invert"
       id="filter1101"
       x="-0.0035714315"
       y="-0.0035714315"
       width="1.0071429"
       height="1.0071429">
      <feColorMatrix
         values="-1 0 0 0 1 0 -1 0 0 1 0 0 -1 0 1 -0.21 -0.72 -0.07 2 0 "
         result="color2"
         id="feColorMatrix1099" />
    </filter>
  </defs>
  <g
     inkscape:label="Layer 1"
     inkscape:groupmode="layer"
     id="layer1">
    <path
       fill="#000000"
       d="M 16.139584,3.96875 14.904861,9.0651217 7.2983548,10.186483 19.84375,13.422679 32.389147,10.186483 24.78264,9.0651217 23.547917,3.96875 21.443642,5.4164382 20.517446,9.2389553 H 19.170055 L 18.243859,5.4163584 Z m -10.6974032,7.216144 -4.1192641,4.250772 3.7041661,5.096373 1.988675,-2.052087 2.0541921,-6.359078 z m 28.8031382,0 -3.627767,0.935901 2.054269,6.359078 1.988596,2.052086 3.704166,-5.096373 z m -23.823734,1.284604 -1.5528951,4.807233 1.06572,4.399284 9.2148091,5.282549 V 14.72106 Z m 18.844331,0 -8.727634,2.251562 v 12.237504 l 9.214732,-5.282549 1.065721,-4.399284 z m -18.065221,11.57195 v 4.484329 l 7.948524,2.438852 v -2.366546 z m 17.286111,0 -7.948524,4.556714 v 2.366467 l 7.948524,-2.438852 z M 11.200695,30.05676 v 4.49022 l 7.948524,1.171689 v -3.223217 z m 17.286111,0 -7.948524,2.438692 v 3.223298 l 7.948524,-1.171688 z"
       id="path1274"
       style="stroke-width:0.26458333;stroke-miterlimit:4;stroke-dasharray:none;fill:#ffffff;fill-opacity:1;stroke:#808080;stroke-opacity:1" />
  </g>
</svg>
