<?xml version="1.0" encoding="UTF-8" standalone="no"?>
<!-- Created with Inkscape (http://www.inkscape.org/) -->

<svg
   width="150"
   height="150"
   viewBox="0 0 39.687499 39.687501"
   version="1.1"
   id="svg160"
   inkscape:version="1.3 (0e150ed6c4, 2023-07-21)"
   sodipodi:docname="uixSvgIcon_ability_brawler.svg"
   xmlns:inkscape="http://www.inkscape.org/namespaces/inkscape"
   xmlns:sodipodi="http://sodipodi.sourceforge.net/DTD/sodipodi-0.dtd"
   xmlns="http://www.w3.org/2000/svg"
   xmlns:svg="http://www.w3.org/2000/svg">
  <sodipodi:namedview
     id="namedview162"
     pagecolor="#505050"
     bordercolor="#ffffff"
     borderopacity="1"
     inkscape:pageshadow="0"
     inkscape:pageopacity="0"
     inkscape:pagecheckerboard="1"
     inkscape:document-units="mm"
     showgrid="false"
     units="px"
     inkscape:zoom="3.7618081"
     inkscape:cx="73.103144"
     inkscape:cy="83.071755"
     inkscape:window-width="1600"
     inkscape:window-height="871"
     inkscape:window-x="-9"
     inkscape:window-y="-9"
     inkscape:window-maximized="1"
     inkscape:current-layer="layer1"
     inkscape:showpageshadow="0"
     inkscape:deskcolor="#d1d1d1" />
  <defs
     id="defs157">
    <filter
       style="color-interpolation-filters:sRGB;"
       inkscape:label="Invert"
       id="filter1635"
       x="-0.0045695792"
       y="-0.0034511225"
       width="1.0088261"
       height="1.0069023">
      <feColorMatrix
         type="hueRotate"
         values="180"
         result="color1"
         id="feColorMatrix1631" />
      <feColorMatrix
         values="-1 0 0 0 1 0 -1 0 0 1 0 0 -1 0 1 -0.21 -0.72 -0.07 2 0 "
         result="fbSourceGraphic"
         id="feColorMatrix1633" />
      <feColorMatrix
         result="fbSourceGraphicAlpha"
         in="fbSourceGraphic"
         values="0 0 0 -1 0 0 0 0 -1 0 0 0 0 -1 0 0 0 0 1 0"
         id="feColorMatrix1527" />
      <feColorMatrix
         id="feColorMatrix1529"
         values="-1 0 0 0 1 0 -1 0 0 1 0 0 -1 0 1 -0.21 -0.72 -0.07 2 0 "
         result="fbSourceGraphic"
         in="fbSourceGraphic" />
      <feColorMatrix
         result="fbSourceGraphicAlpha"
         in="fbSourceGraphic"
         values="0 0 0 -1 0 0 0 0 -1 0 0 0 0 -1 0 0 0 0 1 0"
         id="feColorMatrix1549" />
      <feColorMatrix
         id="feColorMatrix1551"
         values="-1 0 0 0 1 0 -1 0 0 1 0 0 -1 0 1 -0.21 -0.72 -0.07 2 0 "
         result="fbSourceGraphic"
         in="fbSourceGraphic" />
      <feColorMatrix
         result="fbSourceGraphicAlpha"
         in="fbSourceGraphic"
         values="0 0 0 -1 0 0 0 0 -1 0 0 0 0 -1 0 0 0 0 1 0"
         id="feColorMatrix829" />
      <feColorMatrix
         id="feColorMatrix831"
         values="-1 0 0 0 1 0 -1 0 0 1 0 0 -1 0 1 -0.21 -0.72 -0.07 2 0 "
         result="color2"
         in="fbSourceGraphic" />
    </filter>
  </defs>
  <g
     inkscape:label="Layer 1"
     inkscape:groupmode="layer"
     id="layer1">
    <path
       fill="#000000"
       d="m 17.173567,0.74681297 c -0.15086,0 -0.302866,0.00409 -0.455198,0.012838 -1.252183,0.071546 -2.51516,0.43377533 -3.229315,0.88823753 l -6.49e-4,5.9812724 c 0.235817,-0.00769 0.472369,-0.012019 0.709413,-0.011611 1.911881,0.00294 3.851563,0.2686869 5.598602,0.7778518 l 8.03e-4,-7.1552051 C 19.222082,0.95253947 18.2291,0.74713997 17.173567,0.74689487 Z m 6.601886,0.74898773 c -0.975074,0.012266 -1.886942,0.1932977 -2.450318,0.4575696 l -6.49e-4,6.3453004 v 0.626173 c 3.146893,1.2812933 5.299661,3.4734723 4.802598,6.4403153 l -0.0785,0.468526 -0.45479,0.136878 c -1.426838,0.429523 -2.851386,0.793388 -4.270293,1.090366 v 2.063314 c 2.090128,-0.05756 4.196861,-0.219708 6.307927,-0.498616 L 27.63307,2.4416024 C 26.955708,1.9867314 25.710884,1.6040607 24.457065,1.5153433 24.228771,1.4991526 24.000477,1.4930212 23.775453,1.4958829 Z m -13.47066,1.2556996 c -0.09616,-0.00124 -0.194116,-8.035e-4 -0.293381,0.00164 C 9.6700338,2.7613154 9.3136923,2.7914053 8.9563695,2.847334 7.675077,3.0479909 6.3825824,3.5476705 5.652483,4.106713 l -8.035e-4,5.965328 C 7.1895574,8.7793017 9.4705361,8.0161676 11.960021,7.7384045 l 5.87e-4,-4.7397192 C 11.566491,2.8554291 10.97793,2.760252 10.304822,2.7515031 Z m 21.12816,0.2829144 c -0.883411,0.00957 -1.694379,0.1578108 -2.21123,0.3806266 l -0.0016,14.9782847 c 2.050232,-0.328704 4.101445,-0.769593 6.142516,-1.337548 L 35.52532,4.1000052 C 34.8424,3.6175785 33.591688,3.1985216 32.33231,3.0735814 32.029935,3.0436538 31.727395,3.0313076 31.432869,3.0344966 Z M 13.21726,9.1017067 c -4.3925357,0.0574 -8.2917696,1.6651903 -8.0039487,5.4456983 1.2948655,-0.320365 2.5217012,-0.481855 3.6746191,-0.498781 2.8487706,-0.0417 5.2505186,0.79347 7.1397506,2.257839 2.829801,-0.254296 5.711605,-0.817672 8.619248,-1.66102 C 24.658376,11.26952 18.58814,9.0315507 13.21726,9.1016247 Z M 9.220723,15.5327 c -0.1059703,-2.46e-4 -0.2128403,9.89e-4 -0.3205276,0.0037 -1.4109753,0.03565 -2.9804153,0.329522 -4.7070122,0.902465 0.4734324,4.399731 2.1525222,8.700851 4.7833828,11.721005 0.5090828,0.584636 1.051199,1.121192 1.625124,1.603865 2.396025,0.758962 5.663198,1.056185 9.038059,0.992653 0.308834,-4.563021 -0.712765,-8.860052 -2.959402,-11.671455 -1.73878,-2.175826 -4.175361,-3.54788 -7.4597875,-3.552295 z m 10.574629,1.821937 c -0.765178,0.133853 -1.52823,0.24661 -2.289074,0.339334 0.125922,0.142275 0.248818,0.287821 0.368116,0.437128 0.25724,0.321917 0.49829,0.659207 0.725521,1.008517 0.810804,0.01177 1.624551,0.01022 2.441324,-0.0087 H 19.79527 v -1.77623 z m 15.684344,1.254555 c -5.348067,1.457582 -10.749283,2.077705 -16.014112,2.069937 1.38988,2.873627 1.94835,6.385448 1.718175,10.024661 3.473636,-0.170074 6.952668,-0.672944 9.663823,-1.306884 2.182615,-2.68033 3.873313,-6.305725 4.632114,-10.787714 z M 31.342438,30.84721 c -3.134465,0.747766 -7.191428,1.312854 -11.191726,1.427166 -3.897844,0.111202 -7.713593,-0.182177 -10.5846042,-1.247931 l -8.035e-4,6.453886 c 2.2230057,1.02765 6.2481607,1.652108 10.4104397,1.659711 4.188445,0.0077 8.52129,-0.586515 11.365646,-1.698551 l 9.27e-4,-6.594281 z"
       id="path1622"
       style="stroke-width:0.26499999;filter:url(#filter1635);stroke-miterlimit:4;stroke-dasharray:none;stroke:#808080;stroke-opacity:1;fill:#ffffff;fill-opacity:1" />
  </g>
</svg>
