<?xml version="1.0" encoding="UTF-8"?>
<svg xmlns="http://www.w3.org/2000/svg" xmlns:xlink="http://www.w3.org/1999/xlink" width="150pt" height="150pt" viewBox="0 0 150 150" version="1.1">
<g id="surface1">
<path style=" stroke:none;fill-rule:nonzero;fill:rgb(0%,0%,0%);fill-opacity:1;" d="M 44 26 L 45 27 L 44 26 M 68 28 L 69 29 L 68 28 M 69 33 L 70 34 L 69 33 M 99 36 L 100 37 L 99 36 M 111 36 L 112 37 L 111 36 M 91 37 L 92 38 L 91 37 M 81.332031 38.667969 C 81.277344 38.722656 81.222656 39.777344 81.667969 39.332031 C 81.722656 39.277344 81.777344 38.222656 81.332031 38.667969 M 61 43 L 62 44 L 61 43 M 33 46 L 34 47 L 33 46 M 89 46 L 90 47 L 89 46 M 59 47 L 60 48 L 59 47 M 70 49 L 71 50 L 70 49 M 66 52 L 67 53 L 66 52 M 80 52 L 81 53 L 80 52 M 98 58 L 99 59 L 98 58 M 106 58 L 107 59 L 106 58 M 77 63 L 74 67 L 75 68 C 76.847656 66.21875 77.566406 65.507813 77 63 M 97 63 L 98 64 L 97 63 M 93 64 L 94 65 L 93 64 M 101 64 L 102 65 L 101 64 M 84 70 L 85 71 L 84 70 M 89 77 L 90 78 L 89 77 M 108 87 L 109 88 L 108 87 M 24 89 L 25 90 L 24 89 M 61 89 L 62 90 L 61 89 M 92 91 L 93 92 L 92 91 M 40 94 L 41 95 L 40 94 M 61 94 L 62 95 L 61 94 M 73 94 L 74 95 L 73 94 M 58 96 L 59 97 L 58 96 M 60 99 C 62 98.101563 62 98.125 63 96 C 60.636719 96.480469 60.480469 96.636719 60 99 M 67 101 L 68 102 L 67 101 M 46 104 L 47 105 L 46 104 M 55 104 L 56 105 L 55 104 M 48 109 L 49 110 L 48 109 M 16 111 L 17 112 L 16 111 M 109 111 L 110 112 L 109 111 M 66 112 L 67 113 L 66 112 M 42 118 L 43 119 L 42 118 M 31.667969 119.332031 C 31.222656 119.777344 32.277344 119.722656 32.332031 119.667969 C 32.777344 119.222656 31.722656 119.277344 31.667969 119.332031 M 53 119 L 54 120 L 53 119 M 128 123 L 129 124 L 128 123 "/>
</g>
</svg>
