<?xml version="1.0" encoding="UTF-8" standalone="no"?>
<!-- Created with Inkscape (http://www.inkscape.org/) -->

<svg
   width="150"
   height="150"
   viewBox="0 0 39.687499 39.687501"
   version="1.1"
   id="svg160"
   inkscape:version="1.1.2 (b8e25be833, 2022-02-05)"
   sodipodi:docname="uixSvgIcon_ability_oneping.svg"
   xmlns:inkscape="http://www.inkscape.org/namespaces/inkscape"
   xmlns:sodipodi="http://sodipodi.sourceforge.net/DTD/sodipodi-0.dtd"
   xmlns="http://www.w3.org/2000/svg"
   xmlns:svg="http://www.w3.org/2000/svg">
  <sodipodi:namedview
     id="namedview162"
     pagecolor="#505050"
     bordercolor="#ffffff"
     borderopacity="1"
     inkscape:pageshadow="0"
     inkscape:pageopacity="0"
     inkscape:pagecheckerboard="1"
     inkscape:document-units="mm"
     showgrid="false"
     units="px"
     showguides="true"
     inkscape:guide-bbox="true"
     inkscape:zoom="2.8284271"
     inkscape:cx="-54.977552"
     inkscape:cy="59.220193"
     inkscape:window-width="1920"
     inkscape:window-height="991"
     inkscape:window-x="-9"
     inkscape:window-y="-9"
     inkscape:window-maximized="1"
     inkscape:current-layer="layer1">
    <sodipodi:guide
       position="0.13229167,39.767082"
       orientation="1,0"
       id="guide531" />
    <sodipodi:guide
       position="0.2490804,39.555209"
       orientation="0,-1"
       id="guide533" />
    <sodipodi:guide
       position="0.062011719,0.11885579"
       orientation="0,-1"
       id="guide535" />
    <sodipodi:guide
       position="39.487402,35.425386"
       orientation="1,0"
       id="guide537" />
  </sodipodi:namedview>
  <defs
     id="defs157">
    <filter
       style="color-interpolation-filters:sRGB;"
       inkscape:label="Invert"
       id="filter903"
       x="0"
       y="0"
       width="1"
       height="1">
      <feColorMatrix
         type="hueRotate"
         values="180"
         result="color1"
         id="feColorMatrix899" />
      <feColorMatrix
         values="-1 0 0 0 1 0 -1 0 0 1 0 0 -1 0 1 -0.21 -0.72 -0.07 2 0 "
         result="fbSourceGraphic"
         id="feColorMatrix901" />
      <feColorMatrix
         result="fbSourceGraphicAlpha"
         in="fbSourceGraphic"
         values="0 0 0 -1 0 0 0 0 -1 0 0 0 0 -1 0 0 0 0 1 0"
         id="feColorMatrix965" />
      <feColorMatrix
         id="feColorMatrix967"
         type="hueRotate"
         values="180"
         result="color1"
         in="fbSourceGraphic" />
      <feColorMatrix
         id="feColorMatrix969"
         values="-1 0 0 0 1 0 -1 0 0 1 0 0 -1 0 1 -0.21 -0.72 -0.07 2 0 "
         result="fbSourceGraphic" />
      <feColorMatrix
         result="fbSourceGraphicAlpha"
         in="fbSourceGraphic"
         values="0 0 0 -1 0 0 0 0 -1 0 0 0 0 -1 0 0 0 0 1 0"
         id="feColorMatrix1031" />
      <feColorMatrix
         id="feColorMatrix1033"
         type="hueRotate"
         values="180"
         result="color1"
         in="fbSourceGraphic" />
      <feColorMatrix
         id="feColorMatrix1035"
         values="-1 0 0 0 1 0 -1 0 0 1 0 0 -1 0 1 -0.21 -0.72 -0.07 2 0 "
         result="color2" />
    </filter>
    <filter
       style="color-interpolation-filters:sRGB;"
       inkscape:label="Invert"
       id="filter909"
       x="0"
       y="0"
       width="1"
       height="1">
      <feColorMatrix
         type="hueRotate"
         values="180"
         result="color1"
         id="feColorMatrix905" />
      <feColorMatrix
         values="-1 0 0 0 1 0 -1 0 0 1 0 0 -1 0 1 -0.21 -0.72 -0.07 2 0 "
         result="fbSourceGraphic"
         id="feColorMatrix907" />
      <feColorMatrix
         result="fbSourceGraphicAlpha"
         in="fbSourceGraphic"
         values="0 0 0 -1 0 0 0 0 -1 0 0 0 0 -1 0 0 0 0 1 0"
         id="feColorMatrix971" />
      <feColorMatrix
         id="feColorMatrix973"
         type="hueRotate"
         values="180"
         result="color1"
         in="fbSourceGraphic" />
      <feColorMatrix
         id="feColorMatrix975"
         values="-1 0 0 0 1 0 -1 0 0 1 0 0 -1 0 1 -0.21 -0.72 -0.07 2 0 "
         result="fbSourceGraphic" />
      <feColorMatrix
         result="fbSourceGraphicAlpha"
         in="fbSourceGraphic"
         values="0 0 0 -1 0 0 0 0 -1 0 0 0 0 -1 0 0 0 0 1 0"
         id="feColorMatrix1037" />
      <feColorMatrix
         id="feColorMatrix1039"
         type="hueRotate"
         values="180"
         result="color1"
         in="fbSourceGraphic" />
      <feColorMatrix
         id="feColorMatrix1041"
         values="-1 0 0 0 1 0 -1 0 0 1 0 0 -1 0 1 -0.21 -0.72 -0.07 2 0 "
         result="color2" />
    </filter>
    <filter
       style="color-interpolation-filters:sRGB;"
       inkscape:label="Invert"
       id="filter915"
       x="0"
       y="0"
       width="1"
       height="1">
      <feColorMatrix
         type="hueRotate"
         values="180"
         result="color1"
         id="feColorMatrix911" />
      <feColorMatrix
         values="-1 0 0 0 1 0 -1 0 0 1 0 0 -1 0 1 -0.21 -0.72 -0.07 2 0 "
         result="fbSourceGraphic"
         id="feColorMatrix913" />
      <feColorMatrix
         result="fbSourceGraphicAlpha"
         in="fbSourceGraphic"
         values="0 0 0 -1 0 0 0 0 -1 0 0 0 0 -1 0 0 0 0 1 0"
         id="feColorMatrix977" />
      <feColorMatrix
         id="feColorMatrix979"
         type="hueRotate"
         values="180"
         result="color1"
         in="fbSourceGraphic" />
      <feColorMatrix
         id="feColorMatrix981"
         values="-1 0 0 0 1 0 -1 0 0 1 0 0 -1 0 1 -0.21 -0.72 -0.07 2 0 "
         result="fbSourceGraphic" />
      <feColorMatrix
         result="fbSourceGraphicAlpha"
         in="fbSourceGraphic"
         values="0 0 0 -1 0 0 0 0 -1 0 0 0 0 -1 0 0 0 0 1 0"
         id="feColorMatrix1043" />
      <feColorMatrix
         id="feColorMatrix1045"
         type="hueRotate"
         values="180"
         result="color1"
         in="fbSourceGraphic" />
      <feColorMatrix
         id="feColorMatrix1047"
         values="-1 0 0 0 1 0 -1 0 0 1 0 0 -1 0 1 -0.21 -0.72 -0.07 2 0 "
         result="color2" />
    </filter>
    <filter
       style="color-interpolation-filters:sRGB;"
       inkscape:label="Invert"
       id="filter921"
       x="0"
       y="0"
       width="1"
       height="1">
      <feColorMatrix
         type="hueRotate"
         values="180"
         result="color1"
         id="feColorMatrix917" />
      <feColorMatrix
         values="-1 0 0 0 1 0 -1 0 0 1 0 0 -1 0 1 -0.21 -0.72 -0.07 2 0 "
         result="fbSourceGraphic"
         id="feColorMatrix919" />
      <feColorMatrix
         result="fbSourceGraphicAlpha"
         in="fbSourceGraphic"
         values="0 0 0 -1 0 0 0 0 -1 0 0 0 0 -1 0 0 0 0 1 0"
         id="feColorMatrix983" />
      <feColorMatrix
         id="feColorMatrix985"
         type="hueRotate"
         values="180"
         result="color1"
         in="fbSourceGraphic" />
      <feColorMatrix
         id="feColorMatrix987"
         values="-1 0 0 0 1 0 -1 0 0 1 0 0 -1 0 1 -0.21 -0.72 -0.07 2 0 "
         result="fbSourceGraphic" />
      <feColorMatrix
         result="fbSourceGraphicAlpha"
         in="fbSourceGraphic"
         values="0 0 0 -1 0 0 0 0 -1 0 0 0 0 -1 0 0 0 0 1 0"
         id="feColorMatrix1049" />
      <feColorMatrix
         id="feColorMatrix1051"
         type="hueRotate"
         values="180"
         result="color1"
         in="fbSourceGraphic" />
      <feColorMatrix
         id="feColorMatrix1053"
         values="-1 0 0 0 1 0 -1 0 0 1 0 0 -1 0 1 -0.21 -0.72 -0.07 2 0 "
         result="color2" />
    </filter>
    <filter
       style="color-interpolation-filters:sRGB;"
       inkscape:label="Invert"
       id="filter927"
       x="0"
       y="0"
       width="1"
       height="1">
      <feColorMatrix
         type="hueRotate"
         values="180"
         result="color1"
         id="feColorMatrix923" />
      <feColorMatrix
         values="-1 0 0 0 1 0 -1 0 0 1 0 0 -1 0 1 -0.21 -0.72 -0.07 2 0 "
         result="fbSourceGraphic"
         id="feColorMatrix925" />
      <feColorMatrix
         result="fbSourceGraphicAlpha"
         in="fbSourceGraphic"
         values="0 0 0 -1 0 0 0 0 -1 0 0 0 0 -1 0 0 0 0 1 0"
         id="feColorMatrix989" />
      <feColorMatrix
         id="feColorMatrix991"
         type="hueRotate"
         values="180"
         result="color1"
         in="fbSourceGraphic" />
      <feColorMatrix
         id="feColorMatrix993"
         values="-1 0 0 0 1 0 -1 0 0 1 0 0 -1 0 1 -0.21 -0.72 -0.07 2 0 "
         result="fbSourceGraphic" />
      <feColorMatrix
         result="fbSourceGraphicAlpha"
         in="fbSourceGraphic"
         values="0 0 0 -1 0 0 0 0 -1 0 0 0 0 -1 0 0 0 0 1 0"
         id="feColorMatrix1055" />
      <feColorMatrix
         id="feColorMatrix1057"
         type="hueRotate"
         values="180"
         result="color1"
         in="fbSourceGraphic" />
      <feColorMatrix
         id="feColorMatrix1059"
         values="-1 0 0 0 1 0 -1 0 0 1 0 0 -1 0 1 -0.21 -0.72 -0.07 2 0 "
         result="color2" />
    </filter>
    <filter
       style="color-interpolation-filters:sRGB;"
       inkscape:label="Invert"
       id="filter933"
       x="0"
       y="0"
       width="1"
       height="1">
      <feColorMatrix
         type="hueRotate"
         values="180"
         result="color1"
         id="feColorMatrix929" />
      <feColorMatrix
         values="-1 0 0 0 1 0 -1 0 0 1 0 0 -1 0 1 -0.21 -0.72 -0.07 2 0 "
         result="fbSourceGraphic"
         id="feColorMatrix931" />
      <feColorMatrix
         result="fbSourceGraphicAlpha"
         in="fbSourceGraphic"
         values="0 0 0 -1 0 0 0 0 -1 0 0 0 0 -1 0 0 0 0 1 0"
         id="feColorMatrix995" />
      <feColorMatrix
         id="feColorMatrix997"
         type="hueRotate"
         values="180"
         result="color1"
         in="fbSourceGraphic" />
      <feColorMatrix
         id="feColorMatrix999"
         values="-1 0 0 0 1 0 -1 0 0 1 0 0 -1 0 1 -0.21 -0.72 -0.07 2 0 "
         result="fbSourceGraphic" />
      <feColorMatrix
         result="fbSourceGraphicAlpha"
         in="fbSourceGraphic"
         values="0 0 0 -1 0 0 0 0 -1 0 0 0 0 -1 0 0 0 0 1 0"
         id="feColorMatrix1061" />
      <feColorMatrix
         id="feColorMatrix1063"
         type="hueRotate"
         values="180"
         result="color1"
         in="fbSourceGraphic" />
      <feColorMatrix
         id="feColorMatrix1065"
         values="-1 0 0 0 1 0 -1 0 0 1 0 0 -1 0 1 -0.21 -0.72 -0.07 2 0 "
         result="color2" />
    </filter>
    <filter
       style="color-interpolation-filters:sRGB;"
       inkscape:label="Invert"
       id="filter939"
       x="0"
       y="0"
       width="1"
       height="1">
      <feColorMatrix
         type="hueRotate"
         values="180"
         result="color1"
         id="feColorMatrix935" />
      <feColorMatrix
         values="-1 0 0 0 1 0 -1 0 0 1 0 0 -1 0 1 -0.21 -0.72 -0.07 2 0 "
         result="fbSourceGraphic"
         id="feColorMatrix937" />
      <feColorMatrix
         result="fbSourceGraphicAlpha"
         in="fbSourceGraphic"
         values="0 0 0 -1 0 0 0 0 -1 0 0 0 0 -1 0 0 0 0 1 0"
         id="feColorMatrix1001" />
      <feColorMatrix
         id="feColorMatrix1003"
         type="hueRotate"
         values="180"
         result="color1"
         in="fbSourceGraphic" />
      <feColorMatrix
         id="feColorMatrix1005"
         values="-1 0 0 0 1 0 -1 0 0 1 0 0 -1 0 1 -0.21 -0.72 -0.07 2 0 "
         result="fbSourceGraphic" />
      <feColorMatrix
         result="fbSourceGraphicAlpha"
         in="fbSourceGraphic"
         values="0 0 0 -1 0 0 0 0 -1 0 0 0 0 -1 0 0 0 0 1 0"
         id="feColorMatrix1067" />
      <feColorMatrix
         id="feColorMatrix1069"
         type="hueRotate"
         values="180"
         result="color1"
         in="fbSourceGraphic" />
      <feColorMatrix
         id="feColorMatrix1071"
         values="-1 0 0 0 1 0 -1 0 0 1 0 0 -1 0 1 -0.21 -0.72 -0.07 2 0 "
         result="color2" />
    </filter>
    <filter
       style="color-interpolation-filters:sRGB;"
       inkscape:label="Invert"
       id="filter945"
       x="0"
       y="0"
       width="1"
       height="1">
      <feColorMatrix
         type="hueRotate"
         values="180"
         result="color1"
         id="feColorMatrix941" />
      <feColorMatrix
         values="-1 0 0 0 1 0 -1 0 0 1 0 0 -1 0 1 -0.21 -0.72 -0.07 2 0 "
         result="fbSourceGraphic"
         id="feColorMatrix943" />
      <feColorMatrix
         result="fbSourceGraphicAlpha"
         in="fbSourceGraphic"
         values="0 0 0 -1 0 0 0 0 -1 0 0 0 0 -1 0 0 0 0 1 0"
         id="feColorMatrix1007" />
      <feColorMatrix
         id="feColorMatrix1009"
         type="hueRotate"
         values="180"
         result="color1"
         in="fbSourceGraphic" />
      <feColorMatrix
         id="feColorMatrix1011"
         values="-1 0 0 0 1 0 -1 0 0 1 0 0 -1 0 1 -0.21 -0.72 -0.07 2 0 "
         result="fbSourceGraphic" />
      <feColorMatrix
         result="fbSourceGraphicAlpha"
         in="fbSourceGraphic"
         values="0 0 0 -1 0 0 0 0 -1 0 0 0 0 -1 0 0 0 0 1 0"
         id="feColorMatrix1073" />
      <feColorMatrix
         id="feColorMatrix1075"
         type="hueRotate"
         values="180"
         result="color1"
         in="fbSourceGraphic" />
      <feColorMatrix
         id="feColorMatrix1077"
         values="-1 0 0 0 1 0 -1 0 0 1 0 0 -1 0 1 -0.21 -0.72 -0.07 2 0 "
         result="color2" />
    </filter>
  </defs>
  <g
     inkscape:label="Layer 1"
     inkscape:groupmode="layer"
     id="layer1">
    <path
       fill="#000000"
       d="m 39.371647,20.676916 c -0.585453,2.916612 -1.482179,5.52895 -2.706991,7.853867 -0.840872,1.019127 -2.477532,1.65634 -4.115704,1.366535 1.738033,-2.417703 2.618776,-5.465542 2.256024,-8.65888 -0.658559,2.347458 -1.398616,4.288474 -2.340541,5.965564 -0.627076,0.667148 -1.709649,1.034989 -2.823708,0.698156 1.273829,-1.739226 1.923564,-3.943969 1.660911,-6.256245 -0.411292,1.317638 -0.948206,2.537084 -1.602592,3.661081 -0.559336,0.627155 -1.551708,0.982712 -2.577752,0.683208 0.853434,-1.179971 1.288021,-2.669583 1.11064,-4.231269 -0.325384,0.748285 -0.698155,1.460155 -1.115609,2.135491 -0.546813,0.462654 -1.786533,0.358977 -2.719394,0.03602 l -0.04095,-0.03101 c 0.480503,-0.718509 0.671718,-1.646401 0.463329,-2.654873 -0.166449,0.44389 -0.368318,0.867585 -0.6037,1.269734 -0.420873,0.680982 -1.545943,0.153529 -2.28584,-0.349117 0.632363,0.592927 1.304718,1.626405 0.690721,2.326786 -0.333533,0.310794 -0.692907,0.601951 -1.077127,0.872117 0.928369,-0.02604 1.72563,-0.352615 2.310686,-0.883328 0.893982,0.785852 1.098117,1.99365 0.66341,2.618817 -0.506264,0.483207 -1.045404,0.936797 -1.616267,1.359101 1.482893,-0.167959 2.779422,-0.859158 3.726912,-1.868426 l 0.05593,0.04472 c 0.470803,0.913541 0.337986,1.931396 -0.147805,2.591467 -0.91851,0.839997 -1.93863,1.591342 -3.056108,2.25352 2.276935,-0.257922 4.254366,-1.357113 5.658706,-2.951715 l 0.04095,0.03232 c 0.551703,1.018093 0.410975,2.165784 -0.131665,2.904487 -1.39448,1.250852 -3.085445,2.382641 -5.180388,3.523175 3.192225,-0.36156 5.963657,-1.903965 7.928367,-4.143134 0.768996,1.560652 0.479588,3.293279 -0.407476,4.351841 -1.987171,1.724119 -4.329739,3.17521 -7.045039,4.371718 9.364192,-1.060788 16.09271,-9.51919 15.027987,-18.89173 z"
       id="path339"
       style="stroke-width:0.0397537;filter:url(#filter903)" />
    <path
       fill="#000000"
       d="m 0.24299095,20.678573 c 0.58544551,2.916584 1.48216535,5.528896 2.70696055,7.853789 0.8408655,1.019117 2.4775128,1.656324 4.11567,1.366522 -1.7380151,-2.417679 -2.6187535,-5.465491 -2.2560052,-8.658797 0.6585509,2.347436 1.3985986,4.288434 2.3405222,5.965508 0.6270689,0.66714 1.7096319,1.034978 2.8236791,0.698148 -1.2738184,-1.73921 -1.923549,-3.943927 -1.6608985,-6.256183 0.4112919,1.317627 0.9482026,2.537056 1.6025734,3.661044 0.5593325,0.627149 1.5517005,0.982704 2.5777285,0.683204 -0.853425,-1.17996 -1.288007,-2.669561 -1.110626,-4.231228 0.325375,0.748277 0.698146,1.46014 1.115598,2.13547 0.546802,0.462648 1.786509,0.358972 2.719361,0.03598 l 0.0409,-0.03105 c -0.480498,-0.718497 -0.671713,-1.646374 -0.463327,-2.654842 0.166443,0.443888 0.368311,0.86758 0.603688,1.269723 0.420872,0.680972 1.545929,0.153524 2.285817,-0.349115 -0.632349,0.592924 -1.304702,1.626391 -0.690713,2.326765 0.333537,0.310788 0.692904,0.601946 1.077123,0.872107 -0.928363,-0.02606 -1.725616,-0.352613 -2.310671,-0.883319 -0.893968,0.785845 -1.098104,1.993632 -0.663399,2.618792 0.506258,0.483203 1.045391,0.936787 1.616255,1.359087 -1.482884,-0.167951 -2.779396,-0.85914 -3.726877,-1.868399 l -0.05588,0.04476 c -0.470795,0.913531 -0.337974,1.931378 0.147801,2.591442 0.918502,0.839988 1.938611,1.591326 3.05608,2.253495 -2.276909,-0.257916 -4.254322,-1.357096 -5.65865,-2.951683 l -0.0409,0.03234 c -0.5516907,1.018083 -0.41097,2.165764 0.13166,2.904458 1.394469,1.250839 3.08542,2.382617 5.180344,3.523142 -3.192206,-0.36155 -5.9636025,-1.903938 -7.9282944,-4.143085 -0.7689901,1.560636 -0.4795873,3.293243 0.4074716,4.351798 1.9871418,1.724102 4.3296928,3.175179 7.0449668,4.371676 C 5.9068313,38.509339 -0.82162183,30.051019 0.24309096,20.678574 Z"
       id="path348"
       style="stroke-width:0.039753;filter:url(#filter909)" />
    <path
       fill="#000000"
       d="M 0.24300306,19.022369 C 0.82840525,16.106011 1.7250525,13.493903 2.9497574,11.169189 3.7905552,10.150151 5.4270723,9.5129946 7.0651009,9.802774 c -1.7378807,2.417492 -2.618547,5.465064 -2.2558263,8.658122 0.6585015,-2.347253 1.3984933,-4.288099 2.3403347,-5.965041 0.6270209,-0.66709 1.7094993,-1.034899 2.8234618,-0.698095 -1.2737187,1.739074 -1.9233969,3.943622 -1.6607658,6.255696 0.4112563,-1.317522 0.9481225,-2.536861 1.6024512,-3.660759 0.5592865,-0.6271 1.5515725,-0.982627 2.5775265,-0.683149 -0.853357,1.179867 -1.287909,2.66935 -1.110543,4.230898 0.325356,-0.748218 0.698094,-1.460027 1.115512,-2.135304 0.546765,-0.462613 1.786376,-0.358944 2.719156,-0.03602 l 0.04094,0.031 c -0.480461,0.718446 -0.67166,1.646257 -0.463288,2.654641 0.166434,-0.44385 0.368285,-0.867508 0.603647,-1.269622 0.420836,-0.680921 1.545807,-0.153516 2.28564,0.349086 -0.632308,-0.592874 -1.304605,-1.626261 -0.690662,-2.326581 0.333506,-0.310768 0.692848,-0.601899 1.077034,-0.872041 -0.928289,0.02604 -1.725478,0.352584 -2.310483,0.88325 -0.893904,-0.785784 -1.098022,-1.993475 -0.663353,-2.618588 0.506218,-0.483164 1.045311,-0.936715 1.616126,-1.358981 -1.482764,0.167944 -2.779179,0.859082 -3.726587,1.868262 l -0.05593,-0.04472 c -0.470763,-0.913458 -0.337957,-1.931223 0.147791,-2.591237 0.918429,-0.8399227 1.938461,-1.5912026 3.05584,-2.2533224 -2.276735,0.2578995 -4.253993,1.3569941 -5.658209,2.9514554 l -0.04094,-0.03232 C 9.8823202,10.121412 10.023036,8.973822 10.565628,8.2351829 11.959988,6.9844411 13.650804,5.8527512 15.745563,4.7123165 12.553617,5.073845 9.7824286,6.6161153 7.8178913,8.8550882 7.0489624,7.2945726 7.3383447,5.5620975 8.2253315,4.503628 10.212329,2.7796595 12.554691,1.328695 15.269752,0.13229167 5.9063816,1.1929872 -0.8215491,9.6506495 0.24308268,19.022369 Z"
       id="path529"
       style="stroke-width:0.0397502;filter:url(#filter915)" />
    <path
       fill="#000000"
       d="m 39.371647,19.023728 c -0.585453,-2.916612 -1.482179,-5.52895 -2.706991,-7.853867 -0.840872,-1.019127 -2.477532,-1.65634 -4.115704,-1.366535 1.738033,2.417703 2.618776,5.465542 2.256024,8.65888 -0.658559,-2.347458 -1.398616,-4.288474 -2.340541,-5.965564 -0.627076,-0.667148 -1.709649,-1.034989 -2.823708,-0.698156 1.273829,1.739226 1.923564,3.943969 1.660911,6.256245 -0.411292,-1.317638 -0.948206,-2.537084 -1.602592,-3.661081 -0.559336,-0.627155 -1.551708,-0.982712 -2.577752,-0.683208 0.853434,1.179971 1.288021,2.669583 1.11064,4.231269 C 27.90655,17.193426 27.533779,16.481556 27.116325,15.80622 26.569512,15.343566 25.329792,15.447243 24.396931,15.7702 l -0.04095,0.03101 c 0.480503,0.718509 0.671718,1.646401 0.463329,2.654873 -0.166449,-0.44389 -0.368318,-0.867585 -0.6037,-1.269734 -0.420873,-0.680982 -1.545943,-0.153529 -2.28584,0.349117 0.632363,-0.592927 1.304718,-1.626405 0.690721,-2.326786 -0.333533,-0.310794 -0.692907,-0.601951 -1.077127,-0.872117 0.928369,0.02604 1.72563,0.352615 2.310686,0.883328 0.893982,-0.785852 1.098117,-1.99365 0.66341,-2.618817 -0.506264,-0.483207 -1.045404,-0.936797 -1.616267,-1.359101 1.482893,0.167959 2.779422,0.859158 3.726912,1.868426 l 0.05593,-0.04472 C 27.154838,12.152138 27.022021,11.134283 26.53623,10.474212 25.61772,9.634215 24.5976,8.88287 23.480122,8.220692 c 2.276935,0.257922 4.254366,1.357113 5.658706,2.951715 l 0.04095,-0.03232 C 29.731481,10.121994 29.590753,8.974303 29.048113,8.2356 27.653633,6.984748 25.962668,5.852959 23.867725,4.712425 27.05995,5.073985 29.831382,6.61639 31.796092,8.855559 32.565088,7.294907 32.27568,5.56228 31.388616,4.503718 29.401445,2.779599 27.058877,1.328508 24.343577,0.132 c 9.364192,1.060788 16.09271,9.51919 15.027987,18.89173 z"
       id="path539"
       style="stroke-width:0.0397537;filter:url(#filter921)" />
    <g
       id="g849"
       transform="matrix(0.00891495,0,0,-0.00891495,15.836015,9.9888973)"
       style="filter:url(#filter927)">
	<path
   d="m 458.2,0 c -27.6,0 -50,22.4 -50,50 v 161.2 c -48.3,9.7 -92.6,33.3 -128.2,68.9 -35.6,35.6 -59.2,79.9 -68.9,128.2 H 50 c -27.6,0 -50,22.4 -50,50 0,27.601 22.4,50 50,50 h 161.2 c 9.7,48.301 33.3,92.601 68.9,128.2 35.6,35.601 79.9,59.2 128.2,68.9 v 161.2 c 0,27.6 22.4,50 50,50 27.601,0 50,-22.4 50,-50 V 705.3 c 48.301,-9.699 92.601,-33.3 128.2,-68.899 35.601,-35.601 59.2,-79.9 68.9,-128.2 h 161.2 c 27.6,0 50,-22.4 50,-50 0,-27.6 -22.4,-50 -50,-50 H 705.3 C 695.601,359.9 672,315.6 636.4,280 600.799,244.4 556.5,220.8 508.2,211.1 V 50 c 0,-27.6 -22.4,-50 -50,-50 z m -50,601.7 c -43.7,-15.3 -78.3,-49.9 -93.5,-93.5 h 93.5 z m 0,-193.5 h -93.5 c 15.3,-43.7 49.9,-78.3 93.5,-93.5 z m 100,193.5 v -93.5 h 93.5 c -15.2,43.7 -49.8,78.3 -93.5,93.5 z m 93.5,-193.5 h -93.5 v -93.5 c 43.7,15.2 78.3,49.8 93.5,93.5 z"
   id="path847" />

</g>
    <g
       id="g889"
       transform="matrix(0.00891495,0,0,-0.00891495,2.5994917,23.927003)"
       style="filter:url(#filter933)">
	<path
   d="m 458.2,0 c -27.6,0 -50,22.4 -50,50 v 161.2 c -48.3,9.7 -92.6,33.3 -128.2,68.9 -35.6,35.6 -59.2,79.9 -68.9,128.2 H 50 c -27.6,0 -50,22.4 -50,50 0,27.601 22.4,50 50,50 h 161.2 c 9.7,48.301 33.3,92.601 68.9,128.2 35.6,35.601 79.9,59.2 128.2,68.9 v 161.2 c 0,27.6 22.4,50 50,50 27.601,0 50,-22.4 50,-50 V 705.3 c 48.301,-9.699 92.601,-33.3 128.2,-68.899 35.601,-35.601 59.2,-79.9 68.9,-128.2 h 161.2 c 27.6,0 50,-22.4 50,-50 0,-27.6 -22.4,-50 -50,-50 H 705.3 C 695.601,359.9 672,315.6 636.4,280 600.799,244.4 556.5,220.8 508.2,211.1 V 50 c 0,-27.6 -22.4,-50 -50,-50 z m -50,601.7 c -43.7,-15.3 -78.3,-49.9 -93.5,-93.5 h 93.5 z m 0,-193.5 h -93.5 c 15.3,-43.7 49.9,-78.3 93.5,-93.5 z m 100,193.5 v -93.5 h 93.5 c -15.2,43.7 -49.8,78.3 -93.5,93.5 z m 93.5,-193.5 h -93.5 v -93.5 c 43.7,15.2 78.3,49.8 93.5,93.5 z"
   id="path887" />

</g>
    <g
       id="g893"
       transform="matrix(0.00891495,0,0,-0.00891495,15.648926,37.958653)"
       style="filter:url(#filter939)">
	<path
   d="m 458.2,0 c -27.6,0 -50,22.4 -50,50 v 161.2 c -48.3,9.7 -92.6,33.3 -128.2,68.9 -35.6,35.6 -59.2,79.9 -68.9,128.2 H 50 c -27.6,0 -50,22.4 -50,50 0,27.601 22.4,50 50,50 h 161.2 c 9.7,48.301 33.3,92.601 68.9,128.2 35.6,35.601 79.9,59.2 128.2,68.9 v 161.2 c 0,27.6 22.4,50 50,50 27.601,0 50,-22.4 50,-50 V 705.3 c 48.301,-9.699 92.601,-33.3 128.2,-68.899 35.601,-35.601 59.2,-79.9 68.9,-128.2 h 161.2 c 27.6,0 50,-22.4 50,-50 0,-27.6 -22.4,-50 -50,-50 H 705.3 C 695.601,359.9 672,315.6 636.4,280 600.799,244.4 556.5,220.8 508.2,211.1 V 50 c 0,-27.6 -22.4,-50 -50,-50 z m -50,601.7 c -43.7,-15.3 -78.3,-49.9 -93.5,-93.5 h 93.5 z m 0,-193.5 h -93.5 c 15.3,-43.7 49.9,-78.3 93.5,-93.5 z m 100,193.5 v -93.5 h 93.5 c -15.2,43.7 -49.8,78.3 -93.5,93.5 z m 93.5,-193.5 h -93.5 v -93.5 c 43.7,15.2 78.3,49.8 93.5,93.5 z"
   id="path891" />

</g>
    <g
       id="g897"
       transform="matrix(0.00891495,0,0,-0.00891495,28.610806,23.942087)"
       style="filter:url(#filter945)">
	<path
   d="m 458.2,0 c -27.6,0 -50,22.4 -50,50 v 161.2 c -48.3,9.7 -92.6,33.3 -128.2,68.9 -35.6,35.6 -59.2,79.9 -68.9,128.2 H 50 c -27.6,0 -50,22.4 -50,50 0,27.601 22.4,50 50,50 h 161.2 c 9.7,48.301 33.3,92.601 68.9,128.2 35.6,35.601 79.9,59.2 128.2,68.9 v 161.2 c 0,27.6 22.4,50 50,50 27.601,0 50,-22.4 50,-50 V 705.3 c 48.301,-9.699 92.601,-33.3 128.2,-68.899 35.601,-35.601 59.2,-79.9 68.9,-128.2 h 161.2 c 27.6,0 50,-22.4 50,-50 0,-27.6 -22.4,-50 -50,-50 H 705.3 C 695.601,359.9 672,315.6 636.4,280 600.799,244.4 556.5,220.8 508.2,211.1 V 50 c 0,-27.6 -22.4,-50 -50,-50 z m -50,601.7 c -43.7,-15.3 -78.3,-49.9 -93.5,-93.5 h 93.5 z m 0,-193.5 h -93.5 c 15.3,-43.7 49.9,-78.3 93.5,-93.5 z m 100,193.5 v -93.5 h 93.5 c -15.2,43.7 -49.8,78.3 -93.5,93.5 z m 93.5,-193.5 h -93.5 v -93.5 c 43.7,15.2 78.3,49.8 93.5,93.5 z"
   id="path895" />

</g>
  </g>
</svg>
