<?xml version="1.0" encoding="UTF-8" standalone="no"?>
<!-- Created with Inkscape (http://www.inkscape.org/) -->

<svg
   width="150"
   height="150"
   viewBox="0 0 39.687499 39.687501"
   version="1.1"
   id="svg160"
   inkscape:version="1.3.2 (091e20e, 2023-11-25, custom)"
   xml:space="preserve"
   sodipodi:docname="uixSvgIcon_ability_breaklock2.svg"
   xmlns:inkscape="http://www.inkscape.org/namespaces/inkscape"
   xmlns:sodipodi="http://sodipodi.sourceforge.net/DTD/sodipodi-0.dtd"
   xmlns="http://www.w3.org/2000/svg"
   xmlns:svg="http://www.w3.org/2000/svg"><sodipodi:namedview
     id="namedview162"
     pagecolor="#505050"
     bordercolor="#ffffff"
     borderopacity="1"
     inkscape:pageshadow="0"
     inkscape:pageopacity="0"
     inkscape:pagecheckerboard="1"
     inkscape:document-units="mm"
     showgrid="false"
     units="px"
     inkscape:showpageshadow="0"
     inkscape:deskcolor="#d1d1d1"
     inkscape:zoom="2.59"
     inkscape:cx="41.698842"
     inkscape:cy="51.158301"
     inkscape:window-width="1920"
     inkscape:window-height="991"
     inkscape:window-x="1911"
     inkscape:window-y="-9"
     inkscape:window-maximized="1"
     inkscape:current-layer="layer1" /><defs
     id="defs157" /><g
     inkscape:label="Layer 1"
     inkscape:groupmode="layer"
     id="layer1"><g
       style="fill:#ffffff"
       id="g1"
       transform="matrix(0.14240875,0.07139645,-0.06640629,0.15311018,9.7454711,-5.7867717)"><path
         d="M 143.749,46.281 179.187,11.828 143.749,2.969 Z M 127.954,35.33 120.739,2.23 99.816,19.826 Z m -27.488,37.971 c -3.158,-1.819 -6.512,-3.225 -9.969,-4.237 3.471,-2.306 21.769,-13.001 21.769,-13.001 l 9.846,15.988 c 0,0 -12.523,7.346 -13.057,7.658 -2.574,-2.433 -5.439,-4.595 -8.589,-6.408 z M 224.874,84.41 188.39,74.589 c -5.473,-1.473 -11.08,-1.734 -16.517,-0.847 -5.154,-4.263 -11.177,-7.766 -17.125,-11.22 l -10.998,-6.397 -9.863,15.917 11.431,6.717 c 2.554,1.483 4.879,2.852 6.997,4.166 -5.867,5.085 -10.089,11.784 -12.149,19.432 -1.338,4.972 -1.634,9.978 -1.061,14.803 h 7.558 c 4.364,0 8.271,-1.937 10.939,-4.987 0.032,-1.634 0.252,-3.288 0.696,-4.936 1.228,-4.563 3.936,-8.474 7.708,-11.227 0.806,1.962 1.23,4.11 1.23,6.577 0,6.512 -3.27,12.83 -8.534,16.647 -0.004,-0.012 -0.007,-0.025 -0.011,-0.037 -3.375,2.423 -7.506,3.864 -11.987,3.864 l -30.972,0.098 c 1.85,-6.585 2.015,-13.732 0.112,-20.803 C 113.155,92.366 106.437,83.659 97.475,78.499 90.074,74.237 81.18,72.467 72.646,73.588 68.027,74.195 31.135,84.408 31.135,84.408 21,87.137 12.528,93.662 7.277,102.78 c -5.251,9.119 -6.641,19.722 -3.912,29.855 2.728,10.134 9.252,18.607 18.37,23.856 6.067,3.494 12.788,5.277 19.593,5.277 3.424,0 6.87,-0.452 10.262,-1.365 l 36.484,-9.821 c 6.293,-1.694 11.812,-4.839 16.312,-8.967 1.623,0.205 3.273,0.323 4.951,0.323 0,0 37.324,0 37.328,0 10.074,-0.249 19.967,-4.006 27.266,-11.022 2.97,-2.859 5.494,-6.179 7.455,-9.843 0.015,-0.028 0.029,-0.058 0.044,-0.086 3.858,-7.241 5.302,-15.664 4.226,-23.787 -0.189,-1.425 -0.443,-2.798 -0.776,-4.108 l 35.11,9.451 c 5.297,1.425 9.726,4.836 12.471,9.604 2.745,4.768 3.472,10.31 2.045,15.608 -2.948,10.954 -14.259,17.467 -25.211,14.517 l -30.126,-8.11 c -5.674,5.84 -12.896,10.166 -21.004,12.293 2.989,1.77 6.251,3.182 9.766,4.128 l 36.484,9.821 c 3.392,0.913 6.837,1.365 10.262,1.365 6.804,0 13.526,-1.785 19.593,-5.277 9.118,-5.25 15.643,-13.722 18.371,-23.856 5.642,-20.952 -6.816,-42.586 -27.767,-48.226 z m -127.57,34.829 c -5.056,-3.664 -8.39,-9.556 -8.525,-16.232 -1.04,-1.188 -2.257,-2.228 -3.668,-3.04 -2.225,-1.282 -4.734,-2.063 -7.25,-1.959 -3.326,0.137 -7.757,1.572 -7.757,1.572 -0.069,0.978 -0.116,1.975 -0.116,3.008 0,11.863 5.285,22.509 13.615,29.729 -0.139,0.04 -0.269,0.095 -0.409,0.133 l -36.485,9.821 c -5.296,1.426 -10.839,0.699 -15.607,-2.046 -4.767,-2.745 -8.178,-7.174 -9.604,-12.471 -2.949,-10.954 3.563,-22.265 14.517,-25.213 5.677,-1.528 25.619,-6.803 29.892,-8.043 4.404,-1.278 8.924,-2.601 13.56,-2.396 3.019,0.134 6.032,1.163 8.64,2.664 4.678,2.694 8.201,7.257 9.604,12.47 1.103,4.105 0.88,8.258 -0.407,12.003 z"
         id="path1"
         style="fill:#ffffff" /></g></g></svg>
