<?xml version="1.0" encoding="UTF-8" standalone="no"?>
<!-- Created with Inkscape (http://www.inkscape.org/) -->

<svg
   width="150"
   height="150"
   viewBox="0 0 39.687499 39.687501"
   version="1.1"
   id="svg160"
   inkscape:version="1.3.2 (091e20e, 2023-11-25, custom)"
   xml:space="preserve"
   sodipodi:docname="uixSvgIcon_ability_targetexpert2.svg"
   xmlns:inkscape="http://www.inkscape.org/namespaces/inkscape"
   xmlns:sodipodi="http://sodipodi.sourceforge.net/DTD/sodipodi-0.dtd"
   xmlns="http://www.w3.org/2000/svg"
   xmlns:svg="http://www.w3.org/2000/svg"><sodipodi:namedview
     id="namedview162"
     pagecolor="#505050"
     bordercolor="#ffffff"
     borderopacity="1"
     inkscape:pageshadow="0"
     inkscape:pageopacity="0"
     inkscape:pagecheckerboard="1"
     inkscape:document-units="mm"
     showgrid="false"
     units="px"
     inkscape:showpageshadow="0"
     inkscape:deskcolor="#d1d1d1"
     inkscape:zoom="5.18"
     inkscape:cx="74.903475"
     inkscape:cy="75"
     inkscape:window-width="1920"
     inkscape:window-height="991"
     inkscape:window-x="1911"
     inkscape:window-y="-9"
     inkscape:window-maximized="1"
     inkscape:current-layer="layer1" /><defs
     id="defs157" /><g
     inkscape:label="Layer 1"
     inkscape:groupmode="layer"
     id="layer1"><path
       class="st0"
       d="M 16.566953,11.831811 C 13.600654,9.7418929 10.667515,9.2808369 7.6348966,10.078584 8.2980934,8.4739889 9.2959034,7.4214469 10.468556,6.9270247 12.129562,6.226341 14.84867,6.723796 15.918829,8.2222279 c 0.548645,0.764382 0.822967,1.8988221 0.648124,3.6095831 z m 9.932882,11.562798 c -0.0814,-0.339725 0.129625,-0.679451 0.467253,-0.761348 0.337627,-0.08191 0.675255,0.13043 0.756647,0.470155 0.162785,0.68855 0.443137,1.222405 0.816938,1.60763 0.382846,0.39129 0.874215,0.643051 1.459033,0.758315 0.340643,0.06673 0.560703,0.397357 0.494384,0.740116 -0.06632,0.342758 -0.394904,0.564187 -0.735546,0.497456 -0.83201,-0.166831 -1.546455,-0.533855 -2.110173,-1.113209 -0.539601,-0.552054 -0.931489,-1.280037 -1.148536,-2.199115 z m -21.0956918,0 c -0.081393,-0.339725 0.1296249,-0.679451 0.4672524,-0.761348 0.3376275,-0.08191 0.6752551,0.13043 0.7566475,0.470155 0.1627847,0.68855 0.4431361,1.222405 0.816938,1.60763 0.3828453,0.39129 0.8742143,0.643051 1.4590333,0.758315 0.340642,0.06673 0.560703,0.397357 0.494383,0.740116 -0.06632,0.342758 -0.394904,0.564187 -0.735546,0.497456 C 7.8308414,26.540102 7.1163972,26.173078 6.5526797,25.593724 6.0130786,25.04167 5.6211894,24.313687 5.4041432,23.394609 Z M 19.801546,21.086297 c 0.844069,0 1.528368,0.67035 1.528368,1.495398 0,0.825047 -0.684299,1.495398 -1.528368,1.495398 -0.844069,0 -1.528367,-0.670351 -1.528367,-1.495398 0,-0.825048 0.684298,-1.495398 1.528367,-1.495398 z M 9.3592094,17.100589 c 3.0145306,0 5.4593156,2.39021 5.4593156,5.341576 0,2.94833 -2.444785,5.341575 -5.4593156,5.341575 -3.0145324,0 -5.4593175,-2.390211 -5.4593175,-5.341575 0,-2.951366 2.4417706,-5.341576 5.4593175,-5.341576 z m 21.0956916,0 c 3.014532,0 5.459316,2.39021 5.459316,5.341576 0,2.94833 -2.444784,5.341575 -5.459316,5.341575 -3.014532,0 -5.459317,-2.390211 -5.459317,-5.341575 0,-2.951366 2.441771,-5.341576 5.459317,-5.341576 z M 23.120546,11.831811 C 26.086845,9.7418929 29.019984,9.2808369 32.049588,10.078584 31.386391,8.4739889 30.388581,7.4214469 29.215929,6.9270247 27.554922,6.226341 24.835814,6.723796 23.76867,8.2222279 23.220025,8.9866099 22.945702,10.12105 23.120546,11.831811 Z m 10.629238,0.06066 c -1.03097,-1.067709 -2.701021,-1.549996 -5.013167,-1.446866 -2.619627,0.13043 -5.386967,1.231506 -6.276254,3.727879 -0.74459,-1.644027 -4.488638,-1.644027 -5.230213,0 -0.889286,-2.496373 -3.656626,-3.600482 -6.276255,-3.727879 -2.3121446,-0.103133 -3.9791808,0.382191 -5.0131651,1.446866 -1.4530043,1.959488 -4.3288675,7.079636 -4.57003,9.582077 -0.98273732,10.155364 13.4930431,12.703306 15.8142331,2.217317 1.31735,2.350778 4.000283,2.350778 5.317633,0 2.32119,10.489022 16.79697,7.938047 15.814234,-2.217317 -0.241163,-2.502441 -3.117026,-7.622589 -4.567016,-9.582077 z"
       id="path1"
       style="fill:#ffffff;stroke-width:0.302388" /></g><style
     type="text/css"
     id="style1">.st0{fill-rule:evenodd;clip-rule:evenodd;}</style></svg>
