<?xml version="1.0" encoding="UTF-8"?>
<svg xmlns="http://www.w3.org/2000/svg" xmlns:xlink="http://www.w3.org/1999/xlink" width="150pt" height="150pt" viewBox="0 0 150 150" version="1.1">
<g id="surface1">
<path style=" stroke:none;fill-rule:nonzero;fill:rgb(0%,0%,0%);fill-opacity:1;" d="M 90 4 C 93.910156 25.070313 80.226563 48.527344 76 69 L 75 69 C 72.4375 60.101563 67.675781 51.699219 64.425781 43 C 63 39.609375 60.53125 34.65625 62 31.039063 C 66.167969 21.820313 80.191406 19.796875 85 11 C 76.8125 13.789063 50 23.066406 51.332031 34 C 52.21875 42.195313 59.726563 54.105469 63 62 C 64 64.523438 67.625 69.222656 65.984375 72 C 61.703125 79.089844 45.976563 85.3125 39 90 C 34.765625 93 29.226563 96.0625 30.65625 102 C 33.316406 113.050781 40.867188 125.140625 46.425781 135 C 48 138.089844 49.925781 143.183594 53.214844 145 C 57 147 62.484375 143.507813 66 142 C 75.515625 138 85 133.566406 94 128.421875 C 97.640625 126.339844 102.859375 124.230469 104.382813 120 C 107.566406 111.019531 93 94.277344 88.800781 87 C 87 84.097656 83.339844 79.671875 84.417969 76.039063 C 88.398438 62.644531 115.273438 64 120.382813 51.671875 C 122.921875 45.550781 115.804688 33.476563 113.21875 28 C 111 23.589844 109.261719 18.605469 105 16 C 106.277344 24.652344 115 38.382813 112.308594 47 C 109.585938 55.285156 91.171875 61.808594 84 66 C 91.347656 47 93.660156 26.695313 102 8 L 98 9 L 99 4 C 94.910156 6.074219 94.1875 6 90 4 M 93 7 C 94.738281 9.785156 95.726563 10.304688 99 10 C 91.730469 29 88.472656 49 82 68 C 89.742188 64.773438 111.617188 56 113.820313 47 C 115.597656 39.605469 109.644531 29.101563 108 22 L 109 22 C 111.609375 28.265625 122.738281 45 118.933594 51.609375 C 112.464844 63 86.851563 62.53125 82.558594 75.617188 C 81.5625 78.648438 84.75 82.546875 86 85 C 90.742188 93.046875 96 100.75 100.242188 109 C 101.835938 112.140625 105 117 102.957031 120.480469 C 100.242188 125.023438 92.484375 127.765625 88 130.164063 C 83.421875 132.613281 78.769531 135 74 137 C 69.195313 139.074219 60.445313 145.199219 55 144.066406 C 51 143.21875 48.996094 137.214844 47.296875 134 C 42 124.101563 34.828125 113 32 102 C 30.839844 97.402344 33.910156 95 38 96 C 38.539063 84 62.492188 82.210938 67 72 C 69.273438 66.804688 59.832031 48.074219 57 43 C 55.21875 39.511719 51 35.285156 53 31.039063 C 55.210938 26.410156 61.8125 23.453125 66 21.011719 C 69.535156 19 73 17.316406 77 16 L 77 17 C 72.324219 20.359375 61 26 60 32.015625 C 58.792969 40.28125 67.203125 53.605469 70.425781 61 C 71.171875 62.71875 73 69 75.792969 68.367188 C 79.464844 67.5625 80.585938 56.023438 81.425781 53 C 83.941406 44 87.507813 35.179688 89.574219 26 C 90.917969 20.039063 90.707031 12.464844 93 7 M 79 15 L 78 16 L 79 15 M 69 20 C 67.8125 21.1875 67.414063 21.527344 66 22 L 66 23 C 67.933594 22.15625 68.726563 22.003906 69 20 M 93 20 L 94 21 L 93 20 M 108 20 L 107 21 L 108 20 M 63.667969 24.332031 C 63.222656 24.777344 64.277344 24.722656 64.332031 24.667969 C 64.777344 24.222656 63.722656 24.277344 63.667969 24.332031 M 59 26 L 60 27 L 59 26 M 54 31 C 55.578125 30.316406 55.777344 30.195313 57 29 C 55.421875 29.683594 55.222656 29.804688 54 31 M 112 32 L 113 33 L 112 32 M 88 35 C 89.636719 34.453125 89.453125 34.636719 90 33 C 88.363281 33.546875 88.546875 33.363281 88 35 M 54 36 L 55 37 L 54 36 M 115.332031 41.667969 C 115.277344 41.722656 115.222656 42.777344 115.667969 42.332031 C 115.722656 42.277344 115.777344 41.222656 115.332031 41.667969 M 118.332031 49.667969 C 118.277344 49.722656 118.222656 50.777344 118.667969 50.332031 C 118.722656 50.277344 118.777344 49.222656 118.332031 49.667969 M 61 50 L 62 51 L 61 50 M 112 55 L 113 55 L 115 51 C 113 52.230469 112.777344 53 112 55 M 109 56 L 110 57 L 109 56 M 82 61 L 83 62 L 82 61 M 96 64 C 97.636719 63.453125 97.453125 63.636719 98 62 C 96.6875 62.769531 96.769531 62.6875 96 64 M 70 64 L 71 65 L 70 64 M 90 65 L 91 66 L 90 65 M 88.332031 67.667969 C 88.277344 67.722656 88.222656 68.777344 88.667969 68.332031 C 88.722656 68.277344 88.777344 67.222656 88.332031 67.667969 M 84 68 L 85 69 L 84 68 M 86 69 L 87 70 L 86 69 M 73 70 L 74 71 L 73 70 M 78 71 L 79 72 L 78 71 M 82 72 L 83 73 L 82 72 M 68.332031 73.667969 C 68.277344 73.722656 68.222656 74.777344 68.667969 74.332031 C 68.722656 74.277344 68.777344 73.222656 68.332031 73.667969 M 63 80 C 61.34375 85.273438 52.1875 89.335938 47 90 C 47 94 43.734375 90.0625 41 91 C 42.246094 91.683594 42.546875 91.75 44 92 C 42.792969 95 42 95.3125 39 95 L 39 96 L 41 97 L 37 97 C 37.460938 103.164063 40.21875 109 40 115 L 41 115 L 42 113 C 43.566406 118.730469 47.550781 124 46 130 C 47.414063 129.527344 47.8125 129.1875 49 128 C 49.488281 130.363281 49.855469 131.792969 49 134 L 49 135 C 51.566406 134.570313 54.222656 139.269531 56 138 C 59.285156 135.652344 55 127.78125 60 129 C 57 114.238281 68.648438 92.625 72 78 C 68.9375 79 66.1875 80 63 80 M 58 80 L 59 81 L 58 80 M 70 80 C 66 99.128906 57.84375 117.683594 55 137 L 54 137 C 50.277344 128.0625 36.910156 111 38.933594 101.039063 C 39.679688 97.390625 44 95.222656 47 93.425781 C 54.449219 88.746094 61.90625 83.488281 70 80 M 76 80 C 71.195313 94.417969 65.695313 109.21875 62 124 C 60.949219 128.203125 60 137.789063 57 137 C 58.21875 140.652344 60.632813 139.46875 60 142 L 61 142 C 62.277344 140.085938 62.277344 141 61 139 L 65 140 C 65 135.503906 68.574219 138.601563 70.832031 137.167969 C 73.210938 135.65625 84.425781 125.277344 86 128 L 87 128 C 87.394531 124.753906 88.875 124.347656 92 124 C 93.230469 120.140625 97.363281 118.066406 99 114 C 96 114 94.824219 109.554688 93.332031 107 C 89.96875 101.230469 81.84375 91 82 85 C 79 85 78.347656 81.667969 76 80 M 77 82 C 81.917969 90 86.609375 98 91.390625 106 C 92.9375 108.59375 96.335938 112.800781 96.195313 116 C 96 120.351563 79 126.804688 81 129 L 81 130 C 73.167969 130.054688 67.585938 136.632813 60 138 C 63.503906 121.078125 67.992188 96.742188 77 82 M 52 84 L 53 85 L 52 84 M 85 91 L 84 92 L 85 91 M 45 93 L 44 94 L 45 93 M 89.332031 93.667969 C 89.277344 93.722656 89.222656 94.777344 89.667969 94.332031 C 89.722656 94.277344 89.777344 93.222656 89.332031 93.667969 M 68.332031 96.667969 C 68.277344 96.722656 68.222656 97.777344 68.667969 97.332031 C 68.722656 97.277344 68.777344 96.222656 68.332031 96.667969 M 88 96 L 87 97 L 88 96 M 32 98 L 33 99 L 32 98 M 33 101 L 34 102 L 33 101 M 95 103 L 96 104 L 95 103 M 96 105 L 97 106 L 96 105 M 35 106 L 36 107 L 35 106 M 36.332031 108.667969 C 36.277344 108.722656 36.222656 109.777344 36.667969 109.332031 C 36.722656 109.277344 36.777344 108.222656 36.332031 108.667969 M 99 110 L 100 111 L 99 110 M 97 111 L 98 112 L 97 111 M 102 117 L 103 118 L 102 117 M 62 119 L 63 120 L 62 119 M 44 123 L 45 124 L 44 123 M 95 124 L 96 125 L 95 124 M 60 126 L 61 127 L 60 126 M 88 127 L 89 128 L 88 127 M 58 132 L 59 133 L 58 132 M 76 134 L 77 135 L 76 134 M 70 135.332031 C 70.773438 135.332031 70 135.832031 69.667969 135.667969 L 70 135.332031 M 73 135 L 74 136 L 73 135 M 67 138 L 68 139 L 67 138 M 52 140 L 53 141 L 52 140 "/>
</g>
</svg>
