<?xml version="1.0" encoding="UTF-8" standalone="no"?>
<!-- Created with Inkscape (http://www.inkscape.org/) -->

<svg
   width="150"
   height="150"
   viewBox="0 0 39.687499 39.687501"
   version="1.1"
   id="svg160"
   inkscape:version="1.3 (0e150ed6c4, 2023-07-21)"
   sodipodi:docname="uixSvgIcon_ability_jack.svg"
   xmlns:inkscape="http://www.inkscape.org/namespaces/inkscape"
   xmlns:sodipodi="http://sodipodi.sourceforge.net/DTD/sodipodi-0.dtd"
   xmlns="http://www.w3.org/2000/svg"
   xmlns:svg="http://www.w3.org/2000/svg">
  <sodipodi:namedview
     id="namedview162"
     pagecolor="#505050"
     bordercolor="#ffffff"
     borderopacity="1"
     inkscape:pageshadow="0"
     inkscape:pageopacity="0"
     inkscape:pagecheckerboard="1"
     inkscape:document-units="mm"
     showgrid="false"
     units="px"
     inkscape:zoom="5.32"
     inkscape:cx="58.270677"
     inkscape:cy="49.718045"
     inkscape:window-width="1600"
     inkscape:window-height="871"
     inkscape:window-x="-9"
     inkscape:window-y="-9"
     inkscape:window-maximized="1"
     inkscape:current-layer="layer1"
     inkscape:showpageshadow="0"
     inkscape:deskcolor="#d1d1d1" />
  <defs
     id="defs157">
    <filter
       style="color-interpolation-filters:sRGB;"
       inkscape:label="Invert"
       id="filter282"
       x="-0.0021919039"
       y="-0.0035300166"
       width="1.0063234"
       height="1.0066065">
      <feColorMatrix
         type="hueRotate"
         values="180"
         result="color1"
         id="feColorMatrix278" />
      <feColorMatrix
         values="-1 0 0 0 1 0 -1 0 0 1 0 0 -1 0 1 -0.21 -0.72 -0.07 2 0 "
         result="fbSourceGraphic"
         id="feColorMatrix280" />
      <feColorMatrix
         result="fbSourceGraphicAlpha"
         in="fbSourceGraphic"
         values="0 0 0 -1 0 0 0 0 -1 0 0 0 0 -1 0 0 0 0 1 0"
         id="feColorMatrix825" />
      <feColorMatrix
         id="feColorMatrix827"
         values="-1 0 0 0 1 0 -1 0 0 1 0 0 -1 0 1 -0.21 -0.72 -0.07 2 0 "
         result="color2"
         in="fbSourceGraphic" />
    </filter>
  </defs>
  <g
     inkscape:label="Layer 1"
     inkscape:groupmode="layer"
     id="layer1">
    <path
       fill="#000000"
       d="m 14.056225,0.52948297 c -1.353063,-0.035478 -1.477486,2.92330493 0.555631,3.94661943 1.415316,-3.4408891 7.606264,0.2710604 6.75628,1.7682741 -0.702933,1.2384219 -3.839854,-0.8245371 -4.113567,-0.4940424 -0.743882,0.8981461 2.080367,2.6507532 4.596253,3.8097636 L 24.353114,7.0578058 C 25.220092,6.1907446 26.151064,5.6067634 27.08875,5.2629231 24.313491,3.6811584 19.03909,0.99898909 14.121627,0.53354486 c -0.02205,-0.002162 -0.04393,-0.003481 -0.0654,-0.004145 z M 3.0740649,2.4803698 C 2.311532,3.8425511 1.4191058,5.1414019 2.4042893,9.3096779 L 6.3175862,25.375832 c 0.3085278,-0.491554 0.6909964,-0.973495 1.1547,-1.437198 L 10.721935,20.688978 6.6746067,8.3497767 C 5.8404541,5.9651101 4.5016487,3.8706516 3.0740649,2.4803698 Z M 29.229048,6.306712 C 28.023784,6.303062 26.697577,6.8231357 25.408093,8.1127027 L 8.527183,24.993613 c -2.5790511,2.578968 -2.0807808,5.304657 -0.4688432,6.916592 1.6118554,1.611857 4.3375372,2.110128 6.9165892,-0.468922 L 31.855764,14.560365 c 2.57905,-2.578968 2.08078,-5.3046505 0.468841,-6.9165882 C 31.518637,6.8378908 30.434312,6.3103593 29.229048,6.306712 Z M 4.7746984,8.1436215 6.0141976,12.572756 4.57733,12.974871 3.3378305,8.5456527 Z m 22.5091816,0.7898049 1.348089,1.3480866 1.348007,-1.3480866 1.055063,1.0550625 -1.34809,1.3480011 1.34809,1.348089 -1.055063,1.055145 -1.348007,-1.348006 -1.348089,1.348006 -1.055145,-1.055145 1.348005,-1.348089 -1.348005,-1.3480011 z m 6.785871,5.2379206 c -0.309273,0.493878 -0.693234,0.978138 -1.159093,1.443998 l -2.146599,2.146597 1.520094,1.026216 -1.043789,1.586904 1.821907,1.006653 -1.062937,1.630174 1.788501,1.152214 -1.388129,1.858047 1.895102,0.820144 -0.914146,1.674273 1.677177,1.21745 -0.654277,2.935406 4.653449,-2.464656 z m -11.240957,11.525862 -1.054896,1.054897 1.167464,1.150638 a 0.74603726,0.74603726 0 0 0 0.71802,0.188996 l 1.077775,-0.290954 -1.020661,2.285693 c -0.285318,0.639353 0.387607,1.284177 1.014196,0.971921 l 1.46646,-0.731532 -0.874107,1.582757 c -0.356356,0.645574 0.339862,1.361684 0.995214,1.023731 l 1.386386,-0.715368 -0.594509,1.07736 c -0.3106,0.563176 0.189245,1.229223 0.816746,1.088305 l 1.902228,-0.427397 c 0.629821,0.05843 0.708903,0.05794 1.126932,-0.05256 l -0.35694,-1.290728 a 0.74603726,0.74603726 0 0 0 -0.693896,-0.203255 l -0.687432,0.154516 0.978967,-1.773913 c 0.355693,-0.645487 -0.34011,-1.361019 -0.995213,-1.023395 l -1.385061,0.714453 0.845759,-1.531281 c 0.354035,-0.64093 -0.330828,-1.355219 -0.986096,-1.028372 l -1.748379,0.872119 0.811936,-1.818093 c 0.255974,-0.573952 -0.26874,-1.187858 -0.875516,-1.024393 l -2.180335,0.588375 z M 7.4858806,33.394654 0.52916667,39.148676 9.8772613,34.533853 C 8.9921297,34.33773 8.1747216,33.943821 7.4857977,33.394572 Z"
       id="path36"
       style="stroke-width:0.26499999;filter:url(#filter282);fill:#ffffff;fill-opacity:1;stroke:#808080;stroke-opacity:1;stroke-miterlimit:4;stroke-dasharray:none" />
  </g>
</svg>
