<?xml version="1.0" encoding="UTF-8" standalone="no"?>
<!-- Created with Inkscape (http://www.inkscape.org/) -->

<svg
   width="150"
   height="150"
   viewBox="0 0 39.687499 39.687501"
   version="1.1"
   id="svg160"
   inkscape:version="1.3 (0e150ed6c4, 2023-07-21)"
   sodipodi:docname="uixSvgIcon_ability_overheatmultsvg.svg"
   xml:space="preserve"
   xmlns:inkscape="http://www.inkscape.org/namespaces/inkscape"
   xmlns:sodipodi="http://sodipodi.sourceforge.net/DTD/sodipodi-0.dtd"
   xmlns="http://www.w3.org/2000/svg"
   xmlns:svg="http://www.w3.org/2000/svg"><sodipodi:namedview
     id="namedview162"
     pagecolor="#505050"
     bordercolor="#ffffff"
     borderopacity="1"
     inkscape:pageshadow="0"
     inkscape:pageopacity="0"
     inkscape:pagecheckerboard="1"
     inkscape:document-units="px"
     showgrid="false"
     units="px"
     inkscape:zoom="2.8284271"
     inkscape:cx="107.83379"
     inkscape:cy="65.584155"
     inkscape:window-width="1600"
     inkscape:window-height="871"
     inkscape:window-x="-9"
     inkscape:window-y="-9"
     inkscape:window-maximized="1"
     inkscape:current-layer="g1097"
     inkscape:showpageshadow="0"
     inkscape:deskcolor="#505050" /><defs
     id="defs157"><filter
       style="color-interpolation-filters:sRGB;"
       inkscape:label="Invert"
       id="filter2414"
       x="-0.0009765625"
       y="-0.0009765625"
       width="1.0019531"
       height="1.0019531"><feColorMatrix
         type="hueRotate"
         values="180"
         result="color1"
         id="feColorMatrix2410" /><feColorMatrix
         values="-1 0 0 0 1 0 -1 0 0 1 0 0 -1 0 1 -0.21 -0.72 -0.07 2 0 "
         result="color2"
         id="feColorMatrix2412" /></filter><filter
       style="color-interpolation-filters:sRGB;"
       inkscape:label="Invert"
       id="filter1101"
       x="-0.0027158007"
       y="-0.0023654884"
       width="1.0054316"
       height="1.0047277"><feColorMatrix
         values="-1 0 0 0 1 0 -1 0 0 1 0 0 -1 0 1 -0.21 -0.72 -0.07 2 0 "
         result="fbSourceGraphic"
         id="feColorMatrix1099" /><feColorMatrix
         result="fbSourceGraphicAlpha"
         in="fbSourceGraphic"
         values="0 0 0 -1 0 0 0 0 -1 0 0 0 0 -1 0 0 0 0 1 0"
         id="feColorMatrix858" /><feColorMatrix
         id="feColorMatrix860"
         values="-1 0 0 0 1 0 -1 0 0 1 0 0 -1 0 1 -0.21 -0.72 -0.07 2 0 "
         result="color2"
         in="fbSourceGraphic" /></filter></defs><g
     inkscape:label="Layer 1"
     inkscape:groupmode="layer"
     id="layer1"><g
       id="g1097"
       transform="matrix(0.09116527,0,0,0.09158063,-2.3493105,-3.1152374)"
       style="fill:#ffffff;fill-opacity:1;stroke:#000000;stroke-width:3.54286;stroke-miterlimit:4;stroke-dasharray:none;stroke-opacity:1;filter:url(#filter1101)"><g
         style="fill:#ffffff;fill-opacity:1;stroke:#808080;stroke-width:5.04955297;stroke-dasharray:none;stroke-opacity:1"
         id="g2650"
         transform="matrix(0.57475151,0,0,0.57214477,42.34423,49.413952)"><g
           id="g2641"
           style="fill:#ffffff;fill-opacity:1;stroke:#808080;stroke-width:5.04955297;stroke-dasharray:none;stroke-opacity:1">&#10;	<path
   d="m 646.305,443.811 -94.7,-197.5 c -4.5,-10.4 -13.8,-19.6 -24.3,-26.6 -1.1,27.7 -8.1,54.3 -20.8,78.5 1.1,1.1 1.1,2.3 2.3,3.4 l 64.7,136.2 h -442.2 l 64.7,-136.2 c 0,-1.1 1.1,-2.3 1.1,-3.4 -12.6,-23 -20.8,-49.6 -20.8,-78.5 v 0 c -10.4,7 -18.5,16.2 -24.3,26.6 l -94.7,197.5 c -9.2,19.6 -11.5,33.4 -11.5,51.9 v 169.8 23 c 0,8.1 7,15.1 15.1,15.1 h 76.2 c 8.1,0 13.8,-7 13.8,-15.1 v -23 -25.5 h 401.8 v 25.5 23 c 0,8.1 5.8,15.1 13.8,15.1 h 76.2 c 8.1,0 15.1,-7 15.1,-15.1 v -23 -171 c 0,-17.3 -2.3,-32.2 -11.5,-50.7 z m -501.1,138.5 c -26.6,0 -47.4,-21.9 -47.4,-47.4 0,-26.6 20.8,-47.399 47.4,-47.399 26.6,0 47.4,20.8 47.4,47.399 -0.2,26.6 -22.1,47.4 -47.4,47.4 z m 413.2,0 c -26.6,0 -47.399,-21.9 -47.399,-47.4 0,-26.6 20.8,-47.399 47.399,-47.399 26.601,0 47.4,20.8 47.4,47.399 0,26.6 -20.8,47.4 -47.4,47.4 z m -360.2,-369.4 c 0,-48.5 23,-91.1 58.9,-118.9 8.1,-5.8 12.6,0 10.4,3.4 -24.3,57.7 -7,114.3 34.7,125.8 -12.6,-28.9 -17.4,-62.3 -13.8,-95.8 5.8,-49.6 30,-93.6 65.8,-123.6 3.399,-3.4 7,-4.5 9.199,-3.4 2.301,0 4.5,2.3 3.4,5.8 -2.3,9.2 -4.5,19.6 -5.8,30 -4.5,41.5 4.5,82.1 24.3,116.6 28.9,0 41.5,-34.7 45.1,-57.7 0,-5.8 4.5,-9.2 13.801,-2.3 38.1,27.7 62.3,72.8 62.3,123.6 0,84.3 -68.101,153.6 -152.4,153.6 -84.299,0 -155.9,-73 -155.9,-157.1 z"
   id="path2639"
   style="fill:#ffffff;fill-opacity:1;stroke:#808080;stroke-width:5.04955297;stroke-dasharray:none;stroke-opacity:1" />&#10;</g></g></g></g><style
     type="text/css"
     id="style3563">.st0{fill-rule:evenodd;clip-rule:evenodd;}</style></svg>
