<?xml version="1.0" encoding="UTF-8"?>
<svg xmlns="http://www.w3.org/2000/svg" xmlns:xlink="http://www.w3.org/1999/xlink" width="150pt" height="150pt" viewBox="0 0 150 150" version="1.1">
<g id="surface1">
<path style=" stroke:none;fill-rule:nonzero;fill:rgb(0%,0%,0%);fill-opacity:1;" d="M 24 9 C 26.945313 45.023438 64.894531 77.074219 89 100 C 97.46875 108.054688 109.859375 122.515625 120.960938 126.539063 C 127.546875 129 128.203125 117.132813 133.664063 117.050781 C 138.351563 117 145.425781 126 150 128 C 149.246094 118.632813 154.179688 103.722656 141 103 C 141 97.339844 135 94.4375 131 91.210938 L 107 72.425781 C 104.425781 70.414063 99.300781 67.820313 98.191406 64.5625 C 96.835938 60.574219 105.5 52.242188 107.667969 49 C 115.488281 37.289063 124.742188 23.414063 126 9 C 112.628906 14.660156 100.46875 27.777344 89 36.648438 C 85.511719 39.347656 79.675781 46.023438 75 46.023438 C 70.324219 46.023438 64.488281 39.347656 61 36.648438 C 49.546875 27.789063 37.34375 14.648438 24 9 M 26 11 C 37.921875 20.460938 49.898438 30 62 39.117188 C 65.398438 41.710938 71.351563 48.296875 76 47.425781 C 85.507813 45.648438 95.761719 32.148438 104 27 C 102 30.363281 98.222656 32.34375 97 36 C 88.941406 37 82.519531 50.675781 73.996094 49.082031 C 62.8125 47 57.203125 30.765625 45 32 L 45 31 C 46.175781 28.113281 43.402344 27.535156 41 28 C 41.472656 26.585938 41.8125 26.1875 43 25 C 38.519531 23.101563 25.710938 16.332031 26 11 M 125 11 C 119.28125 28.570313 109.445313 52 94 63 C 98 57 105.625 50.425781 107 43 C 110.8125 43 115.292969 31.722656 115 28 C 118.507813 28 117.433594 24.734375 117 22 L 118 22 L 119 24 L 122 15 C 119.28125 17.71875 117.449219 17.796875 118 20 C 112.871094 21 109.597656 24.828125 105 27 C 109.929688 20.574219 117.980469 15 125 11 M 28 16 C 29 17.167969 29.484375 17.316406 31 18 L 31 19 L 29 18 C 31.488281 25.132813 38.453125 44.433594 46 47 C 47.75 53.636719 56.429688 66.011719 63 68 C 62.972656 70.609375 63.433594 71 66 71 C 66.558594 73.414063 66.84375 73.777344 69 75 C 69.238281 77.3125 69.648438 78 72 78 C 72.707031 81.058594 74.945313 82 78 82 C 77.527344 83.414063 77.1875 83.8125 76 85 L 80 86 C 80.34375 88.746094 81.300781 89 84 89 L 83 92 C 85.664063 92 86.949219 94.804688 90 95 C 91.230469 99.382813 95.527344 103.121094 100 104 C 101.21875 108.117188 105.546875 110.640625 109 113 L 108 111 C 109.796875 111 109.519531 111.015625 111 112 L 109 115 L 113 115 C 113.574219 117.339844 114.683594 119 116 121 C 88.421875 102.757813 60.675781 74.46875 42.355469 47 C 37.558594 39.804688 26 25.019531 28 16 M 113 24 L 112 25 L 113 24 M 44 28 L 43 29 L 44 28 M 47 29 C 47.546875 30.636719 47.363281 30.453125 49 31 C 48.453125 29.363281 48.636719 29.546875 47 29 M 100 35 L 99 36 L 100 35 M 62 42 L 61 43 L 62 42 M 86 44 L 85 45 L 86 44 M 85 46 L 84 47 L 85 46 M 105 46 L 104 47 L 105 46 M 82 48 C 81.453125 49.636719 81.636719 49.453125 80 50 C 80.546875 48.363281 80.363281 48.546875 82 48 M 48 53 L 49 54 L 48 53 M 93 63 C 104.5 73 116.96875 82.035156 129 91.351563 C 133.710938 95 140.824219 98.277344 139 105 C 143.40625 104.058594 145.980469 104.582031 149 108 L 145 106 L 146 108 L 145 108 C 143.722656 106.085938 143.722656 107 145 105 C 143.3125 106.199219 143.238281 106.03125 143 108 C 139.824219 106.019531 137.824219 104.515625 140 101 C 135.503906 99 133 96 128 97 L 128 96 C 129.480469 95.015625 129.203125 95 131 95 C 128.472656 92.824219 126.261719 90.789063 123 90 C 123 87 118.503906 85.011719 116 83.167969 C 110.203125 79 99 66.089844 92 67 L 92 66 L 94 65 C 92.191406 64.304688 92 64.457031 93 63 M 9 103 C -4 103.71875 0.640625 118.691406 0 128 C 4.652344 126 11.667969 117 16.484375 117.050781 C 21.847656 117.132813 22.445313 129 29 126.535156 C 35.4375 124.167969 41.863281 116.671875 47 112.269531 C 52 108 57.167969 103.597656 62 99 C 64.394531 96.722656 69.640625 93.519531 70 90 C 70.589844 85.816406 55.9375 68.675781 51.710938 68 C 47.757813 67.140625 42.789063 72.601563 40 74.789063 C 32.363281 80.777344 24.675781 86.707031 17 92.648438 C 13.25 95.554688 8.921875 98 9 103 M 15 112 L 15 111 C 19.957031 113.710938 29 131 33 118 C 39.613281 116.546875 57 103.074219 58 96 L 59 96 L 60 98 C 60.675781 96.136719 61 96.136719 60 95 L 60 94 C 62 94.351563 67 93 68 89 C 67.949219 89.226563 64.71875 85.65625 64 85 C 60.542969 81.828125 55.257813 73.433594 53 74 C 53.9375 69.320313 47 70.222656 48 74 C 40.675781 73.738281 34.738281 84.339844 28 87 C 31.226563 82.792969 46 68 51.699219 69.460938 C 55.40625 70.460938 59.179688 77.195313 61.578125 80 C 63.675781 82.445313 68.847656 86.402344 68.367188 90 C 67.914063 93.410156 63.339844 96.074219 61 98.164063 C 53.410156 105 45.808594 111.714844 38 118.246094 C 35.472656 120.359375 30.972656 125.632813 27.289063 125.082031 C 22.394531 124.351563 18.488281 115.191406 15 112 M 51 69 L 52 70 L 51 69 M 71 75 L 70 76 L 71 75 M 57 78 L 56 79 L 57 78 M 75 83 L 76 84 L 75 83 M 82 86 L 81 87 L 82 86 M 27 87 C 23.222656 92 17.695313 95 14 100 L 16 99 L 16 100 C 13.9375 100 13.90625 100 12 99 L 13 102 C 11.261719 102 11.359375 102 10 103 C 11.195313 96.296875 21.4375 90.476563 27 87 M 86 89 L 85 90 L 86 89 M 125 92 L 124 93 L 125 92 M 52 103 L 53 104 L 52 103 M 10 105 L 10 106 C 6.527344 105.671875 4 106.527344 1 108 C 3.746094 105 5.941406 104.019531 10 105 M 13 104 C 12.453125 105.636719 12.636719 105.453125 11 106 C 11.546875 104.363281 11.363281 104.546875 13 104 M 141 105 L 142 106 L 141 105 M 19 110 L 18 111 L 19 110 M 137 111 C 137.539063 114.558594 139 117 141 120 C 137.484375 117.675781 134.1875 115.085938 137 111 M 133 112 C 130.273438 119.089844 123.746094 130 117 121 C 122.632813 124.265625 126.1875 122.65625 128 116 C 130.664063 116 130.535156 114.511719 131 112 L 133 112 M 14 113 L 15 113 C 12.253906 119 6.503906 123 1 126 C 1.570313 124.488281 1.863281 123.574219 2 122 C 6.46875 121.226563 9.945313 118.417969 11 114 L 14 115 C 12.851563 113.273438 12.445313 113.777344 14 113 M 115 116 L 114 117 L 115 116 M 142 117 L 141 118 L 142 117 M 25 118 L 24 119 L 25 118 M 143 120 C 145.796875 121.761719 148 122.734375 149 126 C 146.304688 124.429688 143.796875 123.082031 143 120 M 147 123 L 148 124 L 147 123 "/>
</g>
</svg>
