<?xml version="1.0" encoding="UTF-8"?>
<svg xmlns="http://www.w3.org/2000/svg" xmlns:xlink="http://www.w3.org/1999/xlink" width="150pt" height="150pt" viewBox="0 0 150 150" version="1.1">
<g id="surface1">
<path style=" stroke:none;fill-rule:nonzero;fill:rgb(0%,0%,0%);fill-opacity:1;" d="M 2 74 L 3 74 C 3 64.199219 5.195313 55.023438 9 46 C 38 -22.550781 146.949219 -1.730469 147 73 C 149.804688 66.3125 147 57.515625 144.78125 51 C 138.238281 32.628906 124.761719 17.132813 107 8.78125 C 59.207031 -13.683594 2 20.71875 2 74 M 39 80 C 34 73.011719 26.515625 67.460938 20 62 C 17.445313 59.730469 12.5 56.636719 12.222656 53 C 11.820313 47.503906 17.507813 40.15625 20.4375 36 C 30 22.328125 57.410156 1.78125 76 8.601563 C 81 10.5 86 16.234375 90 20.015625 C 98.589844 28.394531 109.28125 37 115.890625 47 C 118.902344 51.578125 119 59.644531 123 63 C 119 43.234375 105 31.554688 90.714844 18.484375 C 86.398438 14.570313 81.277344 6.695313 75 6.316406 C 53.8125 5.039063 32 17.6875 19.675781 34 C 16.234375 38.515625 9.925781 47 10.53125 53 C 11.398438 61.71875 31.820313 76 39 80 M 85 7 C 96 29 125.410156 36.570313 126 65 L 127 65 C 126.984375 39.457031 104.492188 25.355469 88 9 C 123 17.125 147 50 141.703125 86 C 139.792969 98.695313 132.515625 108 127 119 L 126 119 L 125 87 L 124 87 C 122.765625 98.234375 124.914063 109.753906 125 121 C 135.816406 115.507813 140.960938 98.140625 142.914063 87 C 149.546875 49.238281 123.308594 12.160156 85 7 M 8 59 C 3 79.625 7.699219 108 25 122 C 28.546875 112.738281 31.230469 103.203125 35 94 C 36.652344 90.007813 39.320313 86 35 83 C 37.730469 94.105469 26 108.339844 25 120 C 10.707031 103.480469 5 82.46875 9 61 C 16.359375 68.207031 24.839844 77.25 34 82 C 27.886719 73.390625 17 64.285156 8 59 M 121 64 C 120.980469 70.65625 117.964844 77.566406 119 84 L 120 84 C 120.296875 77.21875 122.707031 70.796875 123 64 L 121 64 M 126 68 C 125.507813 74.03125 122.703125 80 124 86 L 125 86 C 125 80.179688 128.285156 73.496094 126 68 M 2 77 C 2 152.945313 111 174.863281 142 106 C 146.417969 96.492188 148 87.339844 148 77 L 147 77 C 146.964844 130.453125 85.445313 163.40625 40 137.828125 C 24 129 12 114.230469 6.355469 97 C 4.222656 90.597656 4.535156 83.027344 2 77 M 41 82 C 43.3125 91.425781 33.378906 105.539063 30.882813 115 C 29.988281 118.398438 28 123.214844 30 126.535156 C 33.28125 132 42.398438 135.726563 48 138.128906 C 67.429688 146.449219 106.75 147.136719 120.167969 126.5625 C 125 119.074219 120 100.765625 120 92 C 115.867188 102 124.785156 117.039063 118.398438 125.699219 C 104.21875 145 68.519531 145.480469 49 136.6875 C 43.648438 134.277344 33.730469 130.578125 31.199219 124.824219 C 28 117.824219 37.339844 100.488281 40.308594 94 C 42.253906 89.75 46 85.015625 41 82 M 118 85 L 119 91 L 120 91 C 119.824219 88.386719 119.582031 87.058594 118 85 "/>
</g>
</svg>
