<?xml version="1.0" encoding="UTF-8"?>
<svg xmlns="http://www.w3.org/2000/svg" xmlns:xlink="http://www.w3.org/1999/xlink" width="150pt" height="150pt" viewBox="0 0 150 150" version="1.1">
<g id="surface1">
<path style=" stroke:none;fill-rule:nonzero;fill:rgb(0%,0%,0%);fill-opacity:1;" d="M 76 39 C 83.855469 36 92.238281 34.679688 100 31.546875 C 108.972656 28 116.929688 22.027344 127 22.027344 C 134.734375 22.027344 139.914063 27 147 28 C 135.507813 10.46875 109.199219 27 96 31.25 C 89.863281 33.269531 79.875 33.339844 76 39 M 3 80 C 7.859375 75.820313 8.972656 63.0625 12.605469 57 C 17 49.648438 22.273438 39.148438 28.183594 33.109375 C 31.609375 29.609375 37 29.460938 40 26 C 19.609375 31.289063 6.808594 60.359375 3 80 M 41 26 L 41 27 L 46 27 C 44.230469 26.222656 42.964844 26.089844 41 26 M 47 26 C 48.828125 28.484375 51 29.175781 54 30 C 51.855469 28 49.828125 27 47 26 M 119 29 L 120 29 C 121.542969 27.734375 122 27.511719 124 27 C 122.777344 28.195313 122.578125 28.316406 121 29 L 121 30 C 126.914063 34 118.941406 39.449219 114 34 L 113 34 C 116.796875 45.71875 125.492188 33.214844 128 28 C 124.738281 28.117188 119.714844 23 119 29 M 133 36 L 132 36 C 131.886719 32.476563 131.539063 30.484375 129 28 C 130.59375 33.488281 129 36.640625 128 42 C 135 38 132.539063 28 141 27 C 133.683594 24.019531 133 30.378906 133 36 M 145 26 L 144 27 L 145 26 M 55 30 C 60.867188 42.832031 65 58 80 61 C 76.886719 57.300781 71 58.214844 68 53.8125 C 62.5 46 63.363281 36.460938 55 30 M 108 43 L 106 42 L 106 43 C 108.945313 45.179688 111.398438 45.542969 115 45 L 115 44 C 106.488281 40.65625 107.527344 38 112 32 C 105.304688 33.769531 104.546875 37.398438 108 43 M 92 36 L 92 38 L 96 38 L 96 36 L 92 36 M 100 36 L 100 37 C 101.640625 38.570313 102.75 40.082031 104 42 C 104.542969 38.722656 103 37.039063 100 36 M 132 36 L 131 37 L 132 36 M 74 39 C 73.4375 40.800781 73.175781 42.121094 73 44 C 77.621094 41.246094 81.960938 39.722656 87 38 C 83.167969 35.734375 77.746094 41.8125 74 39 M 88 37 L 88 38 L 91 38 C 89.753906 37.316406 89.453125 37.25 88 37 M 131 38 L 130 39 L 131 38 M 42 55 L 43 55 C 41.589844 49.675781 39.289063 44.035156 46 42 C 37.476563 39.300781 39.875 50.765625 42 55 M 47 42 C 48.257813 46 51.984375 50.039063 50 54 L 50 55 C 55.355469 51.484375 50.386719 45.359375 47 42 M 109 43.332031 C 109.773438 43.332031 109 43.832031 108.667969 43.667969 L 109 43.332031 M 112 44 L 111 45 L 112 44 M 44 54 L 44 55 L 47 55 C 45.753906 54.316406 45.453125 54.25 44 54 M 84 59 C 85.734375 61.003906 87.355469 61 90 61 C 88 60 86.203125 59.46875 84 59 M 92 60 L 92 61 L 95 61 C 93.753906 60.316406 93.453125 60.25 92 60 M 96.5 60.5 C 95.871094 61.128906 96.871094 62.128906 97.5 61.5 C 98 61 97 60 96.5 60.5 M 99 61 L 99 62 C 105.773438 63 112 65.699219 119 66 C 113.433594 63.035156 105.28125 61.511719 99 61 M 137 62 L 137 63 L 142 62 C 140.347656 73 132.71875 75.167969 123 77 C 128.609375 79.285156 137.453125 75.804688 140.773438 70.816406 C 143.878906 66.140625 143.269531 61 137 62 M 130 66 L 136 64 C 133.34375 63.394531 131.710938 64 130 66 M 127.667969 65.332031 C 127.222656 65.777344 128.277344 65.722656 128.332031 65.667969 C 128.777344 65.222656 127.722656 65.277344 127.667969 65.332031 M 40 92 L 40 93 C 54.699219 89.347656 63.214844 73.488281 80 74 C 68.8125 65.410156 48.265625 85.566406 40 92 M 79 71 L 79 72 L 87 72 C 84.386719 71 81.835938 71.007813 79 71 M 88 71 C 88 73.648438 86.460938 73 84 73 L 84 74 L 94 75 L 94 74 L 90 74 C 90.984375 72.519531 91 72.796875 91 71 L 88 71 M 112 73 L 112 74 L 115 74 L 115 75 L 112 75 L 112 76 C 116.34375 75.296875 119.339844 73.054688 124 73 L 124 74 L 121 74 L 121 75 C 124.941406 74.492188 129.488281 74.300781 132 71 C 125.503906 71.277344 118.316406 71.496094 112 73 M 92 72 L 92 73 L 100 73 C 97.386719 72 94.835938 72.007813 92 72 M 100 76 L 105 76 L 105 75 L 103 75 L 103 74 L 109 74 C 105.464844 71.367188 102.1875 72.253906 100 76 M 73 73 L 72 74 L 73 73 M 70 74 L 69 75 L 70 74 M 95 74 L 95 75 L 98 75 C 96.753906 74.316406 96.453125 74.25 95 74 M 118.667969 74.332031 C 118.222656 74.777344 119.277344 74.722656 119.332031 74.667969 C 119.777344 74.222656 118.722656 74.277344 118.667969 74.332031 M 95 77 L 95 79 L 112 79 L 112 77 L 95 77 M 114 77 L 114 79 C 116.851563 79 119.269531 78.808594 122 78 C 119.386719 77 116.835938 77.007813 114 77 M 47 95 L 47 96 C 62.753906 94 73.386719 82.027344 89 79 C 76.738281 74.605469 58.9375 92 47 95 M 90.667969 78.332031 C 90.222656 78.777344 91.277344 78.722656 91.332031 78.667969 C 91.777344 78.222656 90.722656 78.277344 90.667969 78.332031 M 3 81 C 3 95.636719 5.839844 107.625 14 120 L 15 120 C 12.386719 112.816406 7.917969 106.476563 5.925781 99 C 4.386719 93.238281 5.25 86.359375 3 81 M 15 121 C 16.515625 124 20.414063 130 24.273438 126.378906 C 27.367188 123.542969 27.492188 116.820313 28.75 113 C 31.355469 105.078125 35.539063 99.710938 43 96 C 32.914063 93.140625 28 110.125 26 117 C 25.539063 119.242188 25 126 21.859375 126.066406 C 19.265625 126.199219 17 122.199219 15 121 M 44.667969 95.332031 C 44.222656 95.777344 45.277344 95.722656 45.332031 95.667969 C 45.777344 95.222656 44.722656 95.277344 44.667969 95.332031 "/>
</g>
</svg>
