<?xml version="1.0" encoding="UTF-8"?>
<svg xmlns="http://www.w3.org/2000/svg" xmlns:xlink="http://www.w3.org/1999/xlink" width="150pt" height="150pt" viewBox="0 0 150 150" version="1.1">
<g id="surface1">
<path style=" stroke:none;fill-rule:nonzero;fill:rgb(0%,0%,0%);fill-opacity:1;" d="M 71 13 C 73.230469 12.210938 74.644531 12 77 12 C 74.339844 10.222656 73.21875 10.785156 71 13 M 78 12 C 78.546875 13.636719 78.363281 13.453125 80 14 C 79.453125 12.363281 79.636719 12.546875 78 12 M 68 15 C 69.636719 14.453125 69.453125 14.636719 70 13 C 68.363281 13.546875 68.546875 13.363281 68 15 M 81 14 C 81.546875 15.636719 81.363281 15.453125 83 16 C 82.453125 14.363281 82.636719 14.546875 81 14 M 66 15 L 63 17 L 63 18 L 67 16 L 66 15 M 84 16 L 85 17 L 84 16 M 86 17 L 87 18 L 86 17 M 61 18 L 62 19 L 61 18 M 88 18 C 89.222656 19.195313 89.421875 19.316406 91 20 C 89.859375 19 89.386719 18.691406 88 18 M 59 19 L 60 20 L 59 19 M 54 21 L 54 22 L 58 21 C 56.339844 20.59375 55.757813 20.691406 54 21 M 73 22 C 74.636719 21.453125 74.453125 21.636719 75 20 C 73.363281 20.546875 73.546875 20.363281 73 22 M 92 20 L 93 21 L 92 20 M 76 21 C 76.546875 22.636719 76.363281 22.453125 78 23 C 77.453125 21.363281 77.636719 21.546875 76 21 M 94 21 L 94 22 L 98 23 C 96.542969 22 95.753906 21.5625 94 21 M 51.667969 22.332031 C 51.222656 22.777344 52.277344 22.722656 52.332031 22.667969 C 52.777344 22.222656 51.722656 22.277344 51.667969 22.332031 M 70 24 C 71.636719 23.453125 71.453125 23.636719 72 22 C 70.363281 22.546875 70.546875 22.363281 70 24 M 45 24 L 45 25 L 50 24 C 48 23.53125 46.929688 23.699219 45 24 M 79 23 L 79 24 L 83 26 L 83 25 L 79 23 M 99.667969 23.332031 C 99.222656 23.777344 100.277344 23.722656 100.332031 23.667969 C 100.777344 23.222656 99.722656 23.277344 99.667969 23.332031 M 68 24 L 62 27 L 62 28 C 64.566406 27.261719 66.671875 26.316406 69 25 L 68 24 M 102.667969 24.332031 C 102.222656 24.777344 103.277344 24.722656 103.332031 24.667969 C 103.777344 24.222656 102.722656 24.277344 102.667969 24.332031 M 42.667969 25.332031 C 42.222656 25.777344 43.277344 25.722656 43.332031 25.667969 C 43.777344 25.222656 42.722656 25.277344 42.667969 25.332031 M 105 25 L 105 26 L 108 26 C 106.753906 25.316406 106.453125 25.25 105 25 M 37 26 L 37 27 L 40 27 C 38.753906 26.316406 38.453125 26.25 37 26 M 84 26 L 85 27 L 84 26 M 109 26 L 109 27 L 112 27 C 110.753906 26.316406 110.453125 26.25 109 26 M 31 27 L 31 28 L 34 28 C 32.753906 27.316406 32.453125 27.25 31 27 M 86 27 L 86 28 L 92 30 C 90 28.425781 88.410156 27.710938 86 27 M 113 27 L 113 28 L 117 28 C 115.492188 27.316406 114.683594 27.175781 113 27 M 25 28 L 25 29 L 30 29 C 28.230469 28.222656 26.964844 28.089844 25 28 M 60 28 L 61 29 L 60 28 M 119 28 L 119 29 L 123 29 C 121.492188 28.316406 120.683594 28.175781 119 28 M 15 29 C 14.4375 30.800781 14.175781 32.121094 14 34 L 15 34 C 15 32.214844 15.285156 30.742188 15 29 M 17 29 L 18 30 L 17 29 M 19 29 L 20 30 L 19 29 M 52 31 L 52 32 L 59 30 C 56.46875 29.464844 54.488281 30.21875 52 31 M 125 29 L 125 30 L 133 30 C 130.386719 29 127.835938 29.007813 125 29 M 93.667969 30.332031 C 93.222656 30.777344 94.277344 30.722656 94.332031 30.667969 C 94.777344 30.222656 93.722656 30.277344 93.667969 30.332031 M 134 30 C 135.40625 36 135 42 135 48 L 136 48 C 136 42.394531 137.496094 34.617188 134 30 M 96.667969 31.332031 C 96.222656 31.777344 97.277344 31.722656 97.332031 31.667969 C 97.777344 31.222656 96.722656 31.277344 96.667969 31.332031 M 48 32 L 48 33 L 51 33 C 49.753906 32.316406 49.453125 32.25 48 32 M 99.667969 32.332031 C 99.222656 32.777344 100.277344 32.722656 100.332031 32.667969 C 100.777344 32.222656 99.722656 32.277344 99.667969 32.332031 M 45.667969 33.332031 C 45.222656 33.777344 46.277344 33.722656 46.332031 33.667969 C 46.777344 33.222656 45.722656 33.277344 45.667969 33.332031 M 102 33 L 102 34 L 105 34 C 103.753906 33.316406 103.453125 33.25 102 33 M 40 34 L 40 35 L 43 35 C 41.753906 34.316406 41.453125 34.25 40 34 M 106 34 L 106 35 L 109 35 C 107.753906 34.316406 107.453125 34.25 106 34 M 35 35 L 35 36 L 39 36 C 37.492188 35.316406 36.683594 35.175781 35 35 M 111 35 L 111 36 L 114 36 C 112.753906 35.316406 112.453125 35.25 111 35 M 29 36 L 29 37 L 33 37 C 31.492188 36.316406 30.683594 36.175781 29 36 M 116 36 L 116 37 L 120 37 C 118.492188 36.316406 117.683594 36.175781 116 36 M 22 52 L 23 52 C 23 47.007813 21.328125 40 27 38 C 19.800781 35.179688 22 47.796875 22 52 M 122 37 L 122 38 C 127.226563 39 126.984375 42.34375 127 47 C 129.175781 41.8125 127.867188 37.457031 122 37 M 14 45 L 14 53 L 15 53 C 14.992188 50.164063 15 47.613281 14 45 M 126 50 L 126 56 L 127 56 C 126.953125 53.746094 126.875 52.050781 126 50 M 134 51 L 134 57 L 135 57 C 134.953125 54.746094 134.875 53.050781 134 51 M 15 55 L 15 61 L 16 61 C 15.953125 58.746094 15.875 57.050781 15 55 M 23 55 L 23 60 L 24 60 C 23.910156 58.035156 23.777344 56.769531 23 55 M 125 59 L 125 62 L 126 62 C 125.75 60.546875 125.683594 60.246094 125 59 M 133 60 L 133 63 L 134 63 C 133.75 61.546875 133.683594 61.246094 133 60 M 24 61 L 24 65 L 25 65 C 24.824219 63.316406 24.683594 62.507813 24 61 M 16 62 L 16 66 L 17 66 C 16.824219 64.316406 16.683594 63.507813 16 62 M 124 64 L 124 67 L 125 67 C 124.75 65.546875 124.683594 65.246094 124 64 M 132 65 L 132 68 L 133 68 C 132.75 66.546875 132.683594 66.246094 132 65 M 25 66 L 25 69 L 26 69 C 25.75 67.546875 25.683594 67.246094 25 66 M 17 67 L 17 70 L 18 70 C 17.75 68.546875 17.683594 68.246094 17 67 M 123 68 L 123 71 L 124 71 C 123.75 69.546875 123.683594 69.246094 123 68 M 26.332031 70.667969 C 26.277344 70.722656 26.222656 71.777344 26.667969 71.332031 C 26.722656 71.277344 26.777344 70.222656 26.332031 70.667969 M 131.332031 70.667969 C 131.277344 70.722656 131.222656 71.777344 131.667969 71.332031 C 131.722656 71.277344 131.777344 70.222656 131.332031 70.667969 M 18.332031 72.667969 C 18.277344 72.722656 18.222656 73.777344 18.667969 73.332031 C 18.722656 73.277344 18.777344 72.222656 18.332031 72.667969 M 122.332031 72.667969 C 122.277344 72.722656 122.222656 73.777344 122.667969 73.332031 C 122.722656 73.277344 122.777344 72.222656 122.332031 72.667969 M 27 73 L 27 76 L 28 76 C 27.75 74.546875 27.683594 74.246094 27 73 M 130 73 L 130 76 L 131 76 C 130.75 74.546875 130.683594 74.246094 130 73 M 19 75 L 19 78 L 20 78 C 19.75 76.546875 19.683594 76.246094 19 75 M 121.332031 75.667969 C 121.277344 75.722656 121.222656 76.777344 121.667969 76.332031 C 121.722656 76.277344 121.777344 75.222656 121.332031 75.667969 M 28 77 L 29 81 L 30 81 C 29.4375 79.246094 29 78.457031 28 77 M 129.332031 77.667969 C 129.277344 77.722656 129.222656 78.777344 129.667969 78.332031 C 129.722656 78.277344 129.777344 77.222656 129.332031 77.667969 M 120.332031 78.667969 C 120.277344 78.722656 120.222656 79.777344 120.667969 79.332031 C 120.722656 79.277344 120.777344 78.222656 120.332031 78.667969 M 20.332031 79.667969 C 20.277344 79.722656 20.222656 80.777344 20.667969 80.332031 C 20.722656 80.277344 20.777344 79.222656 20.332031 79.667969 M 128.332031 80.667969 C 128.277344 80.722656 128.222656 81.777344 128.667969 81.332031 C 128.722656 81.277344 128.777344 80.222656 128.332031 80.667969 M 119 81 L 120 82 L 119 81 M 21 82 L 22 83 L 21 82 M 30 82 L 32 88 L 33 88 C 32.289063 85.589844 31.574219 84 30 82 M 118 83 L 117 87 L 118 87 C 118.308594 85.242188 118.40625 84.660156 118 83 M 127.332031 83.667969 C 127.277344 83.722656 127.222656 84.777344 127.667969 84.332031 C 127.722656 84.277344 127.777344 83.222656 127.332031 83.667969 M 22.332031 84.667969 C 22.277344 84.722656 22.222656 85.777344 22.667969 85.332031 C 22.722656 85.277344 22.777344 84.222656 22.332031 84.667969 M 126 86 L 125 90 L 126 90 C 126.308594 88.242188 126.40625 87.660156 126 86 M 23 87 L 24 91 L 25 91 C 24.4375 89.246094 24 88.457031 23 87 M 116 88 L 117 89 L 116 88 M 33 89 L 34 90 L 33 89 M 115 90 L 116 91 L 115 90 M 34 91 L 35 92 L 34 91 M 124 91 L 125 92 L 124 91 M 25 92 L 26 93 L 25 92 M 114 92 L 115 93 L 114 92 M 35 93 L 37 97 L 38 97 C 37 95.234375 36.433594 94.394531 35 93 M 123 93 L 124 94 L 123 93 M 26 94 L 27 95 L 26 94 M 113 94 L 111 98 L 112 98 C 112.800781 96.261719 113 95.804688 113 94 M 122 95 L 123 96 L 122 95 M 27 96 L 28 97 L 27 96 M 121 97 L 122 98 L 121 97 M 28 98 L 29 99 L 28 98 M 38 98 L 40 102 L 41 102 C 40 100.234375 39.433594 99.394531 38 98 M 109 101 C 110.636719 100.453125 110.453125 100.636719 111 99 C 109.363281 99.546875 109.546875 99.363281 109 101 M 120 99 L 121 100 L 120 99 M 29 100 L 30 101 L 29 100 M 119 101 L 117 105 L 118 105 C 118.800781 103.261719 119 102.804688 119 101 M 30 102 C 30.546875 103.636719 30.363281 103.453125 32 104 C 31.453125 102.363281 31.636719 102.546875 30 102 M 107 104 C 108.636719 103.453125 108.453125 103.636719 109 102 C 107.363281 102.546875 107.546875 102.363281 107 104 M 41 103 C 42 104.457031 42.542969 105 44 106 C 42.898438 104.542969 42.457031 104.101563 41 103 M 32 105 C 33 107.21875 34 108.394531 36 110 C 34.792969 108 33.753906 106.589844 32 105 M 106 105 C 104.8125 106.1875 104.472656 106.585938 104 108 C 105.546875 106.738281 105.808594 106.804688 106 105 M 115 108 C 116.636719 107.453125 116.453125 107.636719 117 106 C 115.363281 106.546875 115.546875 106.363281 115 108 M 44 107 C 45.328125 108.753906 46.246094 109.671875 48 111 C 46.671875 109.246094 45.753906 108.328125 44 107 M 103 109 C 101 111 99.53125 112.792969 98 115 C 100.40625 113.261719 102.304688 112 103 109 M 113 111 C 114.636719 110.453125 114.453125 110.636719 115 109 C 113.363281 109.546875 113.546875 109.363281 113 111 M 36 111 C 36.546875 112.636719 36.363281 112.453125 38 113 C 37.453125 111.363281 37.636719 111.546875 36 111 M 48 112 C 50.789063 116 54 119.210938 58 122 C 55.210938 118.039063 51.960938 114.789063 48 112 M 112 112 L 109 116 C 110.757813 114.621094 111.539063 114.105469 112 112 M 38 114 C 39.550781 116.136719 40.863281 117.449219 43 119 C 41.449219 117 40 115.550781 38 114 M 108 117 C 103.824219 121.175781 99.40625 125.164063 96 130 C 100.300781 127 106.726563 122.246094 108 117 M 93 119 L 90 123 C 91.757813 121.621094 92.539063 121.105469 93 119 M 44 121 C 45.550781 123.136719 46.863281 124.449219 49 126 C 47.449219 124 46 122.550781 44 121 M 59 122 C 61.3125 124.792969 63.726563 126.441406 67 128 L 67 127 L 59 122 M 87 124 L 84 126 L 84 127 L 88 125 L 87 124 M 51 127 C 53.277344 130.085938 55.683594 132.078125 59 134 C 56.679688 131.128906 54 129.039063 51 127 M 82 127 L 76 130 L 76 131 C 78.566406 130.261719 80.671875 129.316406 83 128 L 82 127 M 68 128 L 69 129 L 68 128 M 70 129 L 71 130 L 70 129 M 72 130 L 72 131 L 75 132 C 73.777344 130.804688 73.578125 130.683594 72 130 M 94 130 C 92.8125 131.1875 92.472656 131.585938 92 133 C 93.546875 131.738281 93.808594 131.804688 94 130 M 89 135 C 90.636719 134.453125 90.453125 134.636719 91 133 C 89.363281 133.546875 89.546875 133.363281 89 135 M 60 134 C 60.546875 135.636719 60.363281 135.453125 62 136 C 61.453125 134.363281 61.636719 134.546875 60 134 M 86 137 C 87.636719 136.453125 87.453125 136.636719 88 135 C 86.363281 135.546875 86.546875 135.363281 86 137 M 63 136 L 63 137 L 67 139 L 67 138 L 63 136 M 84 137 L 85 138 L 84 137 M 82 138 L 76 141 L 76 142 C 78.566406 141.261719 80.671875 140.316406 83 139 L 82 138 M 68 139 L 69 140 L 68 139 M 70 140 L 71 141 L 70 140 M 72 141 L 72 142 L 75 143 C 73.777344 141.804688 73.578125 141.683594 72 141 "/>
</g>
</svg>
