<?xml version="1.0" encoding="UTF-8"?>
<svg xmlns="http://www.w3.org/2000/svg" xmlns:xlink="http://www.w3.org/1999/xlink" width="150pt" height="150pt" viewBox="0 0 150 150" version="1.1">
<g id="surface1">
<path style=" stroke:none;fill-rule:nonzero;fill:rgb(0%,0%,0%);fill-opacity:1;" d="M 62 6 C 67.96875 5.828125 73.960938 2.742188 79.980469 4.316406 C 89.328125 6.765625 83.710938 17.289063 79 21 C 82.457031 23.355469 87 23.722656 88 19 C 95.257813 17.789063 93.46875 8.355469 88.699219 4.601563 C 83.695313 0.652344 66.230469 1.679688 62 6 M 48 17 C 53.679688 16.816406 56.734375 14.578125 60 10 C 54.320313 10.183594 51.265625 12.421875 48 17 M 60 17 C 62.515625 20.277344 65.191406 22.386719 69 24 C 62 30 67.175781 41.664063 57 42 L 57 43 C 75.265625 43.066406 50.472656 54.542969 66 60 L 66 61 C 53.808594 61.042969 62 64 63.683594 69.148438 C 64.589844 72.242188 62 81.585938 66.257813 82.621094 C 70.5625 83.6875 69.363281 77.789063 71.601563 76.027344 C 74.242188 74 79.765625 75 83 74 C 83 80.625 85.902344 86.789063 83.875 93 C 81.679688 99.734375 82.386719 110 83 117 C 83.300781 119.480469 86.382813 123 88.398438 119.394531 C 90.261719 116.183594 89 109.613281 89 106 C 89 100 91 94.761719 91.558594 89 C 91.839844 85.03125 89 81.15625 89 77 C 88.902344 71.425781 87 63.160156 94 62 L 94 61 L 86 61 L 86 60 C 88.890625 59.195313 90 58.324219 92 56 C 75.550781 56.519531 84.828125 73.824219 70 74 L 70 73 L 73 73 C 72 69.246094 73 64 71.398438 60.546875 C 69.921875 57.617188 66.296875 57 66.296875 53.054688 C 66.296875 49.292969 69.972656 50 71.398438 47.402344 C 73.464844 43.6875 73 30.71875 70 28 L 70 27 C 87.792969 23.558594 73.945313 41 81 48 C 84.457031 51.402344 86.179688 44.632813 88.316406 43.601563 C 90.320313 42.636719 93.304688 43.632813 94.972656 42 C 96.601563 40.347656 96 37.027344 97 35 C 98.910156 31.257813 102.589844 28.421875 105 25 C 98.984375 25.195313 93.839844 28.46875 91 34 C 90 35.710938 90.414063 39.679688 88.546875 40.652344 C 84.445313 42.792969 87 27.765625 88 26 C 83.703125 23.707031 79.5625 25.054688 75.21875 23.488281 C 69 21.265625 67.722656 17.027344 60 17 M 33 35 C 27.707031 31.214844 31.628906 22 27.414063 19.621094 C 21.738281 16.480469 22 31 23.601563 33.398438 C 25 36 30.503906 35 33 35 M 46 20.03125 C 43.40625 22.648438 45 38 49.976563 33 C 52.59375 30.351563 50.960938 15.09375 46 20.03125 M 118 83 C 136.734375 82.390625 125.484375 51.800781 125 41.003906 C 124.902344 36.382813 128.601563 35.679688 129.683594 32 C 130.457031 29.117188 131.40625 19.296875 127 19.296875 C 121.945313 19.296875 124.878906 29.488281 122.992188 32.453125 C 113.878906 46.789063 128.257813 66.695313 118 83 M 50 35 C 33.839844 35.523438 34.402344 58.667969 38.714844 70 C 39.679688 72.535156 39 85.34375 44.414063 82.378906 C 49 79.777344 44.496094 69.382813 43.546875 66 C 40.277344 54.398438 43.578125 44.160156 50 35 M 106 38 C 108.652344 41.1875 110.898438 42 115 42 C 112.347656 38.8125 110 38.132813 106 38 M 25 49 C 28.523438 49 30.515625 48.539063 33 46 C 29.476563 46.113281 27.484375 46.460938 25 49 M 48 67.03125 C 43.976563 71.078125 47.460938 85.496094 49 90 C 49.851563 92 51.480469 98.511719 54.976563 95 C 56.480469 93.441406 55.710938 90.730469 55 89 C 52.796875 82.164063 54.855469 75 52.683594 68.316406 C 52 66.429688 49.578125 65.476563 48 67.03125 M 26 79 C 28.652344 82.1875 30.898438 83 35 83 C 32.347656 79.8125 30 79.132813 26 79 M 62 87.03125 C 59.757813 89.394531 62.777344 93.597656 63.453125 96 C 65.234375 102.3125 63.441406 109.472656 64 116 C 64.277344 118.242188 66.449219 121.492188 68.976563 119 C 72.589844 115.355469 70.417969 97.367188 68.714844 93 C 67.929688 91 65.589844 83.328125 62 87.03125 M 97 89 C 100.523438 89 102.515625 88.539063 105 86 C 101.476563 86.113281 99.484375 86.460938 97 89 M 97 96 C 102.660156 105 102.660156 116 97 125 C 111.585938 124.527344 111.585938 96.472656 97 96 M 69 121 C 56.550781 121.402344 60.921875 133.453125 69 121 M 48 123 C 49 126.171875 49 127.828125 48 131 C 56.96875 130.707031 56.96875 123.292969 48 123 M 87 125 L 87 126 L 93 126 C 90.949219 125.125 89.253906 125.046875 87 125 M 60 129 C 63.902344 135.171875 65.957031 140.738281 74 141 C 70 134.828125 68 129.261719 60 129 M 128 129 L 128 130 L 134 130 C 131.949219 129.125 130.253906 129.046875 128 129 M 48.171875 133 C 46.683594 134.371094 50.765625 135.179688 51.828125 134.117188 C 53.316406 132.628906 49.234375 131.820313 48.171875 133 M 84.171875 134 C 82.683594 135.371094 86.765625 136.179688 87.828125 135.117188 C 89.316406 133.628906 85.234375 132.820313 84.171875 134 M 100 135 C 101.277344 137.03125 104 140.0625 103.25 142.683594 C 101.886719 147.308594 84.355469 147.125 85 140 C 82.472656 140.082031 74.210938 143.636719 80.320313 145.683594 C 86.667969 147.808594 100.265625 147.066406 106.851563 146 C 115.558594 144.246094 105 135.164063 100 135 M 128 139 L 128 140 L 134 140 C 131.949219 139.125 130.253906 139.046875 128 139 M 43 145 L 43 146 L 74 146 C 65.632813 142.488281 52 145 43 145 "/>
</g>
</svg>
