<?xml version="1.0" encoding="UTF-8"?>
<svg xmlns="http://www.w3.org/2000/svg" xmlns:xlink="http://www.w3.org/1999/xlink" width="150pt" height="150pt" viewBox="0 0 150 150" version="1.1">
<g id="surface1">
<path style=" stroke:none;fill-rule:nonzero;fill:rgb(0%,0%,0%);fill-opacity:1;" d="M 75 5.636719 C 69.457031 7.230469 65.503906 12.132813 60 13.570313 C 53.863281 15.171875 47.921875 13.195313 42 16.417969 C 37.550781 19 34.5625 23.199219 30 25.429688 C 23 29 15.703125 29.027344 10.851563 36.015625 C 3.519531 46.574219 4 64.636719 4 77 C 3.996094 86.265625 1.476563 99.441406 8.339844 106.8125 C 18 117.1875 36.742188 108.730469 48.683594 114.601563 C 52.273438 116.371094 51.789063 124.550781 55 127.816406 C 64.867188 137.417969 89.566406 147 103 143 C 115.632813 139.25 138.40625 131.613281 144.425781 119 C 151 105.011719 141 87.710938 138.460938 74 C 134.976563 55.523438 139.957031 23.289063 120 12.417969 C 112.859375 8.527344 105.429688 11.46875 98 9.691406 C 90 7.777344 83.671875 3.144531 75 5.636719 M 129 46 L 130 46 L 131 39 L 132 39 C 137.246094 57.675781 131 76.199219 131 95 L 132 95 C 132.234375 89.582031 133 84.082031 135 79 C 143.292969 92.179688 149.175781 116 134 126 C 123.429688 133 91 151.726563 86 133 C 83.679688 137.207031 78.945313 138.171875 76.601563 132.785156 C 74.996094 129.09375 76.945313 124.707031 74.972656 121.054688 C 72.828125 117.085938 63.523438 112.285156 59.429688 115.617188 C 57 117.585938 56.578125 121.421875 55 124 C 50.214844 110.445313 62.191406 113.386719 71 113 C 76.238281 112.707031 80.875 109.515625 86 109.394531 C 93.679688 109.210938 100.949219 112.566406 109 112 C 115.472656 111.375 120.609375 105.804688 127 107 C 121 96.121094 129 72.617188 130 60 L 129 60 C 128.230469 61.3125 128.3125 61.230469 127 62 L 126 57 L 125 57 C 127 68.480469 126.691406 99.519531 115.8125 107 C 109.363281 111.417969 97.925781 109 91 107 L 91 106 C 95.378906 106.554688 99.578125 107 104 107 L 104 106 C 99.507813 106 91.789063 106 89 101.605469 C 86.699219 98.007813 88.804688 92 89 88 C 89.640625 75 91 62.117188 91 49 L 90 49 C 89 61.359375 87 73.664063 86 86.039063 C 85.691406 91.742188 86.589844 98.746094 82.992188 103.671875 C 78.699219 109.542969 61.535156 114.765625 57.601563 105.785156 C 55.992188 102.109375 57.179688 97 56.714844 93 C 55.242188 80.496094 54 60.171875 57 48 L 56 48 C 52.902344 61 54 74.757813 54 88 C 54 93.671875 55.464844 102 52 107 C 47.554688 113.738281 32.984375 111.804688 30.417969 104 C 25.296875 88.132813 30 68.238281 30 52 L 29 52 C 27.964844 65.121094 27 77.796875 27 91 C 26.996094 95.1875 27.925781 103 25 106.398438 C 20 112.152344 10 105.027344 8.265625 100 C 2.964844 85.726563 10.394531 74 11 60 L 10 60 C 9.746094 63 9 65.289063 8 68 L 7 68 C 7.265625 55.152344 12.972656 18 34 33 C 34.632813 26.824219 37.84375 20.257813 44 18 C 49.605469 15.742188 60.835938 16.027344 62 23 C 67 12.164063 76.355469 4.46875 89 9.132813 C 92 10.289063 95 14.683594 98 15.148438 C 101.765625 15.714844 105.628906 11.726563 110 12.339844 C 128 15 129 31.351563 129 46 M 84 10 L 84 11 C 91 15.804688 92.476563 20 94 28 C 96.683594 20.519531 91.613281 11.539063 84 10 M 52 20 C 54.328125 23.777344 56.589844 29.292969 60 32 C 58.753906 26.757813 57 22.460938 52 20 M 126 76 L 125 77 L 126 76 M 39 108 L 39 109 C 43.289063 109 47.429688 108.75 50 105 C 46.359375 106.164063 42.746094 107.226563 39 108 M 62 116 C 70.488281 114.109375 79.78125 130 71.566406 132 C 62.792969 134.117188 50.582031 118.4375 62 116 M 97 124 C 97.941406 129.714844 96.730469 134.546875 95 140 L 96 140 C 98.742188 135.101563 100.671875 129 97 124 M 112 134 L 128 128 C 122.410156 125.824219 115.613281 129.785156 112 134 "/>
</g>
</svg>
