<?xml version="1.0" encoding="UTF-8"?>
<svg xmlns="http://www.w3.org/2000/svg" xmlns:xlink="http://www.w3.org/1999/xlink" width="150pt" height="150pt" viewBox="0 0 150 150" version="1.1">
<g id="surface1">
<path style=" stroke:none;fill-rule:nonzero;fill:rgb(0%,0%,0%);fill-opacity:1;" d="M 139.996094 4.550781 C 135.410156 5.417969 131.214844 8.261719 127 10.140625 C 115.992188 15.046875 98.382813 20.167969 92.753906 32 C 89.847656 38.101563 105.964844 50.148438 110 54 C 111.84375 55.734375 114 58.367188 117 57.652344 C 130.644531 54.253906 138 28.097656 143.21875 17 C 145.261719 12.621094 148.511719 3 139.996094 4.550781 M 140.941406 5.539063 C 148.171875 5.058594 142.613281 15.191406 141.257813 18 C 136.242188 28.40625 132.726563 41.335938 124.894531 50 C 122.867188 52.242188 119.574219 56.628906 116.285156 57 C 110.976563 57.296875 100.550781 43.605469 97 40 C 95.195313 38.078125 92.835938 36 93.921875 33 C 98.476563 21.035156 118.429688 15.1875 129 10.574219 C 132.652344 9 136.898438 5.808594 140.941406 5.539063 M 136 13 C 132.257813 12 129.25 14.34375 126 16.140625 C 118.976563 20.023438 104.539063 24.539063 100.753906 32.039063 C 99.234375 35.046875 101.714844 38.246094 105 37.117188 C 108.613281 36 112 32 115 29.601563 C 117.6875 27.449219 120.34375 25.269531 123 23.085938 C 127.230469 19.601563 131.597656 16.261719 136 13 M 129 16 L 129 17 C 122.503906 21.816406 116 27 110 32.152344 C 108.328125 33.578125 105 37.316406 102.464844 35.824219 C 99.3125 34 104.640625 29.640625 106 28.636719 C 112.792969 23.644531 121.378906 19.558594 129 16 M 70 38.742188 C 64.527344 41 60.863281 46.78125 56.699219 50.664063 C 46.441406 60.238281 32 71.023438 24.742188 83 C 22.660156 86.375 23.945313 90.746094 21.511719 94 C 17.566406 99 5.960938 95.3125 4.921875 104.003906 C 4.453125 108 9.597656 111.59375 12 114 C 19.972656 122 28 129.832031 36.300781 137.515625 C 38.78125 139.820313 43 146.308594 47 144.824219 C 55 141.816406 50.953125 132.773438 56.230469 128.488281 C 59.539063 125.804688 64.378906 127.195313 68 124.566406 C 79.742188 116.039063 89.738281 103.261719 100 93 C 104.351563 88.648438 110.515625 84.144531 112.277344 78 C 117.851563 58.558594 89.515625 31.285156 70 38.742188 M 72 39.433594 C 91 34.234375 114.636719 59.53125 110.722656 78 C 109.375 84.335938 101.402344 89.664063 96.996094 94.015625 C 87.25 103.636719 77.984375 115.496094 67 123.679688 C 63.578125 126.230469 59.371094 125 56 127.40625 C 50.960938 131.113281 53.21875 142.402344 45.996094 143.367188 C 42.5 144 39 139.148438 37 137 L 14 114 C 11.671875 111.671875 6 107.789063 6.632813 104.003906 C 7.597656 96.78125 18.886719 99.039063 22.59375 94 C 24.804688 91 23.652344 87.144531 25.605469 84 C 33.214844 71.761719 47.8125 61.1875 58 51 C 61.976563 47.023438 66.351563 41 72 39.433594 M 76.996094 48.136719 C 72 50.085938 67.691406 56.308594 64 60 C 54.910156 69.089844 42.472656 78.285156 35.378906 89 C 32.761719 93 37 100.011719 42 99.367188 C 46 98.832031 50.273438 92.726563 53 90 C 62.355469 80.644531 79.503906 69 85 57 C 87 52.632813 81.613281 46.320313 76.996094 48.136719 M 78 49.753906 C 82.757813 48.730469 85.574219 54.265625 83.378906 58 C 76.832031 69.125 63 79 54 88 C 50.976563 91.023438 46.585938 97.324219 42 97.824219 C 35.863281 98.492188 34.726563 92 37.652344 88.039063 C 45.515625 77.796875 56.867188 69.132813 66 60 C 69.167969 56.832031 73.390625 50.738281 78 49.753906 M 20 105.34375 C 12.953125 107.230469 21.433594 116.65625 25.9375 115.742188 C 32.9375 114.324219 24.660156 104.121094 20 105.34375 M 21 106.632813 C 23.773438 107.039063 29.839844 114.792969 24.832031 114.792969 C 20.855469 114.792969 15.933594 106 21 106.632813 "/>
</g>
</svg>
