<?xml version="1.0" encoding="UTF-8"?>
<svg xmlns="http://www.w3.org/2000/svg" xmlns:xlink="http://www.w3.org/1999/xlink" width="150pt" height="150pt" viewBox="0 0 150 150" version="1.1">
<g id="surface1">
<path style=" stroke:none;fill-rule:nonzero;fill:rgb(0%,0%,0%);fill-opacity:1;" d="M 74 2 C 71.453125 4.167969 70 6 69 9 L 70 9 C 71.644531 7 74 4.710938 74 2 M 76.667969 2.332031 C 76.222656 2.777344 77.277344 2.722656 77.332031 2.667969 C 77.777344 2.222656 76.722656 2.277344 76.667969 2.332031 M 80 2 L 80 3 C 83.449219 4.023438 85.652344 5.269531 88 8 L 86 7 C 86.691406 9.226563 89.316406 12.210938 88 14 C 88.746094 15.824219 88.953125 17.023438 89 19 C 94.695313 12.402344 87.328125 2.816406 80 2 M 83 9 C 84.3125 8.230469 84.230469 8.3125 85 7 C 83.363281 7.546875 83.546875 7.363281 83 9 M 89 8 L 88 9 L 89 8 M 81 9 C 79.3125 12.011719 78.351563 14.5625 78 18 L 79 18 C 79.710938 15 81 12.054688 81 9 M 136 10 L 136 11 L 138 12 C 135.378906 13.722656 131.683594 14.578125 133 18 L 126 18 L 126 19 L 128 19 L 128 20 L 125 20 L 125 21 L 132 20 L 132 21 C 129 22.046875 126.617188 23.414063 124 25 C 128.519531 27.425781 139.855469 19.09375 145 17 C 143.421875 14.710938 141.652344 12.710938 141 10 L 136 10 M 94 11 L 95 12 L 94 11 M 142 11 L 143 12 L 142 11 M 69 12 L 69 16 L 70 16 C 69.824219 14.316406 69.683594 13.507813 69 12 M 143 16 L 143 17 L 137 17 L 138 19 C 135.75 19 134 19.289063 132 20 C 132.640625 18.1875 132.949219 17 133 15 C 138.445313 14.738281 138.261719 12.191406 143 16 M 144.332031 13.667969 C 144.277344 13.722656 144.222656 14.777344 144.667969 14.332031 C 144.722656 14.277344 144.777344 13.222656 144.332031 13.667969 M 75 16 L 76 17 L 75 16 M 98.332031 16.667969 C 98.277344 16.722656 98.222656 17.777344 98.667969 17.332031 C 98.722656 17.277344 98.777344 16.222656 98.332031 16.667969 M 134 16 L 135 17 L 134 16 M 73 17 C 70.386719 18.316406 67.863281 19.386719 65 20 L 65 21 L 70 22 C 70 19.351563 71.539063 20 74 20 L 74 21 C 72 21 72.648438 20.699219 72 22 C 75.253906 24 77.652344 25 77 29 L 85 26 L 85 25 L 79 25 C 80.535156 24 80.402344 24.195313 81 23 C 79.445313 22.589844 73.5625 22.371094 76 21 L 73 17 M 105 21 C 101.980469 21.609375 98.449219 21.726563 98 25 L 95 25 L 96 23 L 93 24 C 94.363281 25.820313 94.492188 25.03125 94 27 C 96.648438 26.140625 99.582031 25.8125 100 23 C 105.234375 27.667969 95.203125 39.496094 91 42 C 91.597656 43.195313 91.464844 43 93 44 L 89 45 L 90 43 L 86 45 C 91 48.246094 92.441406 42 97 42 C 97.191406 40.566406 113.695313 33.125 117 32 L 116 34 C 119.402344 32.207031 121.882813 29.746094 123 26 C 121.414063 26.78125 120.398438 28 119 29 L 120 27 C 117 29 115.5 29.589844 112 29 L 112 33 C 110.976563 31.464844 111.195313 31.597656 110 31 C 108 33.21875 107.398438 34.214844 107 37 C 103.570313 36.359375 101.269531 37 98 38 C 100.433594 34.699219 105 19.425781 110 27 C 111.660156 26.792969 111.539063 26.503906 112 28 L 113 28 C 113 25.09375 113.242188 23.308594 115 21 L 114 23 L 123 21 C 120.789063 14.371094 113.660156 21.226563 111 23 C 107.867188 25.089844 104.636719 22.449219 105 21 M 123.667969 18.332031 C 123.222656 18.777344 124.277344 18.722656 124.332031 18.667969 C 124.777344 18.222656 123.722656 18.277344 123.667969 18.332031 M 65 23 L 65 22 C 62.820313 21.273438 63.21875 21.5625 64 20 C 57.78125 22 58.894531 24.4375 65 23 M 88 20 C 87.496094 22 87 23.320313 86 25 L 86 26 C 88.46875 26.425781 90.644531 27.132813 93 28 C 92 26.21875 92 26.40625 90 26 L 90 25 L 92 25 L 92 24 C 90 23 89.265625 21.8125 88 20 M 90.332031 20.667969 C 90.277344 20.722656 90.222656 21.777344 90.667969 21.332031 C 90.722656 21.277344 90.777344 20.222656 90.332031 20.667969 M 118 20.332031 L 118.332031 20.667969 C 117.839844 20.832031 117.226563 20.332031 118 20.332031 M 109.667969 21.332031 C 109.222656 21.777344 110.277344 21.722656 110.332031 21.667969 C 110.777344 21.222656 109.722656 21.277344 109.667969 21.332031 M 133 21 L 133 22 L 128 25 C 129.605469 23.085938 130.78125 22.164063 133 21 M 62 22 L 62 23 L 59 24 C 60.222656 22.804688 60.421875 22.683594 62 22 M 78 23 L 77 24 L 78 23 M 83 23 L 84 24 L 83 23 M 86 23 L 87 24 L 86 23 M 56 24 L 57 25 L 56 24 M 112 24 L 111 25 L 112 24 M 127 25 L 126 26 L 127 25 M 53 27 L 53 28 C 54.796875 28 54.519531 28 56 27 C 54.433594 28.363281 53.769531 29.152344 52 28 C 50.246094 29.328125 49.328125 30.246094 48 32 C 49.246094 33.199219 49 33.132813 49 35 L 48 33 L 47 33 L 43 43 C 46.492188 42.300781 45.230469 45.558594 43 45 L 47 52 L 45 51 L 46 54 L 47 54 C 48.382813 50.710938 49.710938 49.382813 53 48 C 53.308594 50.121094 53.382813 50.6875 55 52 C 54.46875 45.820313 51.828125 45.007813 47 49 C 45.957031 43.011719 48.5625 38.753906 54 44 L 55 44 C 54.570313 37.722656 56.214844 32.164063 57 26 L 53 27 M 93 29 C 90.953125 33.300781 88.625 37.53125 87 42 C 91.210938 39.445313 94.75 34 93 29 M 119 29 C 118.316406 30.578125 118.195313 30.777344 117 32 C 117.691406 30.613281 117.984375 30.140625 119 29 M 54 30 C 53.304688 33.46875 53.550781 36.507813 54 40 C 51.273438 39.3125 48.8125 39 46 39 L 47 36 C 48.195313 36.597656 47.976563 36.464844 49 38 C 49.550781 35.71875 50.90625 33.105469 50 31 C 51.371094 30.417969 52.507813 30.203125 54 30 M 76.667969 30.332031 C 76.222656 30.777344 77.277344 30.722656 77.332031 30.667969 C 77.777344 30.222656 76.722656 30.277344 76.667969 30.332031 M 115 31 L 114 32 L 115 31 M 54.667969 32.667969 C 54.722656 32.722656 54.777344 33.777344 54.332031 33.332031 C 54.277344 33.277344 54.222656 32.222656 54.667969 32.667969 M 111 33 C 110.453125 34.636719 110.636719 34.453125 109 35 C 109.546875 33.363281 109.363281 33.546875 111 33 M 108 35 L 107 36 L 108 35 M 104 37.332031 C 104.773438 37.332031 104 37.832031 103.667969 37.667969 L 104 37.332031 M 102 38 L 101 39 L 102 38 M 46 40 L 45 41 L 46 40 M 89 45 L 88 46 L 89 45 M 84 46 L 85 47 L 84 46 M 59 59 L 77 53 L 77 54 C 70.355469 56.613281 63.800781 58.824219 57 61 C 60.601563 65.199219 65.515625 67.4375 71 68 L 71 67 L 68 67 C 71.507813 63.261719 76.433594 60.320313 81 58 L 81 57 C 72.90625 58.570313 68.925781 65 60 63 L 60 62 C 64.273438 61.367188 80.363281 58 77 52 L 83 50 L 81 61 L 82 61 C 84 56.625 86.273438 51.816406 87 47 C 81.546875 50.410156 61.738281 51.53125 59 59 M 84 49 L 83 50 L 84 49 M 85 51 C 84.316406 52.578125 84.195313 52.777344 83 54 C 83.691406 52.613281 83.984375 52.140625 85 51 M 48 56 L 53 55 L 53 56 C 51.675781 57.410156 51.847656 58 52 60 C 53.863281 59.324219 53.863281 59 55 60 L 56 60 C 55.488281 57.523438 55.394531 57.425781 53 58 L 54 54 C 51 53.828125 49.832031 53.722656 48 56 M 50 60 C 47.535156 62.699219 40.359375 69.382813 43 73 L 43 74 C 37.613281 75.570313 37 88 36 93 C 37.660156 92.792969 37.539063 92.503906 38 94 L 39 94 L 38 89 C 40.910156 89 40.5625 87.78125 40 85 C 46.347656 86.824219 52.335938 89.695313 59 90 L 59 89 L 55 89 L 55 88 L 59 88 C 59 86 59.4375 84.082031 60 82 L 61 82 C 63.621094 89.492188 80 90.8125 87 92 L 87 91 C 80.796875 88.660156 63.953125 88 63 80 L 61 81 L 62 77 L 61 77 C 57.726563 86.410156 54.210938 79.816406 47 81 L 47 82 C 50.585938 83.675781 54 85.085938 58 86 L 58 87 C 54.828125 86.625 52 86.386719 49 87 C 48.515625 83.597656 43.542969 84.253906 41 82 L 43 83 L 41 79 L 45 81 C 45.984375 79.519531 46 79.796875 46 78 L 43 79 C 44.535156 73.675781 48.511719 68.519531 48 63 C 54.894531 63.757813 61.675781 67.488281 66 73 C 68 72.160156 69.714844 72 72 72 L 72 71 C 64.5625 69 56.253906 64.691406 50 60 M 79 60 C 76.925781 63 75 65.589844 74 69 L 75 69 L 75 67 L 76 67 L 77 72 L 78 72 C 78 68.152344 79.394531 65.445313 81 62 L 79 63 C 79.214844 61.578125 79.273438 61.328125 79 60 M 51 62 L 50 63 L 51 62 M 79 63 L 77 67 L 76 67 C 76.9375 65.050781 77.390625 64.449219 79 63 M 48 65 C 47.453125 66.636719 47.636719 66.453125 46 67 C 46.546875 65.363281 46.363281 65.546875 48 65 M 46 68 C 45.453125 69.636719 45.636719 69.453125 44 70 C 44.546875 68.363281 44.363281 68.546875 46 68 M 44 71 L 43 72 L 44 71 M 75 71 L 75 75 L 76 75 C 75.824219 73.316406 75.683594 72.507813 75 71 M 63 73 L 64 74 L 63 73 M 77 74 C 77 76.453125 77.3125 78.644531 78 81 C 79.195313 80.402344 78.976563 80.535156 80 79 C 80.574219 82.40625 81.535156 83.167969 85 83 C 84.214844 86.71875 97.78125 97.078125 94 100 L 96 103 L 97 103 C 96.855469 100 98.417969 94 95 94 C 95.296875 86.167969 81.808594 80 77 74 M 42 75 L 41 76 L 42 75 M 62.667969 75.332031 C 62.222656 75.777344 63.277344 75.722656 63.332031 75.667969 C 63.777344 75.222656 62.722656 75.277344 62.667969 75.332031 M 63 79 C 66 78.5 69 78 72 77 C 68.753906 75 65.285156 76 63 79 M 73 76 C 74.222656 77.195313 74.421875 77.316406 76 78 C 74.777344 76.804688 74.578125 76.683594 73 76 M 43 77 L 43 78 C 41.390625 79.449219 40.9375 80.050781 40 82 C 39.199219 79.09375 40.25 78 43 77 M 83 83 C 81.363281 82.453125 81.546875 82.636719 81 81 C 82.636719 81.546875 82.453125 81.363281 83 83 M 52 82 L 51 83 L 52 82 M 55 83 L 54 84 L 55 83 M 86 84 C 89.277344 86.527344 92.464844 88.710938 95 92 C 91.78125 90.011719 87 87.765625 86 84 M 48 85 L 47 86 L 48 85 M 40 87 L 39 88 L 40 87 M 53 87.332031 L 53.332031 87.667969 C 52.839844 87.832031 52.226563 87.332031 53 87.332031 M 63 89 C 66.378906 93.496094 74.644531 94.5625 80 95 C 75.761719 91.296875 68.519531 89.816406 63 89 M 88.332031 90.667969 C 88.277344 90.722656 88.222656 91.777344 88.667969 91.332031 C 88.722656 91.277344 88.777344 90.222656 88.332031 90.667969 M 55 91 C 62.496094 104.046875 35.292969 103.347656 27 106 C 29.929688 101.714844 32.867188 98.175781 37 95 C 32.609375 92.691406 29.671875 96.660156 27 100.003906 C 21.425781 107.03125 16.363281 115.160156 12 123 C 13.414063 122.527344 13.8125 122.1875 15 121 L 14 124 C 15.914063 122.394531 16.835938 121.21875 18 119 L 16 120 C 17.726563 118 19.789063 116.550781 22 115 C 22.285156 121.527344 29.382813 124.378906 35 126 L 35 125 C 33 123.386719 32.816406 122.664063 30 123 L 31 121 L 28 122 L 29 120 L 26 121 C 26 117.269531 23 115 23 111 C 26.175781 116 29.636719 120.585938 36 120 L 35 122 C 36.738281 122 36.640625 122 38 123 L 39 122 C 33.679688 117 24.625 114.71875 26 106 C 29.359375 110.199219 44.984375 103.082031 45 103 L 46 103 C 46 105 45.699219 104.351563 47 105 C 49 104.066406 50.636719 104 53 104 C 52.660156 106.019531 52.675781 107 53 109 C 49.929688 109.101563 49 109.675781 47 112 C 53.828125 111.707031 59.308594 102.78125 62 97 C 58.945313 97 58.796875 92.128906 55 91 M 40.667969 93.332031 C 40.222656 93.777344 41.277344 93.722656 41.332031 93.667969 C 41.777344 93.222656 40.722656 93.277344 40.667969 93.332031 M 43.5 93.5 C 42.871094 94.128906 43.871094 95.128906 44.5 94.5 C 45 94 44 93 43.5 93.5 M 46 93 C 47.863281 95.644531 49.828125 95.828125 53 96 L 53 94 C 50.558594 94 48.378906 93.570313 46 93 M 35 94 C 32.960938 97 30.878906 99 28 101 C 30 98.121094 32 96.039063 35 94 M 54 94 L 55 95 L 54 94 M 81 94 L 81 95 L 84 95 C 82.753906 94.316406 82.453125 94.25 81 94 M 60 98 C 59.453125 99.636719 59.636719 99.453125 58 100 C 58.546875 98.363281 58.363281 98.546875 60 98 M 64 98 C 63.507813 102.679688 65.859375 106 68 110 C 70.464844 105.5625 67 101.296875 64 98 M 88 106 C 90.894531 104.226563 91.964844 102.210938 93 99 C 89.886719 100.722656 88.824219 102.554688 88 106 M 66 102 C 64.363281 101.453125 64.546875 101.636719 64 100 C 65.636719 100.546875 65.453125 100.363281 66 102 M 58 101 C 57.453125 102.636719 57.636719 102.453125 56 103 C 56.769531 101.6875 56.6875 101.769531 58 101 M 28 102 L 23 111 L 22 111 C 23.21875 107.183594 24.914063 104.554688 28 102 M 91 102 L 90 103 L 91 102 M 94 102 C 93 104.636719 92.53125 107.261719 92 110 L 93 110 L 93 108 L 94 108 L 91 114 C 92.660156 113.792969 92.539063 113.503906 93 115 L 94 115 L 96 105 L 95 105 L 95 107 L 94 107 C 94.300781 105.070313 94.46875 104 94 102 M 55 105 C 53.363281 104.453125 53.546875 104.636719 53 103 C 54.636719 103.546875 54.453125 103.363281 55 105 M 67 103 L 68 106 C 66.710938 104.558594 66.597656 104.765625 67 103 M 54 106 L 53 107 L 54 106 M 69 107 L 68 108 L 69 107 M 78 118 L 79 118 C 80.445313 115.71875 81.3125 115.417969 84 115 L 84 116 C 82.21875 117 82.40625 117 82 119 L 81 119 L 81 117 L 80 117 C 80.488281 119.054688 80.953125 120.144531 82 122 L 79 123 C 79.648438 124.300781 79 124 81 124 L 81 125 L 76 124 L 76 125 L 78 125 L 78 126 C 74 125 74.390625 123.421875 76 120 C 74.246094 118.671875 73.328125 117.753906 72 116 L 71 116 C 70.207031 119.652344 69.792969 124.695313 74 126.359375 C 75.953125 127.054688 79.476563 125.8125 80.671875 127.691406 C 85 134.558594 72 146.816406 88 145 L 88 146 L 85 146 L 85 147 C 89.636719 147.585938 93.925781 148.785156 98 146 L 97 145 C 95.699219 145.648438 96 145.148438 96 147 C 91.921875 144.101563 84.957031 142.671875 80 143 L 80 140 L 82 141 C 82.800781 136.753906 83.730469 133.085938 82 129 C 85.222656 128.464844 83.246094 120.019531 83 117 C 88.207031 117.109375 82.722656 114.148438 80 114 L 80 113 C 82.636719 111.617188 84.171875 110.347656 86 108 C 80.9375 110 75.796875 112.003906 78 118 M 71 109 C 70.519531 111.359375 70.480469 112.664063 71 115 L 72 115 C 72.542969 112.324219 72.507813 111.269531 71 109 M 50 110.332031 C 50.773438 110.332031 50 110.832031 49.667969 110.667969 L 50 110.332031 M 71.667969 111.667969 C 71.722656 111.722656 71.777344 112.777344 71.332031 112.332031 C 71.277344 112.277344 71.222656 111.222656 71.667969 111.667969 M 21 112 L 20 113 L 21 112 M 20 114 C 19.453125 115.636719 19.636719 115.453125 18 116 C 18.546875 114.363281 18.363281 114.546875 20 114 M 28 116 C 26.363281 115.453125 26.546875 115.636719 26 114 C 27.636719 114.546875 27.453125 114.363281 28 116 M 44 114 L 43 119 C 45 117.785156 45.785156 117 47 115 C 45.261719 115.0625 45.359375 115.019531 44 114 M 91 115 L 90 119 C 88.316406 118.777344 87.6875 118.78125 86 119 C 87 121.222656 89.792969 124.5 90 127 C 90.367188 131.425781 88 134.539063 91 139 C 94.640625 144.460938 104.609375 144.4375 105 146 L 106 146 C 103.621094 141.457031 99.949219 140.257813 95 141 C 96.277344 139.085938 96.277344 140 95 138 C 93.699219 138.648438 94 138.148438 94 140 L 93 140 L 91 135 L 93 136 C 92.242188 133.628906 91.511719 132 90 130 C 91.636719 128.449219 91.636719 127.550781 90 126 C 92.5 122.5625 93.613281 118.589844 91 115 M 45 116 L 44 117 L 45 116 M 85 116 L 84 117 L 85 116 M 26 120 C 24.6875 119.230469 24.769531 119.3125 24 118 C 25.636719 118.546875 25.453125 118.363281 26 120 M 32 118 L 31 119 L 32 118 M 92 118 L 91 119 L 92 118 M 89 119 C 89.933594 120.722656 90.535156 122.105469 91 124 L 90 124 C 89.191406 122.042969 88.730469 121.023438 89 119 M 16 120 L 15 121 L 16 120 M 20 122 C 21.3125 121.230469 21.230469 121.3125 22 120 C 20.363281 120.546875 20.546875 120.363281 20 122 M 72 120 C 73 121.816406 73 122 73 124 L 72 124 C 71.820313 122.4375 71.75 121.511719 72 120 M 19 123 C 19.34375 127.296875 20.75 128.511719 25 129 L 25 128 L 22 128 L 22 127 C 23.851563 127 23.351563 127.300781 24 126 C 22.804688 124.777344 22.683594 124.578125 22 123 L 21 123 L 21 127 L 20 127 C 19.824219 125.316406 19.683594 124.507813 19 123 M 33 123 L 32 124 L 33 123 M 36 127 C 37.457031 126 37.898438 125.457031 39 124 C 36.875 125 36.898438 125 36 127 M 11 127 C 12.636719 126.453125 12.453125 126.636719 13 125 C 11.363281 125.546875 11.546875 125.363281 11 127 M 83 125 L 82 126 L 83 125 M 8 126 C 6.867188 130 6.964844 132.378906 11 134 C 11 131.648438 11.652344 132.066406 14 132 L 14 133 L 12 133 L 12 134 L 17 133 C 16.351563 131.699219 16.851563 132 15 132 L 15 131 L 19 131 L 19 130 C 13.730469 130.398438 10.804688 131 8 126 M 26 126 C 26.902344 128 27 128 29 129 L 29 130 L 23 130 L 23 131 L 29 131 L 29 132 L 27 132 C 33 133 29.476563 127.421875 26 126 M 30 128 L 29 129 L 30 128 M 20.667969 130.332031 C 20.222656 130.777344 21.277344 130.722656 21.332031 130.667969 C 21.777344 130.222656 20.722656 130.277344 20.667969 130.332031 M 9 131 L 8 132 L 9 131 M 21.667969 132.332031 C 21.222656 132.777344 22.277344 132.722656 22.332031 132.667969 C 22.777344 132.222656 21.722656 132.277344 21.667969 132.332031 M 90.667969 132.667969 C 90.722656 132.722656 90.777344 133.777344 90.332031 133.332031 C 90.277344 133.277344 90.222656 132.222656 90.667969 132.667969 M 82 134 L 82 137 L 81 137 C 81.25 135.546875 81.316406 135.246094 82 134 M 98 141 L 97 142 L 98 141 M 101 142 L 100 143 L 101 142 M 103 143 L 102 144 L 103 143 M 83 144.332031 L 83.332031 144.667969 C 82.839844 144.832031 82.226563 144.332031 83 144.332031 M 93 146 L 93 147 L 90 147 C 91.246094 146.316406 91.546875 146.25 93 146 M 100 146 L 100 147 C 101.800781 147.5625 103 147.824219 105 148 C 103.308594 147 101.960938 146.480469 100 146 "/>
</g>
</svg>
