<?xml version="1.0" encoding="UTF-8" standalone="no"?>
<!-- Created with Inkscape (http://www.inkscape.org/) -->

<svg
   width="150"
   height="150"
   viewBox="0 0 39.687499 39.687501"
   version="1.1"
   id="svg160"
   inkscape:version="1.3 (0e150ed6c4, 2023-07-21)"
   sodipodi:docname="uixSvgIcon_ability_targetexpert.svg"
   xml:space="preserve"
   xmlns:inkscape="http://www.inkscape.org/namespaces/inkscape"
   xmlns:sodipodi="http://sodipodi.sourceforge.net/DTD/sodipodi-0.dtd"
   xmlns="http://www.w3.org/2000/svg"
   xmlns:svg="http://www.w3.org/2000/svg"><sodipodi:namedview
     id="namedview162"
     pagecolor="#505050"
     bordercolor="#ffffff"
     borderopacity="1"
     inkscape:pageshadow="0"
     inkscape:pageopacity="0"
     inkscape:pagecheckerboard="1"
     inkscape:document-units="px"
     showgrid="false"
     units="px"
     inkscape:zoom="2"
     inkscape:cx="74"
     inkscape:cy="-35.75"
     inkscape:window-width="1920"
     inkscape:window-height="991"
     inkscape:window-x="-9"
     inkscape:window-y="-9"
     inkscape:window-maximized="1"
     inkscape:current-layer="g1097"
     inkscape:showpageshadow="0"
     inkscape:deskcolor="#505050" /><defs
     id="defs157"><filter
       style="color-interpolation-filters:sRGB;"
       inkscape:label="Invert"
       id="filter2414"
       x="-0.0009765625"
       y="-0.0009765625"
       width="1.0019531"
       height="1.0019531"><feColorMatrix
         type="hueRotate"
         values="180"
         result="color1"
         id="feColorMatrix2410" /><feColorMatrix
         values="-1 0 0 0 1 0 -1 0 0 1 0 0 -1 0 1 -0.21 -0.72 -0.07 2 0 "
         result="color2"
         id="feColorMatrix2412" /></filter><filter
       style="color-interpolation-filters:sRGB;"
       inkscape:label="Invert"
       id="filter1101"
       x="-0.0040644353"
       y="-0.0064002193"
       width="1.0081289"
       height="1.0127307"><feColorMatrix
         values="-1 0 0 0 1 0 -1 0 0 1 0 0 -1 0 1 -0.21 -0.72 -0.07 2 0 "
         result="fbSourceGraphic"
         id="feColorMatrix1099" /><feColorMatrix
         result="fbSourceGraphicAlpha"
         in="fbSourceGraphic"
         values="0 0 0 -1 0 0 0 0 -1 0 0 0 0 -1 0 0 0 0 1 0"
         id="feColorMatrix858" /><feColorMatrix
         id="feColorMatrix860"
         values="-1 0 0 0 1 0 -1 0 0 1 0 0 -1 0 1 -0.21 -0.72 -0.07 2 0 "
         result="color2"
         in="fbSourceGraphic" /></filter></defs><g
     inkscape:label="Layer 1"
     inkscape:groupmode="layer"
     id="layer1"><g
       id="g1097"
       transform="matrix(0.09116527,0,0,0.09158063,-2.3493105,-3.1152374)"
       style="fill:#ffffff;fill-opacity:1;stroke:#000000;stroke-width:3.54286;stroke-miterlimit:4;stroke-dasharray:none;stroke-opacity:1;filter:url(#filter1101)"><path
         class="st0"
         d="m 205.06016,175.01507 c -34.82554,-24.41044 -69.26178,-29.79562 -104.86594,-20.47785 7.7862,-18.74184 19.50088,-31.03563 33.26831,-36.81053 19.50088,-8.18405 51.4243,-2.37372 63.98839,15.1281 6.44131,8.92806 9.66197,22.17844 7.60924,42.16028 z m 116.61604,135.0546 c -0.95557,-3.96802 1.52185,-7.93605 5.48574,-8.89263 3.96388,-0.95657 7.92776,1.52344 8.88334,5.49147 1.91116,8.04233 5.2026,14.2778 9.59118,18.77726 4.49476,4.57032 10.26363,7.51091 17.12964,8.8572 3.99928,0.77944 6.58287,4.64118 5.80425,8.64463 -0.77861,4.00345 -4.63632,6.58976 -8.6356,5.81033 -9.76814,-1.94859 -18.15599,-6.23547 -24.77427,-13.00238 -6.33513,-6.44804 -10.93607,-14.95095 -13.48428,-25.68588 z m -247.671926,0 c -0.955579,-3.96802 1.521848,-7.93605 5.485731,-8.89263 3.963884,-0.95657 7.927767,1.52344 8.883346,5.49147 1.911158,8.04233 5.202596,14.2778 9.591181,18.77726 4.494768,4.57032 10.263628,7.51091 17.129638,8.8572 3.99928,0.77944 6.58288,4.64118 5.80426,8.64463 -0.77862,4.00345 -4.63633,6.58976 -8.63561,5.81033 -9.76813,-1.94859 -18.155995,-6.23547 -24.774265,-13.00238 C 81.153421,329.30751 76.552484,320.8046 74.004274,310.06967 Z M 243.03558,283.10836 c 9.90972,0 17.94366,7.82976 17.94366,17.46639 0,9.63663 -8.03394,17.4664 -17.94366,17.4664 -9.90971,0 -17.94365,-7.82977 -17.94365,-17.4664 0,-9.63663 8.03394,-17.46639 17.94365,-17.46639 z M 120.43833,236.55491 c 35.39182,0 64.09458,27.91789 64.09458,62.39012 0,34.4368 -28.70276,62.39012 -64.09458,62.39012 -35.391809,0 -64.094572,-27.91789 -64.094572,-62.39012 0,-34.47223 28.66737,-62.39012 64.094572,-62.39012 z m 247.67193,0 c 35.39181,0 64.09457,27.91789 64.09457,62.39012 0,34.4368 -28.70276,62.39012 -64.09457,62.39012 -35.39181,0 -64.09457,-27.91789 -64.09457,-62.39012 0,-34.47223 28.66736,-62.39012 64.09457,-62.39012 z m -86.10828,-61.53984 c 34.82554,-24.41044 69.26177,-29.79562 104.83055,-20.47785 -7.7862,-18.74184 -19.50089,-31.03563 -33.2683,-36.81053 -19.50089,-8.18405 -51.42431,-2.37372 -63.95301,15.1281 -6.44131,8.92806 -9.66197,22.17844 -7.60924,42.16028 z m 124.79153,0.70857 c -12.104,-12.47093 -31.71106,-18.10412 -58.85658,-16.89953 -30.75549,1.52343 -63.24518,14.3841 -73.68576,43.542 -8.74178,-19.20242 -52.69842,-19.20242 -61.40481,0 -10.44059,-29.1579 -42.93027,-42.05399 -73.68575,-43.542 -27.14553,-1.20459 -46.717201,4.46403 -58.856593,16.89953 -17.058854,22.88701 -50.822644,82.69083 -53.653994,111.9196 -11.537727,118.61563 158.413757,148.37583 185.665457,25.89846 15.46623,27.45732 46.96496,27.45732 62.43117,0 27.2517,122.5128 197.20319,92.71717 185.66547,-25.89846 -2.83135,-29.22877 -36.59515,-89.03259 -53.61861,-111.9196 z"
         id="path3565"
         style="stroke-width:2.89564928;stroke-dasharray:none;stroke:#000000;stroke-opacity:1;fill:#ffffff;fill-opacity:1" /></g></g><style
     type="text/css"
     id="style3563">.st0{fill-rule:evenodd;clip-rule:evenodd;}</style></svg>
