<?xml version="1.0" encoding="UTF-8"?>
<svg xmlns="http://www.w3.org/2000/svg" xmlns:xlink="http://www.w3.org/1999/xlink" width="150pt" height="150pt" viewBox="0 0 150 150" version="1.1">
<g id="surface1">
<path style=" stroke:none;fill-rule:nonzero;fill:rgb(0%,0%,0%);fill-opacity:1;" d="M 3 74 L 4 74 C 4 36.679688 36.679688 4.023438 74 4 C 65.636719 0.492188 52.738281 5.144531 45 8.78125 C 19.261719 21 3 45.621094 3 74 M 76 3 L 76 4 C 86.191406 4.007813 95.835938 6.242188 105 10.757813 C 159.457031 37.582031 158.210938 113.5625 104 139.742188 C 95.175781 144.003906 85.757813 146 76 146 C 82 148.519531 89.96875 146.28125 96 144.570313 C 115.753906 139 131.851563 124.28125 140.742188 106 C 163.519531 59.152344 127.367188 3 76 3 M 67 14.429688 C 58.183594 15.695313 49.589844 18.78125 42 23.46875 C 40 24.691406 35.207031 27.238281 35.207031 30.003906 C 35.207031 34.578125 46.875 43 50 46 L 112 108 C 114 110.097656 117.429688 114.589844 120.910156 113.652344 C 124.875 112.585938 127.574219 106.3125 129.238281 103 C 135 91.535156 137.679688 77.742188 135.382813 65 C 129.652344 33.152344 99.433594 9.769531 67 14.429688 M 89 79 C 89.222656 80.683594 89.21875 81.3125 89 83 L 88 83 C 83.800781 76 73.457031 72.53125 72 64 C 69.375 63.160156 68.839844 62.625 68 60 C 63.472656 59.332031 58.785156 54.449219 58 50 C 53.175781 48.644531 35.605469 35.183594 37.347656 29.464844 C 38.503906 25.65625 45.683594 22.519531 49 21.039063 C 65.945313 13.480469 85.1875 13 102 21.371094 C 125.757813 33.25 138.605469 60.105469 133.738281 86 C 132.675781 91.664063 127.273438 112.792969 119.699219 112.792969 C 116 112.792969 112.261719 107.261719 110 105 C 101.558594 96.558594 95 88.351563 89 79 M 79 136 L 79 135 C 45.675781 135 13.914063 109.363281 15 74 C 15.472656 60.621094 21.5 50.632813 27 39 C 31.625 45.070313 40.277344 50.453125 42 58 L 45 57 L 44 61 L 45 61 C 46.476563 59.742188 47 59.8125 47 62 C 56.484375 66.425781 60 75.695313 66.441406 82.78125 C 68.734375 85.308594 72.328125 86 75 88 L 71 87 C 72.703125 89 74.457031 88.785156 77 89 C 74.433594 90.128906 72.777344 90.378906 70 90 C 72 92 73 92.125 76 92 L 76 93 C 71.910156 93.617188 68 92.382813 64 93 L 64 94 C 68.417969 94.191406 74.863281 96.628906 76 91 L 80 92 L 77 94 L 77 95 C 79.960938 95.050781 81.460938 95.476563 84 97 C 81.703125 97.675781 81.226563 98 80 100 L 81 100 C 87.546875 96.074219 98.710938 111.660156 102.996094 116 C 104.613281 117.636719 107.945313 120.101563 107.945313 122.675781 C 107.945313 130.628906 85.371094 133.300781 80 135 C 87.574219 136.816406 97.394531 132.1875 104 128.738281 C 106.355469 127.507813 111.621094 125.28125 110.652344 121.824219 C 108.808594 115.230469 97.765625 107.765625 93 103 L 47 57 C 43.441406 53.441406 32.535156 39 27 39.167969 C 23.308594 39.390625 20.609375 47.121094 19.3125 50 C 14 61.683594 12.328125 75.460938 15.234375 88 C 22.351563 118.679688 48.683594 136 79 136 M 69 47 L 69 48 L 81 48 C 77.304688 46.449219 72.984375 47 69 47 M 63 48 L 63 49 L 66 49 C 64.753906 48.316406 64.453125 48.25 63 48 M 83 48 L 83 49 L 87 49 C 85.492188 48.316406 84.683594 48.175781 83 48 M 59 49 L 59 50 C 61.625 51.53125 61.785156 54.167969 65 55 L 65 52 C 62.351563 52 62.246094 49.351563 59 49 M 69 50 C 71.402344 51.203125 72 50.808594 74 49 L 69 50 M 78 49 C 79.449219 50.609375 80 51.0625 82 52 L 82 51 L 78 49 M 81 49 L 82 50 L 81 49 M 88 49 L 88 50 L 91 50 C 89.753906 49.316406 89.453125 49.25 88 49 M 66 50 L 67 51 L 66 50 M 72 50 L 71 51 L 72 50 M 75.667969 50.332031 C 75.222656 50.777344 76.277344 50.722656 76.332031 50.667969 C 76.777344 50.222656 75.722656 50.277344 75.667969 50.332031 M 83 50 L 83 51 L 86 51 C 84.753906 50.316406 84.453125 50.25 83 50 M 92.667969 50.332031 C 92.222656 50.777344 93.277344 50.722656 93.332031 50.667969 C 93.777344 50.222656 92.722656 50.277344 92.667969 50.332031 M 59 53 C 60.636719 52.453125 60.453125 52.636719 61 51 C 59.363281 51.546875 59.546875 51.363281 59 53 M 88 51 C 88.214844 53.449219 88.4375 53.6875 86 54 L 86 55 C 88.300781 55.277344 99.535156 55.261719 92 58 L 92 59 C 94.890625 58.195313 96 57.324219 98 55 C 95.683594 54.039063 94.496094 53.816406 92 54 L 93 52 L 88 51 M 95 51 L 95 52 L 99 53 C 97.542969 52 96.753906 51.5625 95 51 M 66 52 L 66 53 L 70 54 L 70 55 C 67.621094 55.570313 65.441406 56 63 56 C 68.597656 59.007813 73.597656 53.652344 66 52 M 73.667969 52.332031 C 73.222656 52.777344 74.277344 52.722656 74.332031 52.667969 C 74.777344 52.222656 73.722656 52.277344 73.667969 52.332031 M 77.667969 52.332031 C 77.222656 52.777344 78.277344 52.722656 78.332031 52.667969 C 78.777344 52.222656 77.722656 52.277344 77.667969 52.332031 M 84.667969 52.332031 C 84.222656 52.777344 85.277344 52.722656 85.332031 52.667969 C 85.777344 52.222656 84.722656 52.277344 84.667969 52.332031 M 90 52 C 91.277344 54 91.277344 53.085938 90 55 L 89 55 C 89.238281 53.640625 89.300781 53.050781 90 52 M 63 53 L 62 54 L 63 53 M 81 53 C 81.546875 54.636719 81.363281 54.453125 83 55 C 82.230469 53.6875 82.3125 53.769531 81 53 M 100 53 L 101 54 L 100 53 M 75 54 L 76 55 L 75 54 M 79 54 C 78 55.480469 78 55.203125 78 57 C 81 57.179688 83.949219 57.324219 87 57 L 79 54 M 102 54 L 103 55 L 102 54 M 97 55 L 96 56 L 97 55 M 100 55 C 98.8125 56.1875 98.472656 56.585938 98 58 C 100 58.339844 100.96875 58.324219 103 58 C 102 56.730469 101.269531 56 100 55 M 104 55 L 104 56 L 108 58 L 108 57 L 104 55 M 72.332031 56.667969 C 72.277344 56.722656 72.222656 57.777344 72.667969 57.332031 C 72.722656 57.277344 72.777344 56.222656 72.332031 56.667969 M 93 56 L 94 57 L 93 56 M 75 57 C 75.769531 58.3125 75.6875 58.230469 77 59 C 76.453125 57.363281 76.636719 57.546875 75 57 M 88 57 L 88 58 L 91 58 C 89.753906 57.316406 89.453125 57.25 88 57 M 100 57.332031 L 100.332031 57.667969 C 99.839844 57.832031 99.226563 57.332031 100 57.332031 M 39 60 C 40.636719 59.453125 40.453125 59.636719 41 58 C 39.363281 58.546875 39.546875 58.363281 39 60 M 68 58 L 69 59 L 68 58 M 79 59 L 79 60 C 80.578125 59.316406 80.777344 59.195313 82 58 L 79 59 M 85 58 C 85.546875 59.636719 85.363281 59.453125 87 60 C 86.453125 58.363281 86.636719 58.546875 85 58 M 103 59 L 103 60 C 105.917969 61.589844 109.839844 61.15625 108 65 L 113 67 L 113 66 C 109.636719 63.394531 111.5 60 106 61 C 106 58.382813 105.566406 58.445313 103 59 M 109 58 C 109.546875 59.636719 109.363281 59.453125 111 60 C 110.453125 58.363281 110.636719 58.546875 109 58 M 42.332031 59.667969 C 42.277344 59.722656 42.222656 60.777344 42.667969 60.332031 C 42.722656 60.277344 42.777344 59.222656 42.332031 59.667969 M 66 59 L 67 60 L 66 59 M 71 59 C 72.222656 60.195313 72.421875 60.316406 74 61 C 72.859375 60 72.386719 59.691406 71 59 M 96.667969 59.332031 C 96.222656 59.777344 97.277344 59.722656 97.332031 59.667969 C 97.777344 59.222656 96.722656 59.277344 96.667969 59.332031 M 105 59.332031 C 105.773438 59.332031 105 59.832031 104.667969 59.667969 L 105 59.332031 M 37 60 L 34 64 C 35.757813 62.621094 36.539063 62.105469 37 60 M 78 64 L 78 65 L 82 64 C 82.816406 68.367188 86.511719 68.015625 90 70 L 87 71 L 87 72 C 89.484375 71 90.597656 70.273438 92 68 L 90 69 C 91.550781 64.351563 87.324219 64.695313 88 62 C 85.925781 62 85 59.792969 83 60.167969 C 81.324219 60.472656 80.191406 63.269531 78 64 M 99 60 L 100 61 L 99 60 M 112 60 C 113.328125 61.753906 114.246094 62.671875 116 64 C 114.671875 62.246094 113.753906 61.328125 112 60 M 38 64 C 39.558594 63.402344 40.621094 63 42 62 C 39.710938 62.3125 39.679688 62.367188 38 64 M 69 63 C 70.636719 62.453125 70.453125 62.636719 71 61 C 69.363281 61.546875 69.546875 61.363281 69 63 M 77 61 C 77.546875 62.636719 77.363281 62.453125 79 63 C 78.230469 61.6875 78.3125 61.769531 77 61 M 90 67 L 89 68 C 87.234375 67.394531 81 67.1875 84 65 L 84 64 C 82.429688 63.167969 82.394531 62.828125 82 61 C 85.476563 62.085938 87.65625 64.246094 90 67 M 101.667969 61.332031 C 101.222656 61.777344 102.277344 61.722656 102.332031 61.667969 C 102.777344 61.222656 101.722656 61.277344 101.667969 61.332031 M 45 62 L 46 63 L 45 62 M 104 62 L 105 63 L 104 62 M 43 63 L 44 64 L 43 63 M 73 63 L 73 64 L 77 64 C 75.492188 63.316406 74.683594 63.175781 73 63 M 84 63 L 84 66 L 85 66 C 84.96875 64.167969 85 64.441406 84 63 M 90 63 C 90.546875 64.636719 90.363281 64.453125 92 65 C 91.453125 63.363281 91.636719 63.546875 90 63 M 106 63 L 107 64 L 106 63 M 112 63 C 112.546875 64.636719 112.363281 64.453125 114 65 C 113.453125 63.363281 113.636719 63.546875 112 63 M 32 64 C 27 69 20 75 29 79 L 29 78 C 22 73 30.621094 69.703125 32 64 M 36 64 L 37 65 L 36 64 M 41 64 L 42 65 L 41 64 M 117 64 L 117 67 C 120.691406 68.03125 122.386719 70.621094 124 74 L 125 74 C 123.835938 69.414063 120.773438 66.667969 117 64 M 34 65 L 35 66 L 34 65 M 37 67 L 40 66 C 38.234375 65.597656 38.441406 65.710938 37 67 M 115 65 L 116 66 L 115 65 M 92 66 L 93 67 L 92 66 M 35 67 L 36 68 L 35 67 M 114 67 L 115 68 L 114 67 M 33 68 L 34 69 L 33 68 M 93.332031 68.667969 C 93.277344 68.722656 93.222656 69.777344 93.667969 69.332031 C 93.722656 69.277344 93.777344 68.222656 93.332031 68.667969 M 116 68 L 117 69 L 116 68 M 31 69 L 28 71 L 28 72 L 32 70 L 31 69 M 118 69 L 118 70 L 122 72 L 122 71 L 118 69 M 85.332031 70.667969 C 85.277344 70.722656 85.222656 71.777344 85.667969 71.332031 C 85.722656 71.277344 85.777344 70.222656 85.332031 70.667969 M 91 71 C 89.746094 73.003906 88.757813 74.765625 88 77 L 89 77 C 90.175781 75 91 73.390625 91 71 M 94 71 L 94 78 L 95 78 C 94.980469 75.457031 94.984375 73.332031 94 71 M 55 72 L 55 78 L 56 78 C 55.953125 75.746094 55.875 74.050781 55 72 M 57.332031 72.667969 C 57.277344 72.722656 57.222656 73.777344 57.667969 73.332031 C 57.722656 73.277344 57.777344 72.222656 57.332031 72.667969 M 86 73 L 86 77 L 87 77 C 86.824219 75.316406 86.683594 74.507813 86 73 M 126 74 L 117 86 C 120.511719 83.515625 126.527344 78.773438 126 74 M 64 85 L 65 85 L 62 77 L 61 77 C 61 79.097656 60.867188 80.097656 60 82 C 59.566406 80.15625 59.25 79.394531 58 78 C 59 76.8125 59.339844 76.394531 60 75 C 54.417969 79 61 82.359375 64 85 M 90 78 C 91.457031 77 91.898438 76.457031 93 75 C 91 76 91 76.074219 90 78 M 3 76 C 3 115.179688 34.820313 147 74 147 L 74 146 C 45.589844 146 20.789063 127.480469 9.3125 102 C 5.546875 93.644531 6.363281 84.011719 3 76 M 66 78 C 68.207031 80.253906 70.191406 82.425781 72 85 C 68.535156 83.792969 65.460938 82.007813 66 78 M 88 78 C 86.722656 80 86.722656 79.085938 88 81 L 89 81 C 88.761719 79.640625 88.699219 79.050781 88 78 M 121 78 L 122 79 L 121 78 M 26 79 C 28 82 30 84 33 86 C 30.960938 83.121094 28.878906 81.039063 26 79 M 30 79 L 30 80 L 34 82 L 34 81 L 30 79 M 119 79 C 117.273438 80.761719 117.167969 80.667969 117 83 L 118 83 C 118 81 118 81.246094 120 80 L 119 79 M 56.332031 80.667969 C 56.277344 80.722656 56.222656 81.777344 56.667969 81.332031 C 56.722656 81.277344 56.777344 80.222656 56.332031 80.667969 M 93.332031 80.667969 C 93.277344 80.722656 93.222656 81.777344 93.667969 81.332031 C 93.722656 81.277344 93.777344 80.222656 93.332031 80.667969 M 35 82 L 36 83 L 35 82 M 114 82 L 115 83 L 114 82 M 33 83 C 34.222656 84.195313 34.421875 84.316406 36 85 C 34.859375 84 34.386719 83.691406 33 83 M 37 83 L 38 84 L 37 83 M 57 83 L 58 84 L 57 83 M 92 83 L 93 84 L 92 83 M 112 83 L 113 84 L 112 83 M 39 84 L 40 85 L 39 84 M 62 84 L 63 85 L 62 84 M 110 84 L 111 85 L 110 84 M 115 84 L 116 85 L 115 84 M 41 85 L 42 86 L 41 85 M 58 85 C 60 88 62 90 65 92 C 64.453125 90.363281 64.636719 90.546875 63 90 C 64 88.8125 64.339844 88.394531 65 87 C 61.960938 87.539063 60.617188 86.613281 58 85 M 66 85 C 66.546875 86.636719 66.363281 86.453125 68 87 C 67.453125 85.363281 67.636719 85.546875 66 85 M 108 85 L 109 86 L 108 85 M 113 85 L 108 88 L 108 89 L 114 86 L 113 85 M 34 86 C 36 88.664063 38 90.3125 41 92 C 38.933594 89.457031 36.777344 87.746094 34 86 M 37 86 L 37 87 L 41 88 C 39.601563 87 38.769531 86.449219 37 86 M 43 86 L 44 87 L 43 86 M 62 86 L 63 87 L 62 86 M 106 86 L 107 87 L 106 86 M 115 86 L 112 90 C 113.757813 88.621094 114.539063 88.105469 115 86 M 45 87 L 45 88 L 49 89 C 47.542969 88 46.753906 87.5625 45 87 M 101 88 L 101 89 L 105 88 C 103.339844 87.59375 102.757813 87.691406 101 88 M 66 88 C 67 89.457031 67.542969 90 69 91 C 67.898438 89.542969 67.457031 89.101563 66 88 M 69 88 L 70 89 L 69 88 M 42 89 L 43 90 L 42 89 M 44 91 C 45.636719 90.453125 45.453125 90.636719 46 89 C 44.363281 89.546875 44.546875 89.363281 44 91 M 48 92 L 53 93 L 53 92 C 51.324219 91 50.414063 91 52 90 C 49.855469 90 49.515625 90.371094 48 92 M 98.667969 89.332031 C 98.222656 89.777344 99.277344 89.722656 99.332031 89.667969 C 99.777344 89.222656 98.722656 89.277344 98.667969 89.332031 M 103 91 C 104.636719 90.453125 104.453125 90.636719 105 89 C 103.363281 89.546875 103.546875 89.363281 103 91 M 106 89 L 107 90 L 106 89 M 53.667969 90.332031 C 53.222656 90.777344 54.277344 90.722656 54.332031 90.667969 C 54.777344 90.222656 53.722656 90.277344 53.667969 90.332031 M 109 92 C 110.636719 91.453125 110.453125 91.636719 111 90 C 109.363281 90.546875 109.546875 90.363281 109 92 M 46 91 L 47 92 L 46 91 M 56.667969 91.332031 C 56.222656 91.777344 57.277344 91.722656 57.332031 91.667969 C 57.777344 91.222656 56.722656 91.277344 56.667969 91.332031 M 73 91 L 72 92 L 73 91 M 100 91 C 100.917969 92.738281 101.597656 94.105469 102 96 L 108 93 L 108 92 L 103 94 C 103 91.785156 102.285156 91.828125 100 91 M 105 91 L 106 92 L 105 91 M 42 92 L 43 93 L 42 92 M 58 93 L 58 94 L 62 95 L 62 94 L 59 94 L 59 93 L 62 93 C 60.191406 92.425781 59.929688 92.535156 58 93 M 44 93 L 44 94 L 48 96 L 48 95 L 44 93 M 48 93 L 49 94 L 48 93 M 56 93 C 56.410156 95.507813 56.730469 95.773438 59 97 L 59 96 C 57.617188 95.039063 57 94.261719 56 93 M 52 94 C 52.546875 95.636719 52.363281 95.453125 54 96 C 53.453125 94.363281 53.636719 94.546875 52 94 M 61 99 L 62 99 L 61 97 C 62.6875 97.21875 63.316406 97.222656 65 97 C 64.453125 98.636719 64.636719 98.453125 63 99 L 63 100 C 66.261719 99.457031 68.804688 97.78125 68 101 C 70.886719 100.339844 71.855469 100 72 97 L 79 97 L 79 96 L 68 96 L 68 97 L 70 97 C 66.734375 97.136719 60.386719 93.71875 61 99 M 49 96 L 50 97 L 49 96 M 64 96 L 63 97 L 64 96 M 51.667969 97.332031 C 51.222656 97.777344 52.277344 97.722656 52.332031 97.667969 C 52.777344 97.222656 51.722656 97.277344 51.667969 97.332031 M 54 98 L 55 99 L 54 98 M 71 98.332031 C 71.773438 98.332031 71 98.832031 70.667969 98.667969 L 71 98.332031 M 76 98 L 76 99 L 79 99 C 77.753906 98.316406 77.453125 98.25 76 98 M 56.667969 99.332031 C 56.222656 99.777344 57.277344 99.722656 57.332031 99.667969 C 57.777344 99.222656 56.722656 99.277344 56.667969 99.332031 M 59 100 L 59 101 L 62 101 C 60.753906 100.316406 60.453125 100.25 59 100 M 74.667969 100.332031 C 74.222656 100.777344 75.277344 100.722656 75.332031 100.667969 C 75.777344 100.222656 74.722656 100.277344 74.667969 100.332031 M 63 101 L 63 102 L 67 102 C 65.492188 101.316406 64.683594 101.175781 63 101 M 83 101 L 83 102 L 87 102 C 85.492188 101.316406 84.683594 101.175781 83 101 M 69 102 L 69 103 L 81 103 C 77.304688 101.449219 72.984375 102 69 102 "/>
</g>
</svg>
