<?xml version="1.0" encoding="UTF-8"?>
<svg xmlns="http://www.w3.org/2000/svg" xmlns:xlink="http://www.w3.org/1999/xlink" width="150pt" height="150pt" viewBox="0 0 150 150" version="1.1">
<g id="surface1">
<path style=" stroke:none;fill-rule:nonzero;fill:rgb(0%,0%,0%);fill-opacity:1;" d="M 3 74 L 4 74 C 4 64 6.273438 54.101563 10.757813 45 C 21.3125 23.570313 42 7.40625 66 4.289063 C 106.183594 -0.933594 145.972656 32 146 73 C 148.671875 66.628906 146 58.257813 143.996094 52 C 137.574219 33 124 18.023438 106 9.257813 C 59.261719 -13.464844 3 22.667969 3 74 M 68 8.429688 C 55.675781 10.195313 43.976563 14.449219 34 22.039063 C -18.179688 61.734375 17 151 83 141.570313 C 94.210938 140 104.769531 136.199219 114 129.570313 C 167.273438 91.3125 135.664063 -1.265625 68 8.429688 M 73.960938 9.339844 C 81.433594 8.703125 89.96875 10.628906 97 13.003906 C 158.765625 34 152.21875 133 85 139.828125 C 66.726563 141.6875 48.558594 138.363281 34 126.53125 C -0.324219 98.640625 2 43 40 19.230469 C 50.523438 12.632813 61.789063 10.375 73.960938 9.339844 M 73 13.03125 C 69.464844 16.589844 73.996094 24.347656 70.972656 28.4375 C 65.515625 35.808594 47 34 40.316406 40.433594 C 33.734375 46.828125 34 61.785156 29.488281 69.683594 C 26.746094 74.328125 13.296875 69 13.296875 75 C 13.296875 81 26.742188 75.804688 29.566406 80.316406 C 36.363281 91.183594 35.859375 101.480469 47 110.671875 C 53.71875 116.214844 64.449219 116 70.398438 121 C 73.589844 123.746094 69.351563 139.203125 75.742188 137.621094 C 81.417969 136.222656 75 123.578125 80.316406 120.511719 C 85.246094 117.605469 95.386719 114.453125 101 113.238281 C 105.351563 112.300781 109.859375 114 113.441406 110.425781 C 120.722656 103.386719 112.722656 85.785156 121.589844 79.027344 C 123.933594 77.242188 128.25 78.019531 131 78 C 133.445313 78 138.609375 78.257813 137.621094 74.257813 C 136.484375 69.652344 125.667969 73.019531 122.3125 71.398438 C 119 69.792969 117.519531 60.4375 116.761719 57.042969 C 115 49.644531 127.191406 51 127.96875 44.789063 C 128.316406 42 125.402344 39.03125 123.867188 37 C 119.203125 30.824219 108.652344 19.3125 100 19 C 93.886719 18.695313 95.667969 30.738281 89.785156 31.648438 C 76.84375 33.644531 79.328125 23.191406 77.851563 15.148438 C 77.453125 13 75 11.03125 73 13.03125 M 137 73 L 137 77 C 132.757813 77 124 75.347656 120.589844 78.027344 C 111.808594 84.722656 119.753906 104.226563 111.773438 110.257813 C 108.570313 112.679688 104.648438 111.503906 101 112.0625 C 96.308594 112.777344 82 117 78.601563 120 C 75.882813 122.332031 78.757813 135.363281 75 135.363281 C 71.246094 135.363281 74 122.335938 71.398438 120 C 63.675781 113.320313 51.265625 114.320313 43.175781 106 C 35.691406 98.136719 36.378906 85.597656 30 78.601563 C 27.6875 76 14.636719 78.695313 14.636719 75 C 14.636719 71.136719 28.234375 74.503906 30.488281 70.683594 C 35 62.828125 34.632813 47.753906 41.316406 41.449219 C 48.496094 34.675781 64.25 36.515625 71.398438 30.0625 C 74.945313 27 70.316406 16.605469 74.453125 14.753906 C 76.71875 13.738281 76.527344 29.742188 81 31.289063 C 84.21875 32.371094 90.378906 34.4375 93 31.59375 C 95.449219 29 95.59375 22 99.417969 20.816406 C 103.503906 19.648438 110 25.214844 113 27.519531 C 117.28125 31 125.921875 38 126.171875 44 C 126.378906 48.808594 118 49.566406 115.933594 53.328125 C 114.414063 56.0625 116.4375 59.347656 117.230469 62 C 120.902344 74.339844 124.617188 73 137 73 M 69.851563 34.585938 C 64.964844 34.597656 55.675781 37.292969 52.691406 41.390625 C 50.847656 44 52 47.273438 49.667969 49.683594 C 46.652344 52.789063 41.976563 51.351563 39.363281 55.148438 C 37.71875 57.539063 31.476563 71.492188 36.332031 72.625 C 39.867188 73.449219 42.605469 69.820313 46 69.742188 C 49 69.671875 51.617188 73.097656 54.726563 72.25 C 57.253906 71.558594 58.238281 68 59.476563 66.015625 C 62.546875 61.152344 70.238281 59.445313 72.398438 54.726563 C 73.957031 51.308594 74.785156 34.574219 69.851563 34.585938 M 78 35.117188 C 74.691406 38 76 62.042969 83.300781 55.390625 C 85.925781 53 90.996094 42 90 38.429688 C 89.316406 35.566406 80.210938 33.238281 78 35.117188 M 66.980469 36.320313 C 73.945313 35.5625 72 44.332031 72 49 C 71.941406 57.539063 64.238281 57.828125 59.394531 64.003906 C 58 65.671875 56.675781 70.609375 54.441406 71.09375 C 51.992188 71.625 49.402344 69 47 68.539063 C 44.238281 68.136719 38.976563 72.785156 36.992188 71 C 34.238281 68.320313 38.175781 59.609375 39.675781 57.074219 C 42 53 46.472656 54.273438 49.773438 51.480469 C 52.894531 49 51.640625 45.710938 53.308594 42.613281 C 55.375 38.777344 62.984375 36.753906 66.980469 36.320313 M 79.601563 36.605469 C 92 29.578125 88.402344 53 81.558594 55.246094 C 76.832031 56.824219 76.414063 38.40625 79.601563 36.605469 M 108.785156 56.132813 C 103.789063 56.703125 87.738281 65 93.859375 71.398438 C 96.867188 74.617188 108.789063 73.605469 112.851563 73 C 118.796875 71.75 113.78125 55.5625 108.785156 56.132813 M 115 72 C 110.335938 72 98.199219 74.167969 94.878906 70.398438 C 90.242188 65.140625 105.429688 56.644531 109.582031 57.816406 C 113.796875 59.007813 114 68.511719 115 72 M 69.851563 60.800781 C 64 62 55.761719 75 66 72.679688 C 71 71.535156 76.292969 59.59375 69.851563 60.800781 M 77 68 C 83 63.800781 77 56.78125 77 68 M 72 61 C 71.910156 68.519531 68.519531 72 61 72 C 63 66.523438 66.523438 63.148438 72 61 M 80 61 L 79 65 L 78 65 L 78 61 L 80 61 M 81 71 C 89 77.160156 92 65 81 71 M 89 72 L 83 72 C 85.40625 69.816406 87 69.160156 89 72 M 3 76 C 3 86.28125 4.671875 95.546875 8.863281 105 C 39 173.300781 147 152.375 147 77 L 146 77 C 145.847656 131.613281 83 162.417969 38 135.546875 C 23.40625 127 12 112.128906 7 96 C 5 89.613281 5.503906 82 3 76 M 35 78.03125 C 32.992188 80.410156 36 87.53125 37 90 C 41.203125 101 50 109.523438 61 113.453125 C 63.390625 114.308594 69.730469 117 71.972656 115 C 73.730469 113.335938 73 109.097656 73 107 C 73 93.53125 69 96 61.390625 87 C 59.3125 84.480469 58.316406 79.6875 55.503906 78.085938 C 52.273438 76.25 49.214844 80.375 46 80.371094 C 43 80.371094 37.773438 75.058594 35 78.03125 M 61 78.027344 C 58.195313 81.683594 68.316406 91.804688 71.972656 89 C 77.417969 84.492188 65.507813 72.582031 61 78.027344 M 82 78.027344 C 77.457031 80.40625 74.550781 92.378906 82 88.664063 C 88.554688 85.410156 92.332031 72.648438 82 78.027344 M 94.507813 78.027344 C 91.761719 80 90.890625 84.378906 88.660156 87 C 85.6875 90.273438 78.578125 91.757813 77.316406 96.132813 C 76.390625 99.355469 75.414063 112.550781 78 115 C 81.308594 118 91.992188 112.6875 94.847656 110.648438 C 99 107.574219 96.207031 102.078125 99.433594 98.109375 C 104.996094 91.261719 111.695313 96.308594 114.511719 86 C 117.429688 75.3125 102 72.734375 94.507813 78.027344 M 72 115 C 57.992188 111.546875 46.496094 106.742188 39.609375 93 C 38.238281 90.265625 34 82 36.992188 79.085938 C 38.972656 77.222656 43.636719 81.558594 46 81.625 C 48.832031 81.703125 51.835938 78.363281 54.503906 79.339844 C 57.171875 80.320313 59 86 61 88 C 63.847656 90.828125 68.804688 92.328125 70.972656 95.496094 C 73.933594 99.832031 72 110 72 115 M 72 89 C 66.464844 87.117188 63 83.386719 61 78 C 68.519531 78.089844 71.910156 81.480469 72 89 M 89 78 C 87.167969 83.722656 83.722656 87.167969 78 89 C 78 81.6875 81.617188 78.238281 89 78 M 115 78 C 114 82.042969 113.90625 89.257813 110.296875 92 C 106.988281 94.464844 102.570313 93 99.226563 96.226563 C 95.382813 100.074219 97.882813 104.769531 95.226563 108.605469 C 91.925781 113.378906 83 113.734375 78 115 C 78 109.675781 76.367188 101.167969 78.601563 96.273438 C 80 93.203125 84.527344 92 86.984375 89.785156 C 90.359375 87 91.988281 81.425781 95.496094 79.027344 C 99.832031 76.066406 109.898438 78 115 78 "/>
</g>
</svg>
