<?xml version="1.0" encoding="UTF-8" standalone="no"?>
<!-- Created with Inkscape (http://www.inkscape.org/) -->

<svg
   width="150"
   height="150"
   viewBox="0 0 39.687499 39.687501"
   version="1.1"
   id="svg160"
   inkscape:version="1.3.2 (091e20e, 2023-11-25, custom)"
   xml:space="preserve"
   sodipodi:docname="uixSvgIcon_CommanderMorale.svg"
   xmlns:inkscape="http://www.inkscape.org/namespaces/inkscape"
   xmlns:sodipodi="http://sodipodi.sourceforge.net/DTD/sodipodi-0.dtd"
   xmlns="http://www.w3.org/2000/svg"
   xmlns:svg="http://www.w3.org/2000/svg"><sodipodi:namedview
     id="namedview162"
     pagecolor="#505050"
     bordercolor="#ffffff"
     borderopacity="1"
     inkscape:pageshadow="0"
     inkscape:pageopacity="0"
     inkscape:pagecheckerboard="1"
     inkscape:document-units="mm"
     showgrid="false"
     units="px"
     inkscape:showpageshadow="0"
     inkscape:deskcolor="#d1d1d1"
     inkscape:zoom="3.6628131"
     inkscape:cx="104.01841"
     inkscape:cy="84.770909"
     inkscape:window-width="1920"
     inkscape:window-height="991"
     inkscape:window-x="1911"
     inkscape:window-y="-9"
     inkscape:window-maximized="1"
     inkscape:current-layer="layer1" /><defs
     id="defs157" /><g
     inkscape:label="Layer 1"
     inkscape:groupmode="layer"
     id="layer1"><path
       fill="#000000"
       d="M 11.275608,1.3229167 9.6017297,1.5592607 13.506979,33.295873 c 0.615935,-0.04639 1.245099,-0.08612 1.886946,-0.118722 L 12.986606,14.556875 c 1.992935,-0.604496 3.964315,-1.288924 5.700215,-2.842794 1.14938,7.088296 -0.139685,14.277524 -0.184975,21.366448 0.986739,-0.01145 2.066084,-7.59e-4 2.949326,0.02296 -0.04404,-0.542276 -0.598892,-7.949199 1.874962,-10.21649 1.458321,-1.33649 5.893516,-0.513203 5.893516,-0.513203 1.020591,1.722822 1.016623,2.89373 0.69881,4.906499 l 2.425064,0.630434 c 0.192133,-1.132432 0.132835,-4.052963 -0.549011,-7.563806 -0.09564,-0.231017 -0.813205,-0.373247 -1.403537,-0.630043 -0.01425,-2.404195 0.487766,-4.705496 0.02124,-7.109691 -1.119187,-0.888015 -3.578957,-1.645477 -5.506601,-2.6917873 l -0.434229,-0.05971 C 23.908291,10.449688 23.176252,10.839938 22.355653,10.839938 21.171798,10.659623 20.277897,10.052385 19.739002,9.2061357 L 18.74806,9.0700967 c -1.848037,1.4264513 -3.895601,2.4512123 -6.049075,3.2626663 z m 11.080128,1.459913 c -0.483254,0 -0.962616,0.283049 -1.365718,0.874067 -0.403178,0.591018 -0.681847,1.467749 -0.681847,2.449331 0,0.981503 0.278592,1.858078 0.681847,2.449174 0.403102,0.591018 0.882464,0.874067 1.365718,0.874067 0.48333,0 0.962771,-0.283049 1.36595,-0.874067 0.403101,-0.591096 0.681691,-1.467671 0.681691,-2.449174 0,-0.981582 -0.27859,-1.858313 -0.681691,-2.449331 -0.4031,-0.591018 -0.88262,-0.874146 -1.36595,-0.874146 z M 8.4723477,4.1510567 c -0.07253,0.224747 -0.140852,0.452001 -0.221628,0.6704 -0.270964,0.73364 -0.587375,1.42128 -1.004638,1.986673 -0.417186,0.565315 -0.972811,1.041217 -1.695435,1.144343 -1.067982,0.152496 -1.634191,0.477234 -2.012156,0.925395 -0.378043,0.44824 -0.597725,1.09897 -0.72776,1.9920013 -0.198593,1.364467 -0.07198,3.06143 0.153303,4.790522 0.110347,-0.321839 0.227308,-0.640309 0.368316,-0.941147 0.327227,-0.697827 0.752661,-1.334767 1.348908,-1.803693 0.596324,-0.468928 1.369608,-0.742887 2.242343,-0.716714 0.595858,0.01786 1.06238,-0.387351 1.460267,-1.141757 0.393451,-0.74602 0.610798,-1.7636503 0.615468,-2.5052823 z M 25.115495,12.502261 c 1.071718,0.65559 2.134097,1.213146 3.490944,1.294566 0.531268,1.869754 0.127232,3.910968 0.06459,5.7808 -1.720494,-0.341351 -3.355072,-0.742886 -3.550319,-1.81388 0.231277,-2.700487 0.26824,-3.852352 -0.0052,-5.261486 z m 3.80035,15.974175 c -0.356798,1.704408 -1.013276,3.328334 -1.937995,4.957904 2.869952,0.204372 5.845502,0.461013 8.732962,1.223334 -0.0047,-1.56492 -0.475704,-3.171843 -1.315601,-4.756589 z m -9.901797,6.009857 c -7.585915,0.03973 -13.6061203,1.147869 -17.6911313,2.226778 v 1.651513 H 38.364584 v -1.484207 c -4.565853,-1.16895 -11.370468,-2.43601 -19.350536,-2.394162 z"
       id="path1"
       style="fill:#ffffff;stroke-width:0.0780905" /></g></svg>
