<?xml version="1.0" encoding="UTF-8" standalone="no"?>
<!-- Created with Inkscape (http://www.inkscape.org/) -->

<svg
   width="150"
   height="150"
   viewBox="0 0 39.687499 39.687501"
   version="1.1"
   id="svg160"
   inkscape:version="1.3.2 (091e20e, 2023-11-25, custom)"
   xml:space="preserve"
   sodipodi:docname="uixSvgIcon_ability_targetpro2.svg"
   xmlns:inkscape="http://www.inkscape.org/namespaces/inkscape"
   xmlns:sodipodi="http://sodipodi.sourceforge.net/DTD/sodipodi-0.dtd"
   xmlns="http://www.w3.org/2000/svg"
   xmlns:svg="http://www.w3.org/2000/svg"><sodipodi:namedview
     id="namedview162"
     pagecolor="#505050"
     bordercolor="#ffffff"
     borderopacity="1"
     inkscape:pageshadow="0"
     inkscape:pageopacity="0"
     inkscape:pagecheckerboard="1"
     inkscape:document-units="mm"
     showgrid="false"
     units="px"
     inkscape:showpageshadow="0"
     inkscape:deskcolor="#d1d1d1"
     inkscape:zoom="0.6475"
     inkscape:cx="600.7722"
     inkscape:cy="-145.94595"
     inkscape:window-width="1920"
     inkscape:window-height="991"
     inkscape:window-x="1911"
     inkscape:window-y="-9"
     inkscape:window-maximized="1"
     inkscape:current-layer="layer1" /><defs
     id="defs157" /><g
     inkscape:label="Layer 1"
     inkscape:groupmode="layer"
     id="layer1"><g
       style="fill:#ffffff"
       id="g1"
       transform="matrix(1.2347,0,0,1.2346435,0.08821667,0.08950781)"><path
         d="M 3.812,1 15.062,13.187 25.374,25.374 13.187,15.062 1,3.812 3.813,0.999 Z m 23.491,16.026 c -2.344,-1.379 -5.267,-1.362 -7.61,0.016 l 2.838,2.838 c 0.627,-0.165 1.288,-0.153 1.913,0.009 l 2.86,-2.86 v -0.003 z m 2.672,2.67 -2.86,2.86 c 0.16,0.625 0.171,1.286 0.006,1.913 l 2.838,2.838 c 1.377,-2.342 1.395,-5.265 0.016,-7.61 v 0 z m -12.934,0 c -1.376,2.343 -1.394,5.266 -0.015,7.61 l 2.86,-2.86 C 19.726,23.821 19.714,23.16 19.88,22.533 l -2.838,-2.838 z m 7.428,7.428 c -0.627,0.165 -1.288,0.154 -1.913,-0.009 l -2.86,2.86 c 2.344,1.379 5.267,1.362 7.61,-0.016 l -2.838,-2.838 v 0.003 z"
         id="path1"
         style="fill:#ffffff" /></g></g></svg>
