<?xml version="1.0" encoding="UTF-8" standalone="no"?>
<!-- Created with Inkscape (http://www.inkscape.org/) -->

<svg
   width="150"
   height="150"
   viewBox="0 0 39.687499 39.687501"
   version="1.1"
   id="svg160"
   inkscape:version="1.3.2 (091e20e, 2023-11-25, custom)"
   sodipodi:docname="uixSvgIcon_ability_LastStand.svg"
   xml:space="preserve"
   xmlns:inkscape="http://www.inkscape.org/namespaces/inkscape"
   xmlns:sodipodi="http://sodipodi.sourceforge.net/DTD/sodipodi-0.dtd"
   xmlns="http://www.w3.org/2000/svg"
   xmlns:svg="http://www.w3.org/2000/svg"><sodipodi:namedview
   id="namedview162"
   pagecolor="#505050"
   bordercolor="#ffffff"
   borderopacity="1"
   inkscape:pageshadow="0"
   inkscape:pageopacity="0"
   inkscape:pagecheckerboard="1"
   inkscape:document-units="px"
   showgrid="false"
   units="px"
   inkscape:zoom="2.19"
   inkscape:cx="42.922374"
   inkscape:showpageshadow="0"
   inkscape:deskcolor="#d1d1d1"
   inkscape:cy="72.83105"
   inkscape:window-width="1600"
   inkscape:window-height="871"
   inkscape:window-x="-9"
   inkscape:window-y="-9"
   inkscape:window-maximized="1"
   inkscape:current-layer="layer1" />
 HEAD
     inkscape:cy=&quot;17.589281&quot;
     inkscape:window-width=&quot;1920&quot;
     inkscape:window-height=&quot;991&quot;
     inkscape:window-x=&quot;1911&quot;
=======
     inkscape:cy=&quot;73.804271&quot;
     inkscape:window-width=&quot;1600&quot;
     inkscape:window-height=&quot;871&quot;
     inkscape:window-x=&quot;-9&quot;
&gt;&gt;&gt;&gt;&gt;&gt;&gt; test
     inkscape:window-y=&quot;-9&quot;
     inkscape:window-maximized=&quot;1&quot;
     inkscape:current-layer=&quot;layer1&quot;
     inkscape:showpageshadow=&quot;0&quot;
     inkscape:deskcolor=&quot;#505050&quot; /&gt;
  <defs
   id="defs157"><filter
     style="color-interpolation-filters:sRGB;"
     inkscape:label="Invert"
     id="filter2414"
     x="-0.0009765625"
     y="-0.0009765625"
     width="1.0019531"
     height="1.0019531"><feColorMatrix
       type="hueRotate"
       values="180"
       result="color1"
       id="feColorMatrix2410" /><feColorMatrix
       values="-1 0 0 0 1 0 -1 0 0 1 0 0 -1 0 1 -0.21 -0.72 -0.07 2 0 "
       result="color2"
       id="feColorMatrix2412" /></filter><filter
     style="color-interpolation-filters:sRGB;"
     inkscape:label="Invert"
     id="filter1101"
     x="0"
     y="0"
     width="1"
     height="1"><feColorMatrix
       values="-1 0 0 0 1 0 -1 0 0 1 0 0 -1 0 1 -0.21 -0.72 -0.07 2 0 "
       result="fbSourceGraphic"
       id="feColorMatrix1099" /><feColorMatrix
       result="fbSourceGraphicAlpha"
       in="fbSourceGraphic"
       values="0 0 0 -1 0 0 0 0 -1 0 0 0 0 -1 0 0 0 0 1 0"
       id="feColorMatrix858" /><feColorMatrix
       id="feColorMatrix860"
       values="-1 0 0 0 1 0 -1 0 0 1 0 0 -1 0 1 -0.21 -0.72 -0.07 2 0 "
       result="color2"
       in="fbSourceGraphic" /></filter></defs><g
   inkscape:label="Layer 1"
   inkscape:groupmode="layer"
   id="layer1"><g
     style="fill:#ffffff"
     id="g1"
     transform="matrix(0.07677641,0,0,0.07234701,2.6458333,1.3229167)"><path
       d="M 277.37,11.98 C 261.08,4.47 243.11,0 224,0 170.31,0 124.5,33.13 105.49,80 h 81.19 z M 342.51,80 C 334.61,60.53 321.84,43.8 306.02,30.48 L 239.99,80 Z M 224,256 c 70.69,0 128,-57.31 128,-128 0,-5.48 -0.95,-10.7 -1.61,-16 H 97.61 c -0.67,5.3 -1.61,10.52 -1.61,16 0,70.69 57.31,128 128,128 z M 80,299.7 V 512 H 208.26 L 109.81,290.48 A 132.835,132.835 0 0 0 80,299.7 Z M 0,464 c 0,26.51 21.49,48 48,48 V 320.24 C 18.88,344.89 0,381.26 0,422.4 Z m 256,-48 h -55.38 l 42.67,96 H 256 c 26.47,0 48,-21.53 48,-48 0,-26.47 -21.53,-48 -48,-48 z m 57.6,-128 h -16.71 c -22.24,10.18 -46.88,16 -72.89,16 -26.01,0 -50.65,-5.82 -72.89,-16 h -7.37 l 42.67,96 H 256 c 44.11,0 80,35.89 80,80 0,18.08 -6.26,34.59 -16.41,48 H 400 c 26.51,0 48,-21.49 48,-48 V 422.4 C 448,348.17 387.83,288 313.6,288 Z"
       id="path1"
       style="fill:#ffffff" /></g></g></svg>
