<?xml version="1.0" encoding="UTF-8" standalone="no"?>
<!-- Created with Inkscape (http://www.inkscape.org/) -->

<svg
   width="150"
   height="150"
   viewBox="0 0 39.687499 39.687501"
   version="1.1"
   id="svg160"
   inkscape:version="1.3.2 (091e20e, 2023-11-25, custom)"
   xml:space="preserve"
   sodipodi:docname="uixSvgIcon_ability_longshot2.svg"
   xmlns:inkscape="http://www.inkscape.org/namespaces/inkscape"
   xmlns:sodipodi="http://sodipodi.sourceforge.net/DTD/sodipodi-0.dtd"
   xmlns="http://www.w3.org/2000/svg"
   xmlns:svg="http://www.w3.org/2000/svg"><sodipodi:namedview
     id="namedview162"
     pagecolor="#505050"
     bordercolor="#ffffff"
     borderopacity="1"
     inkscape:pageshadow="0"
     inkscape:pageopacity="0"
     inkscape:pagecheckerboard="1"
     inkscape:document-units="mm"
     showgrid="false"
     units="px"
     inkscape:showpageshadow="0"
     inkscape:deskcolor="#d1d1d1"
     inkscape:zoom="5.18"
     inkscape:cx="74.903475"
     inkscape:cy="75"
     inkscape:window-width="1920"
     inkscape:window-height="991"
     inkscape:window-x="1911"
     inkscape:window-y="-9"
     inkscape:window-maximized="1"
     inkscape:current-layer="layer1" /><defs
     id="defs157" /><g
     inkscape:label="Layer 1"
     inkscape:groupmode="layer"
     id="layer1"><path
       fill="#000000"
       d="m 4.1330667,1.3229167 c 1.625889,1.495342 3.226989,3.038571 4.789917,4.614721 -0.0067,0.0049 -0.01331,0.01001 -0.01996,0.01497 1.065183,1.072085 2.1119923,2.159607 3.1374983,3.258076 l 0.01687,-0.01119 c 0.340542,0.365684 0.679183,0.73247 1.014656,1.1002803 l -0.01544,0.0099 c 1.02899,1.125485 2.032954,2.26105 3.008329,3.401657 l 0.0084,-0.0082 c 2.143274,2.513397 4.145106,5.052235 5.95845,7.566656 0.164728,0.228562 0.328107,0.456808 0.489747,0.68482 l 0.05726,0.0808 c 0.138593,0.195797 0.275601,0.391438 0.411818,0.586765 0.03667,0.05277 0.07365,0.10538 0.110241,0.158071 0.11325,0.163505 0.225312,0.326855 0.336898,0.489888 0.05385,0.07899 0.108499,0.158073 0.162193,0.236911 0.111113,0.163507 0.220639,0.326697 0.329929,0.489889 0.04277,0.06364 0.08632,0.127592 0.128852,0.191387 0,-1.56e-4 0,0 0,0 l -1.92e-4,-1.9e-4 c -0.235211,-0.154843 -0.471056,-0.311891 -0.707058,-0.470198 -0.04609,-0.03103 -0.09226,-0.06253 -0.138355,-0.09357 -0.19403,-0.130741 -0.38806,-0.262272 -0.582327,-0.395375 -0.04799,-0.03285 -0.09606,-0.06616 -0.144137,-0.09924 -0.188802,-0.129797 -0.377763,-0.260696 -0.56704,-0.392698 l -0.162352,-0.113573 c -0.199097,-0.139642 -0.398355,-0.280386 -0.59777,-0.422312 l -0.08173,-0.05829 C 20.844929,21.976688 20.611856,21.809087 20.378626,21.63983 18.091563,19.980069 15.790927,18.171971 13.512861,16.249433 l 0.0044,-0.0045 c -1.142003,-0.965285 -2.278462,-1.95861 -3.404625,-2.976744 l -0.0049,0.0079 C 9.7373367,12.941673 9.3678887,12.604894 8.9997867,12.265438 l 0.0063,-0.0092 C 7.8998817,11.234481 6.8048427,10.191301 5.7259587,9.1296917 l -0.0076,0.01 c -1.499729,-1.474233 -2.969127,-2.982414 -4.395442,-4.514064 1.179224,1.824875 2.445564,3.630848 3.786348,5.4084673 -3.601505,5.732644 -2.896584,13.377746 2.115001,18.361696 4.5783053,4.553129 11.3888213,5.530782 16.9268993,2.935079 -1.332072,-1.065627 -2.621616,-2.194734 -3.859999,-3.379288 -3.433452,0.842499 -7.216078,-0.06718 -9.89424,-2.730619 -3.0813473,-3.064561 -3.8286383,-7.583432 -2.2432193,-11.354237 0.360024,0.431056 0.724087,0.859826 1.092347,1.286156 -0.99549,3.076376 -0.263088,6.580183 2.1975233,9.027265 2.07176,2.060368 4.896672,2.901528 7.5841,2.525291 -2.451504,-2.490953 -4.678567,-5.198493 -6.612052,-8.048039 7.692599,8.128374 16.772073,15.121969 25.948959,19.707158 -4.588523,-9.052313 -11.585625,-18.048152 -19.710156,-25.687898 2.828396,1.889695 5.514716,4.072378 7.990611,6.474882 0.38711,-2.680054 -0.458305,-5.500617 -2.536402,-7.567287 -1.751809,-1.7424133 -4.042309,-2.6135013 -6.332727,-2.6135013 -0.934273,0 -1.868545,0.145076 -2.766308,0.434992 -0.427498,-0.365919 -0.857689,-0.727744 -1.28986,-1.085552 1.293424,-0.540847 2.674677,-0.812019 4.056168,-0.812019 2.6723,0 5.344682,1.011834 7.379298,3.0354213 2.683152,2.668398 3.596596,6.439596 2.741361,9.859367 1.189995,1.226691 2.325346,2.504575 3.397815,3.824204 2.609657,-5.507705 1.626362,-12.281244 -2.951626,-16.8342183 -2.915987,-2.899953 -6.737734,-4.350087 -10.559404,-4.350087 -2.74833,0 -5.496659,0.749956 -7.9080903,2.249787 -1.886442,-1.411383 -3.804801,-2.739124 -5.742166,-3.969516 z"
       id="path1"
       style="fill:#ffffff;stroke-width:0.0789776" /></g></svg>
