<?xml version="1.0" encoding="UTF-8" standalone="no"?>
<!-- Created with Inkscape (http://www.inkscape.org/) -->

<svg
   width="150"
   height="150"
   viewBox="0 0 39.687499 39.687501"
   version="1.1"
   id="svg160"
   inkscape:version="1.3 (0e150ed6c4, 2023-07-21)"
   sodipodi:docname="uixSvgIcon_ability_overclock2.svg"
   xmlns:inkscape="http://www.inkscape.org/namespaces/inkscape"
   xmlns:sodipodi="http://sodipodi.sourceforge.net/DTD/sodipodi-0.dtd"
   xmlns="http://www.w3.org/2000/svg"
   xmlns:svg="http://www.w3.org/2000/svg">
  <sodipodi:namedview
     id="namedview162"
     pagecolor="#505050"
     bordercolor="#ffffff"
     borderopacity="1"
     inkscape:pageshadow="0"
     inkscape:pageopacity="0"
     inkscape:pagecheckerboard="1"
     inkscape:document-units="px"
     showgrid="false"
     units="px"
     inkscape:zoom="5.32"
     inkscape:cx="60.902256"
     inkscape:cy="68.703008"
     inkscape:window-width="1600"
     inkscape:window-height="871"
     inkscape:window-x="-9"
     inkscape:window-y="-9"
     inkscape:window-maximized="1"
     inkscape:current-layer="layer1"
     showguides="true"
     inkscape:guide-bbox="true"
     inkscape:showpageshadow="0"
     inkscape:deskcolor="#d1d1d1">
    <sodipodi:guide
       position="1.3428101,34.813597"
       orientation="1,0"
       id="guide1008"
       inkscape:locked="false" />
    <sodipodi:guide
       position="38.394422,36.753212"
       orientation="1,0"
       id="guide1010"
       inkscape:locked="false" />
  </sodipodi:namedview>
  <defs
     id="defs157">
    <filter
       style="color-interpolation-filters:sRGB;"
       inkscape:label="Invert"
       id="filter1214"
       x="-0.0042402083"
       y="-0.0064113267"
       width="1.0118231"
       height="1.0188809">
      <feColorMatrix
         type="hueRotate"
         values="180"
         result="color1"
         id="feColorMatrix1210" />
      <feColorMatrix
         values="-1 0 0 0 1 0 -1 0 0 1 0 0 -1 0 1 -0.21 -0.72 -0.07 2 0 "
         result="fbSourceGraphic"
         id="feColorMatrix1212" />
      <feColorMatrix
         result="fbSourceGraphicAlpha"
         in="fbSourceGraphic"
         values="0 0 0 -1 0 0 0 0 -1 0 0 0 0 -1 0 0 0 0 1 0"
         id="feColorMatrix825" />
      <feColorMatrix
         id="feColorMatrix827"
         values="-1 0 0 0 1 0 -1 0 0 1 0 0 -1 0 1 -0.21 -0.72 -0.07 2 0 "
         result="fbSourceGraphic"
         in="fbSourceGraphic" />
      <feColorMatrix
         result="fbSourceGraphicAlpha"
         in="fbSourceGraphic"
         values="0 0 0 -1 0 0 0 0 -1 0 0 0 0 -1 0 0 0 0 1 0"
         id="feColorMatrix847" />
      <feColorMatrix
         id="feColorMatrix849"
         values="-1 0 0 0 1 0 -1 0 0 1 0 0 -1 0 1 -0.21 -0.72 -0.07 2 0 "
         result="fbSourceGraphic"
         in="fbSourceGraphic" />
      <feColorMatrix
         result="fbSourceGraphicAlpha"
         in="fbSourceGraphic"
         values="0 0 0 -1 0 0 0 0 -1 0 0 0 0 -1 0 0 0 0 1 0"
         id="feColorMatrix829" />
      <feColorMatrix
         id="feColorMatrix831"
         values="-1 0 0 0 1 0 -1 0 0 1 0 0 -1 0 1 -0.21 -0.72 -0.07 2 0 "
         result="fbSourceGraphic"
         in="fbSourceGraphic" />
      <feColorMatrix
         result="fbSourceGraphicAlpha"
         in="fbSourceGraphic"
         values="0 0 0 -1 0 0 0 0 -1 0 0 0 0 -1 0 0 0 0 1 0"
         id="feColorMatrix851" />
      <feColorMatrix
         id="feColorMatrix853"
         values="-1 0 0 0 1 0 -1 0 0 1 0 0 -1 0 1 -0.21 -0.72 -0.07 2 0 "
         result="color2"
         in="fbSourceGraphic" />
    </filter>
    <filter
       style="color-interpolation-filters:sRGB;"
       inkscape:label="Invert"
       id="filter988"
       x="-0.0012863278"
       y="-0.00083556146"
       width="1.0026978"
       height="1.0048612">
      <feColorMatrix
         values="-1 0 0 0 1 0 -1 0 0 1 0 0 -1 0 1 -0.21 -0.72 -0.07 2 0 "
         result="fbSourceGraphic"
         id="feColorMatrix986" />
      <feColorMatrix
         result="fbSourceGraphicAlpha"
         in="fbSourceGraphic"
         values="0 0 0 -1 0 0 0 0 -1 0 0 0 0 -1 0 0 0 0 1 0"
         id="feColorMatrix837" />
      <feColorMatrix
         id="feColorMatrix839"
         values="-1 0 0 0 1 0 -1 0 0 1 0 0 -1 0 1 -0.21 -0.72 -0.07 2 0 "
         result="color2"
         in="fbSourceGraphic" />
    </filter>
  </defs>
  <g
     inkscape:label="Layer 1"
     inkscape:groupmode="layer"
     id="layer1">
    <path
       fill="#000000"
       d="M 37.722056,-31.475976 37.190244,8.2565033 c -2.8575,0.601398 -5.628481,1.438804 -8.290454,2.4931687 L 19.782248,-3.6542447 22.555081,13.785236 c -2.959629,1.672696 -5.738812,3.627967 -8.297862,5.832211 L -8.3347579,0.30021834 7.7820711,26.298176 c -2.837392,3.507052 -5.223933,7.393252 -7.07099004,11.570229 L -9.3139809,35.308826 -0.80868494,41.719151 C -2.1818729,45.65959 -3.0888649,49.817253 -3.4640439,54.125463 l -13.8710451,0.396082 39.98251,15.436583 c -1.570831,-3.46604 -2.445808,-7.31149 -2.445808,-11.35644 0,-15.222806 12.393612,-27.616683 27.616679,-27.616683 15.222802,0 27.616414,12.393877 27.616414,27.617213 0,3.87932 -0.806979,7.57449 -2.258218,10.92835 -0.01429,0.15795 -0.02646,0.31432 -0.04233,0.4736 L 109.75408,54.248759 99.022578,53.209476 c -0.58553,-5.567627 -2.05846,-10.873581 -4.27832,-15.771019 l 7.885652,-9.183687 -10.931792,3.46075 c -2.42173,-3.934884 -5.35835,-7.518929 -8.71458,-10.660592 L 98.574368,-13.817684 73.961242,14.29112 C 70.46689,12.224724 66.709013,10.559436 62.748994,9.3592863 l 0.670719,-17.419637 -6.494728,16.017875 c -2.955395,-0.528373 -5.99731,-0.804333 -9.102989,-0.804333 -0.635,0 -1.266031,0.01588 -1.895475,0.03863 z m 10.09994,43.572906 c 2.449512,0 4.853781,0.189706 7.200106,0.552979 L 49.811663,25.501251 46.970038,12.107513 c 0.283633,-0.0053 0.567002,-0.01058 0.851958,-0.01058 z m -10.69975,1.234017 -0.136261,10.194396 -5.395383,-8.524346 c 1.793875,-0.666221 3.640667,-1.225815 5.531908,-1.669521 z m 25.429633,1.140883 c 2.833159,0.941917 5.543815,2.150269 8.104188,3.592513 l -8.621448,9.845939 0.51726,-13.438187 z m -39.166271,4.537604 1.547813,9.737461 -6.891867,-5.89333 c 1.684338,-1.402291 3.470011,-2.687108 5.34379,-3.843866 z m 57.4638,6.817254 c 2.24366,2.25769 4.2545,4.745038 5.99889,7.42315 L 75.995094,36.685982 80.849668,25.826953 Z M 10.541675,30.749261 17.634625,42.189845 5.5582481,39.10639 c 1.371865,-2.968625 3.044825,-5.767916 4.9836919,-8.357393 z m 37.276881,5.179484 c -12.55051,0 -22.672146,10.1219 -22.672146,22.672143 0,12.55078 10.121636,22.67162 22.672146,22.67162 12.550511,0 22.671352,-10.12084 22.671352,-22.67135 0,-12.550249 -10.120841,-22.672149 -22.671352,-22.672149 z m 43.340862,5.684308 c 1.37848,3.513667 2.34315,7.236354 2.8329,11.108267 L 82.570258,51.615361 Z M 3.3500351,44.854728 14.952808,53.600265 1.5106521,53.983911 c 0.311415,-3.146425 0.935038,-6.199981 1.839648,-9.129183 z"
       id="path977"
       style="stroke:#808080;stroke-width:0.90777977;stroke-miterlimit:4;stroke-dasharray:none;stroke-opacity:1;filter:url(#filter988);fill:#ffffff;fill-opacity:1"
       transform="matrix(0.29146203,0,0,0.29146203,6.3953303,12.302446)" />
  </g>
</svg>
